STARTFONT 2.1
COMMENT 
COMMENT Copyright (C) 2012, 2013 Uwe Waldmann
COMMENT 
COMMENT Permission is hereby granted, free of charge, to any person obtaining
COMMENT a copy of this font software and associated files (the "Software"),
COMMENT to deal in the Software without restriction, including without
COMMENT limitation the rights to use, copy, modify, merge, publish,
COMMENT distribute, embed, sublicense, and/or sell copies of the Software,
COMMENT and to permit persons to whom the Software is furnished to do so,
COMMENT subject to the following conditions:
COMMENT 
COMMENT (1) The above copyright notice, this permission notice, and the
COMMENT     disclaimer below shall be included in all copies or substantial
COMMENT     portions of the Software.
COMMENT 
COMMENT (2) If the design of any glyphs in the fonts that are contained in the
COMMENT     Software or generated during the installation process is modified
COMMENT     or if additional glyphs are added to the fonts, the fonts
COMMENT     must be renamed. The new names may not contain the word "UW",
COMMENT     irrespective of capitalisation; the new names may contain the word
COMMENT     "ttyp0", irrespective of capitalisation, only if preceded by a
COMMENT     foundry name different from "UW".
COMMENT 
COMMENT THE SOFTWARE IS PROVIDED "AS IS", WITHOUT WARRANTY OF ANY KIND, EXPRESS
COMMENT OR IMPLIED, INCLUDING BUT NOT LIMITED TO THE WARRANTIES OF
COMMENT MERCHANTABILITY, FITNESS FOR A PARTICULAR PURPOSE AND NONINFRINGEMENT.
COMMENT IN NO EVENT SHALL THE AUTHORS OR COPYRIGHT HOLDERS BE LIABLE FOR ANY
COMMENT CLAIM, DAMAGES OR OTHER LIABILITY, WHETHER IN AN ACTION OF CONTRACT,
COMMENT TORT OR OTHERWISE, ARISING FROM, OUT OF OR IN CONNECTION WITH THE
COMMENT SOFTWARE OR THE USE OR OTHER DEALINGS IN THE SOFTWARE.
COMMENT 
FONT -UW-Ttyp0-Medium-I-Normal--16-150-75-75-C-80-UW-Fontspecific
SIZE 16 75 75
FONTBOUNDINGBOX 8 16 0 -4
STARTPROPERTIES 19
FONTNAME_REGISTRY ""
FOUNDRY "UW"
FAMILY_NAME "Ttyp0"

STARTCHAR LtCapA
ENCODING 0
SWIDTH 960 0
DWIDTH 8 0
BBX 8 16 0 -4
BITMAP
00
00
0c
0c
14
14
24
24
7c
44
84
84
00
00
00
00
ENDCHAR
STARTCHAR LtCapB
ENCODING 1
SWIDTH 960 0
DWIDTH 8 0
BBX 8 16 0 -4
BITMAP
00
00
1e
11
11
22
3c
22
22
42
44
78
00
00
00
00
ENDCHAR
STARTCHAR LtCapC
ENCODING 2
SWIDTH 960 0
DWIDTH 8 0
BBX 8 16 0 -4
BITMAP
00
00
0e
11
20
20
40
40
40
40
44
38
00
00
00
00
ENDCHAR
STARTCHAR LtCapD
ENCODING 3
SWIDTH 960 0
DWIDTH 8 0
BBX 8 16 0 -4
BITMAP
00
00
3c
22
22
42
42
42
44
84
88
f0
00
00
00
00
ENDCHAR
STARTCHAR LtCapE
ENCODING 4
SWIDTH 960 0
DWIDTH 8 0
BBX 8 16 0 -4
BITMAP
00
00
1f
10
10
20
3c
20
20
40
40
7c
00
00
00
00
ENDCHAR
STARTCHAR LtCapF
ENCODING 5
SWIDTH 960 0
DWIDTH 8 0
BBX 8 16 0 -4
BITMAP
00
00
1f
10
10
20
3c
20
20
40
40
40
00
00
00
00
ENDCHAR
STARTCHAR LtCapG
ENCODING 6
SWIDTH 960 0
DWIDTH 8 0
BBX 8 16 0 -4
BITMAP
00
00
0e
11
20
20
40
4e
42
44
44
3c
00
00
00
00
ENDCHAR
STARTCHAR LtCapH
ENCODING 7
SWIDTH 960 0
DWIDTH 8 0
BBX 8 16 0 -4
BITMAP
00
00
21
21
21
42
7e
42
42
84
84
84
00
00
00
00
ENDCHAR
STARTCHAR LtCapI
ENCODING 8
SWIDTH 960 0
DWIDTH 8 0
BBX 8 16 0 -4
BITMAP
00
00
1f
04
04
08
08
08
08
10
10
7c
00
00
00
00
ENDCHAR
STARTCHAR LtCapJ
ENCODING 9
SWIDTH 960 0
DWIDTH 8 0
BBX 8 16 0 -4
BITMAP
00
00
07
02
02
04
04
04
04
88
88
70
00
00
00
00
ENDCHAR
STARTCHAR LtCapK
ENCODING 10
SWIDTH 960 0
DWIDTH 8 0
BBX 8 16 0 -4
BITMAP
00
00
21
22
24
48
70
50
48
88
84
84
00
00
00
00
ENDCHAR
STARTCHAR LtCapL
ENCODING 11
SWIDTH 960 0
DWIDTH 8 0
BBX 8 16 0 -4
BITMAP
00
00
10
10
10
20
20
20
20
40
40
7c
00
00
00
00
ENDCHAR
STARTCHAR LtCapM
ENCODING 12
SWIDTH 960 0
DWIDTH 8 0
BBX 8 16 0 -4
BITMAP
00
00
21
21
33
56
5a
5a
42
84
84
84
00
00
00
00
ENDCHAR
STARTCHAR LtCapN
ENCODING 13
SWIDTH 960 0
DWIDTH 8 0
BBX 8 16 0 -4
BITMAP
00
00
21
21
31
52
52
4a
4a
8c
84
84
00
00
00
00
ENDCHAR
STARTCHAR LtCapO
ENCODING 14
SWIDTH 960 0
DWIDTH 8 0
BBX 8 16 0 -4
BITMAP
00
00
0e
11
21
21
41
41
42
42
44
38
00
00
00
00
ENDCHAR
STARTCHAR LtCapP
ENCODING 15
SWIDTH 960 0
DWIDTH 8 0
BBX 8 16 0 -4
BITMAP
00
00
1e
11
11
21
22
3c
20
40
40
40
00
00
00
00
ENDCHAR
STARTCHAR LtCapQ
ENCODING 16
SWIDTH 960 0
DWIDTH 8 0
BBX 8 16 0 -4
BITMAP
00
00
0e
11
21
21
41
41
42
52
54
38
06
00
00
00
ENDCHAR
STARTCHAR LtCapR
ENCODING 17
SWIDTH 960 0
DWIDTH 8 0
BBX 8 16 0 -4
BITMAP
00
00
1e
11
11
22
3c
30
28
48
44
44
00
00
00
00
ENDCHAR
STARTCHAR LtCapS
ENCODING 18
SWIDTH 960 0
DWIDTH 8 0
BBX 8 16 0 -4
BITMAP
00
00
1e
21
20
20
10
08
04
04
84
78
00
00
00
00
ENDCHAR
STARTCHAR LtCapT
ENCODING 19
SWIDTH 960 0
DWIDTH 8 0
BBX 8 16 0 -4
BITMAP
00
00
7f
08
08
10
10
10
10
20
20
20
00
00
00
00
ENDCHAR
STARTCHAR LtCapU
ENCODING 20
SWIDTH 960 0
DWIDTH 8 0
BBX 8 16 0 -4
BITMAP
00
00
21
21
41
42
42
42
82
84
84
78
00
00
00
00
ENDCHAR
STARTCHAR LtCapV
ENCODING 21
SWIDTH 960 0
DWIDTH 8 0
BBX 8 16 0 -4
BITMAP
00
00
21
21
22
22
24
24
28
28
30
30
00
00
00
00
ENDCHAR
STARTCHAR LtCapW
ENCODING 22
SWIDTH 960 0
DWIDTH 8 0
BBX 8 16 0 -4
BITMAP
00
00
21
21
21
22
2a
5a
6a
6c
44
44
00
00
00
00
ENDCHAR
STARTCHAR LtCapX
ENCODING 23
SWIDTH 960 0
DWIDTH 8 0
BBX 8 16 0 -4
BITMAP
00
00
21
21
12
14
18
18
28
48
84
84
00
00
00
00
ENDCHAR
STARTCHAR LtCapY
ENCODING 24
SWIDTH 960 0
DWIDTH 8 0
BBX 8 16 0 -4
BITMAP
00
00
21
21
12
12
14
08
08
10
10
10
00
00
00
00
ENDCHAR
STARTCHAR LtCapZ
ENCODING 25
SWIDTH 960 0
DWIDTH 8 0
BBX 8 16 0 -4
BITMAP
00
00
3f
01
02
04
08
10
20
40
80
fc
00
00
00
00
ENDCHAR
STARTCHAR LtCapTone6
ENCODING 26
SWIDTH 960 0
DWIDTH 8 0
BBX 8 16 0 -4
BITMAP
00
00
10
30
70
20
3c
22
22
42
44
78
00
00
00
00
ENDCHAR
STARTCHAR LtCapEth
ENCODING 27
SWIDTH 960 0
DWIDTH 8 0
BBX 8 16 0 -4
BITMAP
00
00
1e
11
11
21
79
21
22
42
44
78
00
00
00
00
ENDCHAR
STARTCHAR LtCapEps
ENCODING 28
SWIDTH 960 0
DWIDTH 8 0
BBX 8 16 0 -4
BITMAP
00
00
0e
11
20
20
18
20
40
40
44
38
00
00
00
00
ENDCHAR
STARTCHAR LtCapSchwa
ENCODING 29
SWIDTH 960 0
DWIDTH 8 0
BBX 8 16 0 -4
BITMAP
00
00
0e
11
01
01
01
3e
42
42
44
38
00
00
00
00
ENDCHAR
STARTCHAR LtCapGam
ENCODING 30
SWIDTH 960 0
DWIDTH 8 0
BBX 8 16 0 -4
BITMAP
00
00
21
22
14
08
18
24
44
44
48
30
00
00
00
00
ENDCHAR
STARTCHAR LtCapHwair
ENCODING 31
SWIDTH 960 0
DWIDTH 8 0
BBX 8 16 0 -4
BITMAP
00
00
24
24
24
49
79
49
49
92
92
8c
00
00
00
00
ENDCHAR
STARTCHAR LtCapIot
ENCODING 32
SWIDTH 960 0
DWIDTH 8 0
BBX 8 16 0 -4
BITMAP
00
00
38
10
10
20
20
20
40
44
44
38
00
00
00
00
ENDCHAR
STARTCHAR LtCapEng
ENCODING 33
SWIDTH 960 0
DWIDTH 8 0
BBX 8 16 0 -4
BITMAP
00
00
2e
31
21
41
42
42
42
82
94
98
00
00
00
00
ENDCHAR
STARTCHAR LtCapEngSami
ENCODING 34
SWIDTH 960 0
DWIDTH 8 0
BBX 8 16 0 -4
BITMAP
00
00
21
21
31
52
52
4a
4a
8c
84
84
08
28
30
00
ENDCHAR
STARTCHAR LtCapOi
ENCODING 35
SWIDTH 960 0
DWIDTH 8 0
BBX 8 16 0 -4
BITMAP
00
00
1e
15
25
25
46
4a
4a
54
54
64
08
08
08
00
ENDCHAR
STARTCHAR LtCapOu
ENCODING 36
SWIDTH 960 0
DWIDTH 8 0
BBX 8 16 0 -4
BITMAP
00
00
0a
11
21
22
3c
42
82
82
84
78
00
00
00
00
ENDCHAR
STARTCHAR LtCapYr
ENCODING 37
SWIDTH 960 0
DWIDTH 8 0
BBX 8 16 0 -4
BITMAP
00
00
10
10
1e
21
21
22
3c
50
48
48
04
04
00
00
ENDCHAR
STARTCHAR LtCapEsh
ENCODING 38
SWIDTH 960 0
DWIDTH 8 0
BBX 8 16 0 -4
BITMAP
00
00
3f
20
10
10
08
10
20
40
80
fc
00
00
00
00
ENDCHAR
STARTCHAR LtCapTone2
ENCODING 39
SWIDTH 960 0
DWIDTH 8 0
BBX 8 16 0 -4
BITMAP
00
00
1e
21
01
02
0c
30
40
80
84
78
00
00
00
00
ENDCHAR
STARTCHAR LtCapTone5
ENCODING 40
SWIDTH 960 0
DWIDTH 8 0
BBX 8 16 0 -4
BITMAP
00
00
1f
10
10
20
3c
02
02
02
44
38
00
00
00
00
ENDCHAR
STARTCHAR LtCapSz
ENCODING 41
SWIDTH 960 0
DWIDTH 8 0
BBX 8 16 0 -4
BITMAP
00
00
3f
22
24
44
4c
42
42
82
84
98
00
00
00
00
ENDCHAR
STARTCHAR LtCapThorn
ENCODING 42
SWIDTH 960 0
DWIDTH 8 0
BBX 8 16 0 -4
BITMAP
00
00
20
20
3c
42
42
42
44
f8
80
80
00
00
00
00
ENDCHAR
STARTCHAR LtCapUps
ENCODING 43
SWIDTH 960 0
DWIDTH 8 0
BBX 8 16 0 -4
BITMAP
00
00
77
14
22
42
42
82
84
84
88
70
00
00
00
00
ENDCHAR
STARTCHAR LtCapWynn
ENCODING 44
SWIDTH 960 0
DWIDTH 8 0
BBX 8 16 0 -4
BITMAP
00
00
16
19
11
11
26
28
30
40
40
40
00
00
00
00
ENDCHAR
STARTCHAR LtCapYogh
ENCODING 45
SWIDTH 960 0
DWIDTH 8 0
BBX 8 16 0 -4
BITMAP
00
00
3c
02
02
04
18
24
04
08
30
c0
00
00
00
00
ENDCHAR
STARTCHAR LtCapEzh
ENCODING 46
SWIDTH 960 0
DWIDTH 8 0
BBX 8 16 0 -4
BITMAP
00
00
3f
01
02
04
0c
02
02
02
84
78
00
00
00
00
ENDCHAR
STARTCHAR LtCapAlefEgpt
ENCODING 47
SWIDTH 960 0
DWIDTH 8 0
BBX 8 16 0 -4
BITMAP
00
00
0c
02
02
04
18
04
04
04
08
30
00
00
00
00
ENDCHAR
STARTCHAR LtCapAinEgpt
ENCODING 48
SWIDTH 960 0
DWIDTH 8 0
BBX 8 16 0 -4
BITMAP
00
00
07
08
10
10
10
10
08
00
00
00
00
00
00
00
ENDCHAR
STARTCHAR LtCapGlot1
ENCODING 49
SWIDTH 960 0
DWIDTH 8 0
BBX 8 16 0 -4
BITMAP
00
00
1e
21
21
01
02
0c
08
10
10
10
00
00
00
00
ENDCHAR
STARTCHAR LtCapSaltillo
ENCODING 50
SWIDTH 960 0
DWIDTH 8 0
BBX 8 16 0 -4
BITMAP
02
02
04
04
04
08
08
00
00
00
00
00
00
00
00
00
ENDCHAR
STARTCHAR LtSmlA
ENCODING 51
SWIDTH 960 0
DWIDTH 8 0
BBX 8 16 0 -4
BITMAP
00
00
00
00
00
1e
22
22
44
44
4c
32
00
00
00
00
ENDCHAR
STARTCHAR LtSmlB
ENCODING 52
SWIDTH 960 0
DWIDTH 8 0
BBX 8 16 0 -4
BITMAP
00
00
30
10
10
2c
32
22
22
44
44
38
00
00
00
00
ENDCHAR
STARTCHAR LtSmlC
ENCODING 53
SWIDTH 960 0
DWIDTH 8 0
BBX 8 16 0 -4
BITMAP
00
00
00
00
00
1c
22
20
40
40
44
38
00
00
00
00
ENDCHAR
STARTCHAR LtSmlD
ENCODING 54
SWIDTH 960 0
DWIDTH 8 0
BBX 8 16 0 -4
BITMAP
00
00
01
01
01
1e
22
22
42
44
4c
32
00
00
00
00
ENDCHAR
STARTCHAR LtSmlE
ENCODING 55
SWIDTH 960 0
DWIDTH 8 0
BBX 8 16 0 -4
BITMAP
00
00
00
00
00
1c
22
24
78
40
44
38
00
00
00
00
ENDCHAR
STARTCHAR LtSmlF
ENCODING 56
SWIDTH 960 0
DWIDTH 8 0
BBX 8 16 0 -4
BITMAP
00
00
03
04
08
08
3e
08
10
10
10
10
20
20
40
00
ENDCHAR
STARTCHAR LtSmlG
ENCODING 57
SWIDTH 960 0
DWIDTH 8 0
BBX 8 16 0 -4
BITMAP
00
00
00
00
00
1e
22
22
44
44
4c
34
08
48
70
00
ENDCHAR
STARTCHAR LtSmlH
ENCODING 58
SWIDTH 960 0
DWIDTH 8 0
BBX 8 16 0 -4
BITMAP
00
00
30
10
10
2e
32
22
22
44
44
46
00
00
00
00
ENDCHAR
STARTCHAR LtSmlI
ENCODING 59
SWIDTH 960 0
DWIDTH 8 0
BBX 8 16 0 -4
BITMAP
00
00
04
04
00
0c
18
08
08
10
12
1c
00
00
00
00
ENDCHAR
STARTCHAR LtSmlJ
ENCODING 60
SWIDTH 960 0
DWIDTH 8 0
BBX 8 16 0 -4
BITMAP
00
00
04
04
00
0c
18
08
08
08
10
10
10
20
c0
00
ENDCHAR
STARTCHAR LtSmlK
ENCODING 61
SWIDTH 960 0
DWIDTH 8 0
BBX 8 16 0 -4
BITMAP
00
00
10
10
10
2e
32
22
3c
48
44
42
00
00
00
00
ENDCHAR
STARTCHAR LtSmlL
ENCODING 62
SWIDTH 960 0
DWIDTH 8 0
BBX 8 16 0 -4
BITMAP
00
00
0c
04
04
08
08
08
08
10
14
18
00
00
00
00
ENDCHAR
STARTCHAR LtSmlM
ENCODING 63
SWIDTH 960 0
DWIDTH 8 0
BBX 8 16 0 -4
BITMAP
00
00
00
00
00
b7
49
49
49
92
92
93
00
00
00
00
ENDCHAR
STARTCHAR LtSmlN
ENCODING 64
SWIDTH 960 0
DWIDTH 8 0
BBX 8 16 0 -4
BITMAP
00
00
00
00
00
6e
32
22
22
44
44
46
00
00
00
00
ENDCHAR
STARTCHAR LtSmlO
ENCODING 65
SWIDTH 960 0
DWIDTH 8 0
BBX 8 16 0 -4
BITMAP
00
00
00
00
00
1c
22
22
42
44
44
38
00
00
00
00
ENDCHAR
STARTCHAR LtSmlP
ENCODING 66
SWIDTH 960 0
DWIDTH 8 0
BBX 8 16 0 -4
BITMAP
00
00
00
00
00
2c
72
22
22
44
44
78
40
80
80
00
ENDCHAR
STARTCHAR LtSmlQ
ENCODING 67
SWIDTH 960 0
DWIDTH 8 0
BBX 8 16 0 -4
BITMAP
00
00
00
00
00
1a
26
22
42
44
4c
34
08
08
08
00
ENDCHAR
STARTCHAR LtSmlR
ENCODING 68
SWIDTH 960 0
DWIDTH 8 0
BBX 8 16 0 -4
BITMAP
00
00
00
00
00
16
3a
10
10
20
20
20
00
00
00
00
ENDCHAR
STARTCHAR LtSmlS
ENCODING 69
SWIDTH 960 0
DWIDTH 8 0
BBX 8 16 0 -4
BITMAP
00
00
00
00
00
1c
22
20
18
04
44
38
00
00
00
00
ENDCHAR
STARTCHAR LtSmlT
ENCODING 70
SWIDTH 960 0
DWIDTH 8 0
BBX 8 16 0 -4
BITMAP
00
00
00
08
08
3e
08
10
10
10
24
18
00
00
00
00
ENDCHAR
STARTCHAR LtSmlU
ENCODING 71
SWIDTH 960 0
DWIDTH 8 0
BBX 8 16 0 -4
BITMAP
00
00
00
00
00
62
22
22
42
44
4c
32
00
00
00
00
ENDCHAR
STARTCHAR LtSmlV
ENCODING 72
SWIDTH 960 0
DWIDTH 8 0
BBX 8 16 0 -4
BITMAP
00
00
00
00
00
62
22
22
22
24
28
30
00
00
00
00
ENDCHAR
STARTCHAR LtSmlW
ENCODING 73
SWIDTH 960 0
DWIDTH 8 0
BBX 8 16 0 -4
BITMAP
00
00
00
00
00
61
21
41
49
5a
66
44
00
00
00
00
ENDCHAR
STARTCHAR LtSmlX
ENCODING 74
SWIDTH 960 0
DWIDTH 8 0
BBX 8 16 0 -4
BITMAP
00
00
00
00
00
31
12
0c
08
18
24
46
00
00
00
00
ENDCHAR
STARTCHAR LtSmlY
ENCODING 75
SWIDTH 960 0
DWIDTH 8 0
BBX 8 16 0 -4
BITMAP
00
00
00
00
00
62
22
22
44
44
4c
34
08
48
70
00
ENDCHAR
STARTCHAR LtSmlZ
ENCODING 76
SWIDTH 960 0
DWIDTH 8 0
BBX 8 16 0 -4
BITMAP
00
00
00
00
00
1d
22
04
08
10
20
52
0c
00
00
00
ENDCHAR
STARTCHAR LtSmlTone6
ENCODING 77
SWIDTH 960 0
DWIDTH 8 0
BBX 8 16 0 -4
BITMAP
00
00
00
00
00
20
60
60
38
44
44
38
00
00
00
00
ENDCHAR
STARTCHAR LtSmlCStretch
ENCODING 78
SWIDTH 960 0
DWIDTH 8 0
BBX 8 16 0 -4
BITMAP
00
00
00
00
00
1c
24
20
40
40
40
80
80
90
60
00
ENDCHAR
STARTCHAR LtSmlEth
ENCODING 79
SWIDTH 960 0
DWIDTH 8 0
BBX 8 16 0 -4
BITMAP
00
00
14
18
28
0c
14
22
42
42
44
38
00
00
00
00
ENDCHAR
STARTCHAR LtSmlEps
ENCODING 80
SWIDTH 960 0
DWIDTH 8 0
BBX 8 16 0 -4
BITMAP
00
00
00
00
00
1c
22
20
38
40
44
38
00
00
00
00
ENDCHAR
STARTCHAR LtSmlSchwa
ENCODING 81
SWIDTH 960 0
DWIDTH 8 0
BBX 8 16 0 -4
BITMAP
00
00
00
00
00
1c
22
02
3e
42
44
38
00
00
00
00
ENDCHAR
STARTCHAR LtSmlPhi
ENCODING 82
SWIDTH 960 0
DWIDTH 8 0
BBX 8 16 0 -4
BITMAP
00
00
04
08
08
3c
4a
92
92
92
a4
78
20
20
40
00
ENDCHAR
STARTCHAR LtSmlGam
ENCODING 83
SWIDTH 960 0
DWIDTH 8 0
BBX 8 16 0 -4
BITMAP
00
00
00
00
00
21
12
12
0c
08
18
28
28
28
30
00
ENDCHAR
STARTCHAR LtSmlGamSml
ENCODING 84
SWIDTH 960 0
DWIDTH 8 0
BBX 8 16 0 -4
BITMAP
00
00
00
00
00
22
24
18
18
28
28
30
00
00
00
00
ENDCHAR
STARTCHAR LtSmlHwair
ENCODING 85
SWIDTH 960 0
DWIDTH 8 0
BBX 8 16 0 -4
BITMAP
00
00
60
20
20
59
69
49
49
92
92
8c
00
00
00
00
ENDCHAR
STARTCHAR LtSmlIot
ENCODING 86
SWIDTH 960 0
DWIDTH 8 0
BBX 8 16 0 -4
BITMAP
00
00
00
00
00
18
08
10
10
10
24
18
00
00
00
00
ENDCHAR
STARTCHAR LtSmlKra
ENCODING 87
SWIDTH 960 0
DWIDTH 8 0
BBX 8 16 0 -4
BITMAP
00
00
00
00
00
63
24
28
30
48
48
46
00
00
00
00
ENDCHAR
STARTCHAR LtSmlEng
ENCODING 88
SWIDTH 960 0
DWIDTH 8 0
BBX 8 16 0 -4
BITMAP
00
00
00
00
00
6e
32
22
22
44
44
44
08
28
30
00
ENDCHAR
STARTCHAR LtSmlOi
ENCODING 89
SWIDTH 960 0
DWIDTH 8 0
BBX 8 16 0 -4
BITMAP
00
00
00
00
00
36
49
49
89
92
92
62
04
04
04
00
ENDCHAR
STARTCHAR LtSmlOu
ENCODING 90
SWIDTH 960 0
DWIDTH 8 0
BBX 8 16 0 -4
BITMAP
00
00
09
11
11
12
1c
22
42
42
44
38
00
00
00
00
ENDCHAR
STARTCHAR LtSmlRFish
ENCODING 91
SWIDTH 960 0
DWIDTH 8 0
BBX 8 16 0 -4
BITMAP
00
00
00
00
00
1c
22
22
20
40
40
40
00
00
00
00
ENDCHAR
STARTCHAR LtSmlSLong
ENCODING 92
SWIDTH 960 0
DWIDTH 8 0
BBX 8 16 0 -4
BITMAP
00
00
03
05
08
08
08
08
10
10
10
10
20
20
40
00
ENDCHAR
STARTCHAR LtSmlEsh
ENCODING 93
SWIDTH 960 0
DWIDTH 8 0
BBX 8 16 0 -4
BITMAP
00
00
03
05
08
08
08
08
08
10
10
10
10
a0
c0
00
ENDCHAR
STARTCHAR LtSmlTone2
ENCODING 94
SWIDTH 960 0
DWIDTH 8 0
BBX 8 16 0 -4
BITMAP
00
00
00
00
00
1c
22
04
18
20
44
38
00
00
00
00
ENDCHAR
STARTCHAR LtSmlTone5
ENCODING 95
SWIDTH 960 0
DWIDTH 8 0
BBX 8 16 0 -4
BITMAP
00
00
00
00
00
1e
20
3c
02
02
44
38
00
00
00
00
ENDCHAR
STARTCHAR LtSmlSz
ENCODING 96
SWIDTH 960 0
DWIDTH 8 0
BBX 8 16 0 -4
BITMAP
00
00
0c
12
12
24
6c
22
22
44
44
58
80
80
80
00
ENDCHAR
STARTCHAR LtSmlThorn
ENCODING 97
SWIDTH 960 0
DWIDTH 8 0
BBX 8 16 0 -4
BITMAP
00
00
10
10
10
2c
32
22
22
44
48
70
80
80
80
00
ENDCHAR
STARTCHAR LtSmlUps
ENCODING 98
SWIDTH 960 0
DWIDTH 8 0
BBX 8 16 0 -4
BITMAP
00
00
00
00
00
73
22
22
42
42
44
38
00
00
00
00
ENDCHAR
STARTCHAR LtSmlW2
ENCODING 99
SWIDTH 960 0
DWIDTH 8 0
BBX 8 16 0 -4
BITMAP
00
00
21
29
29
3e
24
00
52
52
7c
48
00
00
00
00
ENDCHAR
STARTCHAR LtSmlWynn
ENCODING 100
SWIDTH 960 0
DWIDTH 8 0
BBX 8 16 0 -4
BITMAP
00
00
00
00
00
24
6a
32
22
44
48
50
60
80
80
00
ENDCHAR
STARTCHAR LtSmlYogh
ENCODING 101
SWIDTH 960 0
DWIDTH 8 0
BBX 8 16 0 -4
BITMAP
00
00
00
00
00
3c
02
02
04
18
24
04
08
30
c0
00
ENDCHAR
STARTCHAR LtSmlEzh
ENCODING 102
SWIDTH 960 0
DWIDTH 8 0
BBX 8 16 0 -4
BITMAP
00
00
00
00
00
3a
44
08
10
38
04
04
08
90
e0
00
ENDCHAR
STARTCHAR LtSmlAlefEgpt
ENCODING 103
SWIDTH 960 0
DWIDTH 8 0
BBX 8 16 0 -4
BITMAP
00
00
00
00
00
18
04
04
18
08
08
30
00
00
00
00
ENDCHAR
STARTCHAR LtSmlAinEgpt
ENCODING 104
SWIDTH 960 0
DWIDTH 8 0
BBX 8 16 0 -4
BITMAP
00
00
00
00
00
0e
10
20
20
20
10
00
00
00
00
00
ENDCHAR
STARTCHAR LtSmlGlot1
ENCODING 105
SWIDTH 960 0
DWIDTH 8 0
BBX 8 16 0 -4
BITMAP
00
00
00
00
00
3c
42
42
04
18
10
10
00
00
00
00
ENDCHAR
STARTCHAR LtSmlGlot
ENCODING 106
SWIDTH 960 0
DWIDTH 8 0
BBX 8 16 0 -4
BITMAP
00
00
1e
21
21
02
04
08
08
10
10
10
00
00
00
00
ENDCHAR
STARTCHAR LtSmlSaltillo
ENCODING 107
SWIDTH 960 0
DWIDTH 8 0
BBX 8 16 0 -4
BITMAP
00
04
04
04
08
08
00
00
00
00
00
00
00
00
00
00
ENDCHAR
STARTCHAR LtSmlBullseye
ENCODING 108
SWIDTH 960 0
DWIDTH 8 0
BBX 8 16 0 -4
BITMAP
00
00
00
00
00
1c
22
42
5a
42
44
38
00
00
00
00
ENDCHAR
STARTCHAR LtSmlPipe
ENCODING 109
SWIDTH 960 0
DWIDTH 8 0
BBX 8 16 0 -4
BITMAP
00
00
04
04
04
08
08
08
08
10
10
10
00
00
00
00
ENDCHAR
STARTCHAR LtSmlPipe2
ENCODING 110
SWIDTH 960 0
DWIDTH 8 0
BBX 8 16 0 -4
BITMAP
00
00
0a
0a
0a
14
14
14
14
28
28
28
00
00
00
00
ENDCHAR
STARTCHAR LtSmlBridge2
ENCODING 111
SWIDTH 960 0
DWIDTH 8 0
BBX 8 16 0 -4
BITMAP
00
00
3f
21
42
42
00
00
7e
42
84
84
00
00
00
00
ENDCHAR
STARTCHAR LtToneHhigh
ENCODING 112
SWIDTH 960 0
DWIDTH 8 0
BBX 8 16 0 -4
BITMAP
00
00
3c
04
04
08
08
08
08
10
10
10
00
00
00
00
ENDCHAR
STARTCHAR LtToneHigh
ENCODING 113
SWIDTH 960 0
DWIDTH 8 0
BBX 8 16 0 -4
BITMAP
00
00
04
04
3c
08
08
08
08
10
10
10
00
00
00
00
ENDCHAR
STARTCHAR LtToneMid
ENCODING 114
SWIDTH 960 0
DWIDTH 8 0
BBX 8 16 0 -4
BITMAP
00
00
04
04
04
08
78
08
08
10
10
10
00
00
00
00
ENDCHAR
STARTCHAR LtToneLow
ENCODING 115
SWIDTH 960 0
DWIDTH 8 0
BBX 8 16 0 -4
BITMAP
00
00
04
04
04
08
08
08
08
f0
10
10
00
00
00
00
ENDCHAR
STARTCHAR LtToneLlow
ENCODING 116
SWIDTH 960 0
DWIDTH 8 0
BBX 8 16 0 -4
BITMAP
00
00
04
04
04
08
08
08
08
10
10
f0
00
00
00
00
ENDCHAR
STARTCHAR LtSmlBSmc
ENCODING 117
SWIDTH 960 0
DWIDTH 8 0
BBX 8 16 0 -4
BITMAP
00
00
00
00
00
3e
22
22
3c
44
44
78
00
00
00
00
ENDCHAR
STARTCHAR LtSmlGSmc
ENCODING 118
SWIDTH 960 0
DWIDTH 8 0
BBX 8 16 0 -4
BITMAP
00
00
00
00
00
1e
22
20
4e
44
44
3c
00
00
00
00
ENDCHAR
STARTCHAR LtSmlHSmc
ENCODING 119
SWIDTH 960 0
DWIDTH 8 0
BBX 8 16 0 -4
BITMAP
00
00
00
00
00
22
22
22
3c
44
44
44
00
00
00
00
ENDCHAR
STARTCHAR LtSmlISmc
ENCODING 120
SWIDTH 960 0
DWIDTH 8 0
BBX 8 16 0 -4
BITMAP
00
00
00
00
00
3e
08
08
08
10
10
7c
00
00
00
00
ENDCHAR
STARTCHAR LtSmlLSmc
ENCODING 121
SWIDTH 960 0
DWIDTH 8 0
BBX 8 16 0 -4
BITMAP
00
00
00
00
00
30
20
20
20
40
44
7c
00
00
00
00
ENDCHAR
STARTCHAR LtSmlNSmc
ENCODING 122
SWIDTH 960 0
DWIDTH 8 0
BBX 8 16 0 -4
BITMAP
00
00
00
00
00
22
22
32
52
4c
44
44
00
00
00
00
ENDCHAR
STARTCHAR LtSmlRSmc
ENCODING 123
SWIDTH 960 0
DWIDTH 8 0
BBX 8 16 0 -4
BITMAP
00
00
00
00
00
3e
22
22
3c
48
48
4c
00
00
00
00
ENDCHAR
STARTCHAR LtSmlYSmc
ENCODING 124
SWIDTH 960 0
DWIDTH 8 0
BBX 8 16 0 -4
BITMAP
00
00
00
00
00
41
42
24
18
10
10
10
00
00
00
00
ENDCHAR
STARTCHAR LtSmlOESmc
ENCODING 125
SWIDTH 960 0
DWIDTH 8 0
BBX 8 16 0 -4
BITMAP
00
00
00
00
00
3f
48
48
8e
90
90
7c
00
00
00
00
ENDCHAR
STARTCHAR LtSmlAScr
ENCODING 126
SWIDTH 960 0
DWIDTH 8 0
BBX 8 16 0 -4
BITMAP
00
00
00
00
00
1e
22
22
44
44
4c
32
00
00
00
00
ENDCHAR
STARTCHAR LtSmlGScr
ENCODING 127
SWIDTH 960 0
DWIDTH 8 0
BBX 8 16 0 -4
BITMAP
00
00
00
00
00
1e
22
22
44
44
4c
34
08
48
70
00
ENDCHAR
STARTCHAR LtSmlANonscr
ENCODING 128
SWIDTH 960 0
DWIDTH 8 0
BBX 8 16 0 -4
BITMAP
00
00
00
00
00
1c
12
02
3c
44
4c
32
00
00
00
00
ENDCHAR
STARTCHAR LtSmlEpsClsd
ENCODING 129
SWIDTH 960 0
DWIDTH 8 0
BBX 8 16 0 -4
BITMAP
00
00
00
00
00
1c
22
22
3a
42
44
38
00
00
00
00
ENDCHAR
STARTCHAR LtSmlOmeClsd
ENCODING 130
SWIDTH 960 0
DWIDTH 8 0
BBX 8 16 0 -4
BITMAP
00
00
00
00
1c
22
41
49
89
92
92
6c
00
00
00
00
ENDCHAR
STARTCHAR LtSmlGlotInv
ENCODING 131
SWIDTH 960 0
DWIDTH 8 0
BBX 8 16 0 -4
BITMAP
00
00
08
08
08
10
10
10
08
84
84
78
00
00
00
00
ENDCHAR
STARTCHAR LtSmlRSmcInv
ENCODING 132
SWIDTH 960 0
DWIDTH 8 0
BBX 8 16 0 -4
BITMAP
00
00
00
00
00
22
24
28
3c
44
44
78
00
00
00
00
ENDCHAR
STARTCHAR LtCapERev
ENCODING 133
SWIDTH 960 0
DWIDTH 8 0
BBX 8 16 0 -4
BITMAP
00
00
3e
02
02
04
3c
04
04
08
08
f8
00
00
00
00
ENDCHAR
STARTCHAR LtCapEzhRev
ENCODING 134
SWIDTH 960 0
DWIDTH 8 0
BBX 8 16 0 -4
BITMAP
00
00
3f
20
10
10
38
40
80
80
84
78
00
00
00
00
ENDCHAR
STARTCHAR LtSmlERev
ENCODING 135
SWIDTH 960 0
DWIDTH 8 0
BBX 8 16 0 -4
BITMAP
00
00
00
00
00
1c
22
22
1e
04
44
38
00
00
00
00
ENDCHAR
STARTCHAR LtSmlEpsRev
ENCODING 136
SWIDTH 960 0
DWIDTH 8 0
BBX 8 16 0 -4
BITMAP
00
00
00
00
00
1c
12
02
1c
04
44
38
00
00
00
00
ENDCHAR
STARTCHAR LtSmlRFishRev
ENCODING 137
SWIDTH 960 0
DWIDTH 8 0
BBX 8 16 0 -4
BITMAP
00
00
00
00
00
1c
22
22
02
04
04
04
00
00
00
00
ENDCHAR
STARTCHAR LtSmlEshSmlRev
ENCODING 138
SWIDTH 960 0
DWIDTH 8 0
BBX 8 16 0 -4
BITMAP
00
00
00
00
00
18
24
08
08
10
24
18
00
00
00
00
ENDCHAR
STARTCHAR LtSmlEzhRev
ENCODING 139
SWIDTH 960 0
DWIDTH 8 0
BBX 8 16 0 -4
BITMAP
00
00
00
00
00
5c
22
20
10
38
40
80
80
90
e0
00
ENDCHAR
STARTCHAR LtSmlAin
ENCODING 140
SWIDTH 960 0
DWIDTH 8 0
BBX 8 16 0 -4
BITMAP
00
00
1e
21
21
10
08
08
08
10
10
10
00
00
00
00
ENDCHAR
STARTCHAR LtSmlEpsRevClsd
ENCODING 141
SWIDTH 960 0
DWIDTH 8 0
BBX 8 16 0 -4
BITMAP
00
00
00
00
00
1c
22
42
4c
44
44
38
00
00
00
00
ENDCHAR
STARTCHAR LtCapCTrnd
ENCODING 142
SWIDTH 960 0
DWIDTH 8 0
BBX 8 16 0 -4
BITMAP
00
00
1c
22
02
02
02
02
04
04
88
70
00
00
00
00
ENDCHAR
STARTCHAR LtCapHTrnd
ENCODING 143
SWIDTH 960 0
DWIDTH 8 0
BBX 8 16 0 -4
BITMAP
00
00
21
21
21
42
7e
02
02
04
04
04
00
00
00
00
ENDCHAR
STARTCHAR LtCapMTrnd
ENCODING 144
SWIDTH 960 0
DWIDTH 8 0
BBX 8 16 0 -4
BITMAP
00
00
25
29
49
49
4a
52
92
92
b6
dc
00
00
00
00
ENDCHAR
STARTCHAR LtCapVTrnd
ENCODING 145
SWIDTH 960 0
DWIDTH 8 0
BBX 8 16 0 -4
BITMAP
00
00
0c
0c
14
14
24
24
44
44
84
84
00
00
00
00
ENDCHAR
STARTCHAR LtSmlATrnd
ENCODING 146
SWIDTH 960 0
DWIDTH 8 0
BBX 8 16 0 -4
BITMAP
00
00
00
00
00
6c
32
22
3c
40
48
38
00
00
00
00
ENDCHAR
STARTCHAR LtSmlCTrnd
ENCODING 147
SWIDTH 960 0
DWIDTH 8 0
BBX 8 16 0 -4
BITMAP
00
00
00
00
00
1c
22
02
02
04
44
38
00
00
00
00
ENDCHAR
STARTCHAR LtSmlFTrnd
ENCODING 148
SWIDTH 960 0
DWIDTH 8 0
BBX 8 16 0 -4
BITMAP
00
00
00
00
00
0c
08
08
08
10
7c
10
10
20
c0
00
ENDCHAR
STARTCHAR LtSmlHTrnd
ENCODING 149
SWIDTH 960 0
DWIDTH 8 0
BBX 8 16 0 -4
BITMAP
00
00
00
00
00
62
22
22
44
44
4c
34
08
08
08
00
ENDCHAR
STARTCHAR LtSmlKTrnd
ENCODING 150
SWIDTH 960 0
DWIDTH 8 0
BBX 8 16 0 -4
BITMAP
00
00
00
00
00
42
22
12
3c
44
4c
74
08
08
08
00
ENDCHAR
STARTCHAR LtSmlMTrnd
ENCODING 151
SWIDTH 960 0
DWIDTH 8 0
BBX 8 16 0 -4
BITMAP
00
00
00
00
00
c9
49
49
92
92
92
ed
00
00
00
00
ENDCHAR
STARTCHAR LtSmlRTrnd
ENCODING 152
SWIDTH 960 0
DWIDTH 8 0
BBX 8 16 0 -4
BITMAP
00
00
00
00
00
04
04
04
08
08
5c
68
00
00
00
00
ENDCHAR
STARTCHAR LtSmlTTrnd
ENCODING 153
SWIDTH 960 0
DWIDTH 8 0
BBX 8 16 0 -4
BITMAP
00
00
00
00
00
18
24
08
08
08
10
7c
10
10
00
00
ENDCHAR
STARTCHAR LtSmlVTrnd
ENCODING 154
SWIDTH 960 0
DWIDTH 8 0
BBX 8 16 0 -4
BITMAP
00
00
00
00
00
08
08
18
28
24
44
c6
00
00
00
00
ENDCHAR
STARTCHAR LtSmlWTrnd
ENCODING 155
SWIDTH 960 0
DWIDTH 8 0
BBX 8 16 0 -4
BITMAP
00
00
00
00
00
22
26
2a
5a
52
92
83
00
00
00
00
ENDCHAR
STARTCHAR LtSmlYTrnd
ENCODING 156
SWIDTH 960 0
DWIDTH 8 0
BBX 8 16 0 -4
BITMAP
00
00
03
05
08
08
18
28
28
44
44
86
00
00
00
00
ENDCHAR
STARTCHAR LtSmlDelTrnd
ENCODING 157
SWIDTH 960 0
DWIDTH 8 0
BBX 8 16 0 -4
BITMAP
00
00
00
00
00
1c
22
42
42
44
28
10
08
48
30
00
ENDCHAR
STARTCHAR LtSmlAScrTrnd
ENCODING 158
SWIDTH 960 0
DWIDTH 8 0
BBX 8 16 0 -4
BITMAP
00
00
00
00
00
6c
32
22
22
44
44
78
00
00
00
00
ENDCHAR
STARTCHAR LtCapAE
ENCODING 159
SWIDTH 960 0
DWIDTH 8 0
BBX 8 16 0 -4
BITMAP
00
00
0f
0c
14
18
2e
28
78
50
90
9c
00
00
00
00
ENDCHAR
STARTCHAR LtCapDZ
ENCODING 160
SWIDTH 960 0
DWIDTH 8 0
BBX 8 16 0 -4
BITMAP
00
00
33
29
29
4a
4a
54
54
a8
c8
dc
00
00
00
00
ENDCHAR
STARTCHAR LtCapIJ
ENCODING 161
SWIDTH 960 0
DWIDTH 8 0
BBX 8 16 0 -4
BITMAP
00
00
73
21
21
42
42
42
42
84
94
d8
00
00
00
00
ENDCHAR
STARTCHAR LtCapLJ
ENCODING 162
SWIDTH 960 0
DWIDTH 8 0
BBX 8 16 0 -4
BITMAP
00
00
23
21
21
42
42
42
42
94
94
f8
00
00
00
00
ENDCHAR
STARTCHAR LtCapNJ
ENCODING 163
SWIDTH 960 0
DWIDTH 8 0
BBX 8 16 0 -4
BITMAP
00
00
25
25
25
6a
6a
5a
5a
94
9c
98
00
00
00
00
ENDCHAR
STARTCHAR LtCapOE
ENCODING 164
SWIDTH 960 0
DWIDTH 8 0
BBX 8 16 0 -4
BITMAP
00
00
1f
24
44
48
8e
88
88
90
90
7c
00
00
00
00
ENDCHAR
STARTCHAR LtMixDZ
ENCODING 165
SWIDTH 960 0
DWIDTH 8 0
BBX 8 16 0 -4
BITMAP
00
00
30
28
28
4d
4b
52
54
a4
cc
d5
02
00
00
00
ENDCHAR
STARTCHAR LtMixLJ
ENCODING 166
SWIDTH 960 0
DWIDTH 8 0
BBX 8 16 0 -4
BITMAP
00
00
21
21
20
43
46
42
42
82
84
f4
04
08
30
00
ENDCHAR
STARTCHAR LtMixNJ
ENCODING 167
SWIDTH 960 0
DWIDTH 8 0
BBX 8 16 0 -4
BITMAP
00
00
25
25
24
69
6a
5a
5a
92
94
94
04
08
30
00
ENDCHAR
STARTCHAR LtSmlAE
ENCODING 168
SWIDTH 960 0
DWIDTH 8 0
BBX 8 16 0 -4
BITMAP
00
00
00
00
00
06
19
29
4e
90
92
6c
00
00
00
00
ENDCHAR
STARTCHAR LtSmlDB
ENCODING 169
SWIDTH 960 0
DWIDTH 8 0
BBX 8 16 0 -4
BITMAP
00
00
04
08
08
3c
4a
92
92
92
a4
78
00
00
00
00
ENDCHAR
STARTCHAR LtSmlDZ
ENCODING 170
SWIDTH 960 0
DWIDTH 8 0
BBX 8 16 0 -4
BITMAP
00
00
04
04
08
3d
4b
52
94
94
ac
55
02
00
00
00
ENDCHAR
STARTCHAR LtSmlDEzh
ENCODING 171
SWIDTH 960 0
DWIDTH 8 0
BBX 8 16 0 -4
BITMAP
00
00
04
04
08
3d
4b
52
94
94
a2
62
04
48
70
00
ENDCHAR
STARTCHAR LtSmlFF
ENCODING 172
SWIDTH 960 0
DWIDTH 8 0
BBX 8 16 0 -4
BITMAP
00
00
07
09
12
12
3f
12
24
24
24
24
48
48
90
00
ENDCHAR
STARTCHAR LtSmlFI
ENCODING 173
SWIDTH 960 0
DWIDTH 8 0
BBX 8 16 0 -4
BITMAP
00
00
05
09
10
13
7e
12
22
24
25
26
40
40
80
00
ENDCHAR
STARTCHAR LtSmlFFI
ENCODING 174
SWIDTH 960 0
DWIDTH 8 0
BBX 8 16 0 -4
BITMAP
00
00
0b
15
28
2b
7e
2a
52
54
55
56
a0
a0
a0
00
ENDCHAR
STARTCHAR LtSmlFL
ENCODING 175
SWIDTH 960 0
DWIDTH 8 0
BBX 8 16 0 -4
BITMAP
00
00
07
09
11
11
3a
12
22
24
25
26
40
40
80
00
ENDCHAR
STARTCHAR LtSmlFFL
ENCODING 176
SWIDTH 960 0
DWIDTH 8 0
BBX 8 16 0 -4
BITMAP
00
00
0f
15
29
2a
7a
2a
52
54
55
56
a0
a0
a0
00
ENDCHAR
STARTCHAR LtSmlFEng
ENCODING 177
SWIDTH 960 0
DWIDTH 8 0
BBX 8 16 0 -4
BITMAP
00
00
06
08
10
17
7d
25
25
2a
2a
4a
42
54
98
00
ENDCHAR
STARTCHAR LtSmlIJ
ENCODING 178
SWIDTH 960 0
DWIDTH 8 0
BBX 8 16 0 -4
BITMAP
00
00
11
11
00
33
66
22
22
42
54
64
04
08
70
00
ENDCHAR
STARTCHAR LtSmlLJ
ENCODING 179
SWIDTH 960 0
DWIDTH 8 0
BBX 8 16 0 -4
BITMAP
00
00
31
11
10
23
26
22
22
42
54
64
04
08
30
00
ENDCHAR
STARTCHAR LtSmlLS
ENCODING 180
SWIDTH 960 0
DWIDTH 8 0
BBX 8 16 0 -4
BITMAP
00
00
60
20
20
4c
52
50
48
84
a4
d8
00
00
00
00
ENDCHAR
STARTCHAR LtSmlLZ
ENCODING 181
SWIDTH 960 0
DWIDTH 8 0
BBX 8 16 0 -4
BITMAP
00
00
60
20
20
4d
52
44
44
88
90
ea
04
00
00
00
ENDCHAR
STARTCHAR LtSmlLEzh
ENCODING 182
SWIDTH 960 0
DWIDTH 8 0
BBX 8 16 0 -4
BITMAP
00
00
60
20
20
7a
44
44
48
98
84
c4
08
90
e0
00
ENDCHAR
STARTCHAR LtSmlNJ
ENCODING 183
SWIDTH 960 0
DWIDTH 8 0
BBX 8 16 0 -4
BITMAP
00
00
01
01
00
db
6a
4a
4a
92
94
94
04
08
30
00
ENDCHAR
STARTCHAR LtSmlOE
ENCODING 184
SWIDTH 960 0
DWIDTH 8 0
BBX 8 16 0 -4
BITMAP
00
00
00
00
00
36
49
49
8e
90
92
6c
00
00
00
00
ENDCHAR
STARTCHAR LtSmlQP
ENCODING 185
SWIDTH 960 0
DWIDTH 8 0
BBX 8 16 0 -4
BITMAP
00
00
00
00
00
3c
4a
92
92
92
a4
78
20
20
40
00
ENDCHAR
STARTCHAR LtSmlST
ENCODING 186
SWIDTH 960 0
DWIDTH 8 0
BBX 8 16 0 -4
BITMAP
00
00
00
02
02
3f
44
44
24
28
aa
4c
00
00
00
00
ENDCHAR
STARTCHAR LtSmlSLongT
ENCODING 187
SWIDTH 960 0
DWIDTH 8 0
BBX 8 16 0 -4
BITMAP
00
00
0e
12
22
2f
24
24
44
48
4a
4c
80
80
80
00
ENDCHAR
STARTCHAR LtSmlTS
ENCODING 188
SWIDTH 960 0
DWIDTH 8 0
BBX 8 16 0 -4
BITMAP
00
00
00
20
20
fe
29
48
44
42
92
6c
00
00
00
00
ENDCHAR
STARTCHAR LtSmlTEsh
ENCODING 189
SWIDTH 960 0
DWIDTH 8 0
BBX 8 16 0 -4
BITMAP
00
00
01
23
24
f4
24
44
44
48
88
68
08
50
60
00
ENDCHAR
STARTCHAR LtCapBTopbar
ENCODING 190
SWIDTH 960 0
DWIDTH 8 0
BBX 8 16 0 -4
BITMAP
00
00
1f
10
10
20
3c
22
22
42
44
78
00
00
00
00
ENDCHAR
STARTCHAR LtCapDTopbar
ENCODING 191
SWIDTH 960 0
DWIDTH 8 0
BBX 8 16 0 -4
BITMAP
00
00
1f
01
01
02
1e
22
42
44
44
3c
00
00
00
00
ENDCHAR
STARTCHAR LtSmlBTopbar
ENCODING 192
SWIDTH 960 0
DWIDTH 8 0
BBX 8 16 0 -4
BITMAP
00
00
1f
10
10
2c
32
22
22
44
44
38
00
00
00
00
ENDCHAR
STARTCHAR LtSmlDTopbar
ENCODING 193
SWIDTH 960 0
DWIDTH 8 0
BBX 8 16 0 -4
BITMAP
00
00
1f
01
01
1e
22
22
42
44
4c
32
00
00
00
00
ENDCHAR
STARTCHAR LtCapBHook
ENCODING 194
SWIDTH 960 0
DWIDTH 8 0
BBX 8 16 0 -4
BITMAP
00
00
3e
51
51
12
3c
22
22
42
44
78
00
00
00
00
ENDCHAR
STARTCHAR LtCapCHook
ENCODING 195
SWIDTH 960 0
DWIDTH 8 0
BBX 8 16 0 -4
BITMAP
01
02
0e
11
20
20
40
40
40
40
44
38
00
00
00
00
ENDCHAR
STARTCHAR LtCapDHook
ENCODING 196
SWIDTH 960 0
DWIDTH 8 0
BBX 8 16 0 -4
BITMAP
00
00
3c
52
52
12
22
22
24
44
48
70
00
00
00
00
ENDCHAR
STARTCHAR LtCapGHook
ENCODING 197
SWIDTH 960 0
DWIDTH 8 0
BBX 8 16 0 -4
BITMAP
01
02
0e
11
20
20
40
4e
42
44
44
3c
00
00
00
00
ENDCHAR
STARTCHAR LtCapHHook
ENCODING 198
SWIDTH 960 0
DWIDTH 8 0
BBX 8 16 0 -4
BITMAP
00
00
31
51
51
12
3e
22
22
44
44
44
00
00
00
00
ENDCHAR
STARTCHAR LtCapKHook
ENCODING 199
SWIDTH 960 0
DWIDTH 8 0
BBX 8 16 0 -4
BITMAP
00
00
23
25
29
48
50
70
48
88
84
84
00
00
00
00
ENDCHAR
STARTCHAR LtCapPHook
ENCODING 200
SWIDTH 960 0
DWIDTH 8 0
BBX 8 16 0 -4
BITMAP
00
00
3e
51
51
21
22
3c
20
40
40
40
00
00
00
00
ENDCHAR
STARTCHAR LtCapTHook
ENCODING 201
SWIDTH 960 0
DWIDTH 8 0
BBX 8 16 0 -4
BITMAP
00
00
3f
48
48
10
10
10
10
20
20
20
00
00
00
00
ENDCHAR
STARTCHAR LtCapVHook
ENCODING 202
SWIDTH 960 0
DWIDTH 8 0
BBX 8 16 0 -4
BITMAP
00
00
24
24
42
42
42
42
84
84
88
70
00
00
00
00
ENDCHAR
STARTCHAR LtCapYHook
ENCODING 203
SWIDTH 960 0
DWIDTH 8 0
BBX 8 16 0 -4
BITMAP
00
00
42
45
49
29
30
20
20
40
40
40
00
00
00
00
ENDCHAR
STARTCHAR LtSmlBHook
ENCODING 204
SWIDTH 960 0
DWIDTH 8 0
BBX 8 16 0 -4
BITMAP
00
00
0e
12
10
2c
32
22
22
44
44
38
00
00
00
00
ENDCHAR
STARTCHAR LtSmlCHook
ENCODING 205
SWIDTH 960 0
DWIDTH 8 0
BBX 8 16 0 -4
BITMAP
00
00
03
05
04
1c
22
20
40
40
44
38
00
00
00
00
ENDCHAR
STARTCHAR LtSmlDHook
ENCODING 206
SWIDTH 960 0
DWIDTH 8 0
BBX 8 16 0 -4
BITMAP
00
00
03
05
04
38
48
48
88
90
90
68
00
00
00
00
ENDCHAR
STARTCHAR LtSmlGHook
ENCODING 207
SWIDTH 960 0
DWIDTH 8 0
BBX 8 16 0 -4
BITMAP
00
00
03
05
04
3c
44
48
88
88
98
70
10
90
e0
00
ENDCHAR
STARTCHAR LtSmlHHook
ENCODING 208
SWIDTH 960 0
DWIDTH 8 0
BBX 8 16 0 -4
BITMAP
00
00
0e
12
10
2e
32
22
22
44
44
46
00
00
00
00
ENDCHAR
STARTCHAR LtSmlKHook
ENCODING 209
SWIDTH 960 0
DWIDTH 8 0
BBX 8 16 0 -4
BITMAP
00
00
0e
12
10
2e
32
22
3c
48
44
42
00
00
00
00
ENDCHAR
STARTCHAR LtSmlPHook
ENCODING 210
SWIDTH 960 0
DWIDTH 8 0
BBX 8 16 0 -4
BITMAP
00
00
03
05
04
2c
72
22
22
44
44
78
40
80
80
00
ENDCHAR
STARTCHAR LtSmlQHook
ENCODING 211
SWIDTH 960 0
DWIDTH 8 0
BBX 8 16 0 -4
BITMAP
00
00
03
05
04
3c
48
48
88
90
90
70
10
20
20
00
ENDCHAR
STARTCHAR LtSmlTHook
ENCODING 212
SWIDTH 960 0
DWIDTH 8 0
BBX 8 16 0 -4
BITMAP
00
00
00
06
08
3e
08
10
10
10
24
18
00
00
00
00
ENDCHAR
STARTCHAR LtSmlVHook
ENCODING 213
SWIDTH 960 0
DWIDTH 8 0
BBX 8 16 0 -4
BITMAP
00
00
00
00
00
64
22
22
42
44
48
30
00
00
00
00
ENDCHAR
STARTCHAR LtSmlYHook
ENCODING 214
SWIDTH 960 0
DWIDTH 8 0
BBX 8 16 0 -4
BITMAP
00
00
00
00
00
c3
45
45
89
88
98
68
10
90
e0
00
ENDCHAR
STARTCHAR LtSmlSchwaHook
ENCODING 215
SWIDTH 960 0
DWIDTH 8 0
BBX 8 16 0 -4
BITMAP
00
00
00
00
00
38
46
06
7d
84
88
70
00
00
00
00
ENDCHAR
STARTCHAR LtSmlGSmcHook
ENCODING 216
SWIDTH 960 0
DWIDTH 8 0
BBX 8 16 0 -4
BITMAP
00
00
03
05
04
1e
22
20
4e
44
44
3c
00
00
00
00
ENDCHAR
STARTCHAR LtSmlEpsRevHook
ENCODING 217
SWIDTH 960 0
DWIDTH 8 0
BBX 8 16 0 -4
BITMAP
00
00
00
00
00
38
26
06
39
08
88
70
00
00
00
00
ENDCHAR
STARTCHAR LtSmlFTrndHook
ENCODING 218
SWIDTH 960 0
DWIDTH 8 0
BBX 8 16 0 -4
BITMAP
00
00
03
05
04
08
08
08
08
10
7c
10
10
20
c0
00
ENDCHAR
STARTCHAR LtSmlHTrndHook
ENCODING 219
SWIDTH 960 0
DWIDTH 8 0
BBX 8 16 0 -4
BITMAP
00
00
00
00
00
c2
a2
22
44
44
4c
34
08
08
08
00
ENDCHAR
STARTCHAR LtCapFLhook
ENCODING 220
SWIDTH 960 0
DWIDTH 8 0
BBX 8 16 0 -4
BITMAP
00
00
0f
08
08
10
1c
10
10
20
a0
c0
00
00
00
00
ENDCHAR
STARTCHAR LtCapNLhookL
ENCODING 221
SWIDTH 960 0
DWIDTH 8 0
BBX 8 16 0 -4
BITMAP
00
00
09
09
09
1a
1a
16
16
24
a4
c4
00
00
00
00
ENDCHAR
STARTCHAR LtCapQHooktail
ENCODING 222
SWIDTH 960 0
DWIDTH 8 0
BBX 8 16 0 -4
BITMAP
00
00
0d
13
21
22
42
42
44
44
4c
34
08
0a
0c
00
ENDCHAR
STARTCHAR LtCapTLhook
ENCODING 223
SWIDTH 960 0
DWIDTH 8 0
BBX 8 16 0 -4
BITMAP
00
00
7f
08
08
10
10
10
10
20
24
18
00
00
00
00
ENDCHAR
STARTCHAR LtCapZLhookL
ENCODING 224
SWIDTH 960 0
DWIDTH 8 0
BBX 8 16 0 -4
BITMAP
00
00
3f
01
02
04
08
10
20
40
80
f8
04
04
08
00
ENDCHAR
STARTCHAR LtSmlDLhook
ENCODING 225
SWIDTH 960 0
DWIDTH 8 0
BBX 8 16 0 -4
BITMAP
00
00
01
01
01
1e
22
22
42
44
4c
34
08
0a
0c
00
ENDCHAR
STARTCHAR LtSmlFLhook
ENCODING 226
SWIDTH 960 0
DWIDTH 8 0
BBX 8 16 0 -4
BITMAP
00
00
03
04
08
08
3e
08
10
10
10
10
20
a0
c0
00
ENDCHAR
STARTCHAR LtSmlLLhook
ENCODING 227
SWIDTH 960 0
DWIDTH 8 0
BBX 8 16 0 -4
BITMAP
00
00
0c
04
04
08
08
08
08
10
10
10
20
28
30
00
ENDCHAR
STARTCHAR LtSmlMLhook
ENCODING 228
SWIDTH 960 0
DWIDTH 8 0
BBX 8 16 0 -4
BITMAP
00
00
00
00
00
b7
49
49
49
92
92
92
04
14
18
00
ENDCHAR
STARTCHAR LtSmlNLhook
ENCODING 229
SWIDTH 960 0
DWIDTH 8 0
BBX 8 16 0 -4
BITMAP
00
00
00
00
00
6e
32
22
22
44
44
44
08
0a
0c
00
ENDCHAR
STARTCHAR LtSmlNLhookL
ENCODING 230
SWIDTH 960 0
DWIDTH 8 0
BBX 8 16 0 -4
BITMAP
00
00
00
00
00
17
19
09
11
12
12
23
20
a0
c0
00
ENDCHAR
STARTCHAR LtSmlQHooktail
ENCODING 231
SWIDTH 960 0
DWIDTH 8 0
BBX 8 16 0 -4
BITMAP
00
00
00
00
00
1a
26
22
42
44
4c
34
08
0a
0c
00
ENDCHAR
STARTCHAR LtSmlRLhook
ENCODING 232
SWIDTH 960 0
DWIDTH 8 0
BBX 8 16 0 -4
BITMAP
00
00
00
00
00
16
3a
10
10
20
20
20
40
50
60
00
ENDCHAR
STARTCHAR LtSmlSLhook
ENCODING 233
SWIDTH 960 0
DWIDTH 8 0
BBX 8 16 0 -4
BITMAP
00
00
00
00
00
1c
22
20
18
04
44
78
80
a0
c0
00
ENDCHAR
STARTCHAR LtSmlTLhook
ENCODING 234
SWIDTH 960 0
DWIDTH 8 0
BBX 8 16 0 -4
BITMAP
00
00
00
08
08
3e
08
10
10
10
20
20
20
48
70
00
ENDCHAR
STARTCHAR LtSmlTLhookL
ENCODING 235
SWIDTH 960 0
DWIDTH 8 0
BBX 8 16 0 -4
BITMAP
00
00
00
08
08
3e
08
10
10
10
24
1c
08
08
30
00
ENDCHAR
STARTCHAR LtSmlZLhook
ENCODING 236
SWIDTH 960 0
DWIDTH 8 0
BBX 8 16 0 -4
BITMAP
00
00
00
00
00
1d
22
04
08
10
20
54
08
0a
0c
00
ENDCHAR
STARTCHAR LtSmlZLhookL
ENCODING 237
SWIDTH 960 0
DWIDTH 8 0
BBX 8 16 0 -4
BITMAP
00
00
00
00
00
1d
22
04
08
10
20
5c
02
02
04
00
ENDCHAR
STARTCHAR LtSmlEzhTail
ENCODING 238
SWIDTH 960 0
DWIDTH 8 0
BBX 8 16 0 -4
BITMAP
00
00
00
00
00
36
4c
10
38
04
08
70
80
88
70
00
ENDCHAR
STARTCHAR LtSmlRTrndLhook
ENCODING 239
SWIDTH 960 0
DWIDTH 8 0
BBX 8 16 0 -4
BITMAP
00
00
00
00
00
04
04
04
08
08
58
68
10
14
18
00
ENDCHAR
STARTCHAR LtSmlHHookLhook
ENCODING 240
SWIDTH 960 0
DWIDTH 8 0
BBX 8 16 0 -4
BITMAP
00
00
0e
12
10
2e
32
22
22
44
44
44
08
28
30
00
ENDCHAR
STARTCHAR LtSmlHTrndHookLhook
ENCODING 241
SWIDTH 960 0
DWIDTH 8 0
BBX 8 16 0 -4
BITMAP
00
00
00
00
00
c2
a2
22
44
44
4c
34
08
0a
0c
00
ENDCHAR
STARTCHAR LtCapNLongleg
ENCODING 242
SWIDTH 960 0
DWIDTH 8 0
BBX 8 16 0 -4
BITMAP
00
00
2e
31
21
42
42
42
44
84
84
84
08
08
08
00
ENDCHAR
STARTCHAR LtSmlNLongleg
ENCODING 243
SWIDTH 960 0
DWIDTH 8 0
BBX 8 16 0 -4
BITMAP
00
00
00
00
00
6e
32
22
22
44
44
44
08
08
08
00
ENDCHAR
STARTCHAR LtSmlRLongleg
ENCODING 244
SWIDTH 960 0
DWIDTH 8 0
BBX 8 16 0 -4
BITMAP
00
00
00
00
00
16
3a
10
10
20
20
20
40
40
40
00
ENDCHAR
STARTCHAR LtSmlMTrndLongleg
ENCODING 245
SWIDTH 960 0
DWIDTH 8 0
BBX 8 16 0 -4
BITMAP
00
00
00
00
00
c9
49
49
92
92
92
ee
04
04
0c
00
ENDCHAR
STARTCHAR LtSmlRTrndLongleg
ENCODING 246
SWIDTH 960 0
DWIDTH 8 0
BBX 8 16 0 -4
BITMAP
00
00
02
02
02
04
04
04
08
08
5c
68
00
00
00
00
ENDCHAR
STARTCHAR LtSmlSSwash
ENCODING 247
SWIDTH 960 0
DWIDTH 8 0
BBX 8 16 0 -4
BITMAP
00
00
00
00
00
1c
22
20
18
04
44
38
10
0a
04
00
ENDCHAR
STARTCHAR LtSmlZSwash
ENCODING 248
SWIDTH 960 0
DWIDTH 8 0
BBX 8 16 0 -4
BITMAP
00
00
00
00
00
1d
22
04
08
10
20
60
10
0a
04
00
ENDCHAR
STARTCHAR LtSmlCCurl
ENCODING 249
SWIDTH 960 0
DWIDTH 8 0
BBX 8 16 0 -4
BITMAP
00
00
00
00
00
1c
22
20
40
4c
54
38
20
00
00
00
ENDCHAR
STARTCHAR LtSmlDCurl
ENCODING 250
SWIDTH 960 0
DWIDTH 8 0
BBX 8 16 0 -4
BITMAP
00
00
02
02
02
3c
44
44
84
8b
9d
66
08
00
00
00
ENDCHAR
STARTCHAR LtSmlJCurl
ENCODING 251
SWIDTH 960 0
DWIDTH 8 0
BBX 8 16 0 -4
BITMAP
00
00
04
04
00
0c
18
08
08
08
10
7c
90
90
60
00
ENDCHAR
STARTCHAR LtSmlLCurl
ENCODING 252
SWIDTH 960 0
DWIDTH 8 0
BBX 8 16 0 -4
BITMAP
00
00
18
08
08
10
10
10
10
26
2a
3c
10
00
00
00
ENDCHAR
STARTCHAR LtSmlNCurl
ENCODING 253
SWIDTH 960 0
DWIDTH 8 0
BBX 8 16 0 -4
BITMAP
00
00
00
00
00
dc
64
44
44
8b
8d
86
08
00
00
00
ENDCHAR
STARTCHAR LtSmlTCurl
ENCODING 254
SWIDTH 960 0
DWIDTH 8 0
BBX 8 16 0 -4
BITMAP
00
00
00
08
08
3e
08
10
10
16
2a
1c
10
00
00
00
ENDCHAR
STARTCHAR LtSmlZCurl
ENCODING 255
SWIDTH 960 0
DWIDTH 8 0
BBX 8 16 0 -4
BITMAP
00
00
00
00
00
1d
22
04
08
10
26
5a
0c
10
00
00
ENDCHAR
STARTCHAR LtSmlEshCurl
ENCODING 256
SWIDTH 960 0
DWIDTH 8 0
BBX 8 16 0 -4
BITMAP
00
00
03
05
08
08
08
08
08
10
10
10
70
a8
c4
00
ENDCHAR
STARTCHAR LtSmlEzhCurl
ENCODING 257
SWIDTH 960 0
DWIDTH 8 0
BBX 8 16 0 -4
BITMAP
00
00
00
00
00
3a
44
08
10
38
04
04
68
90
e8
00
ENDCHAR
STARTCHAR LtSmlDZCurl
ENCODING 258
SWIDTH 960 0
DWIDTH 8 0
BBX 8 16 0 -4
BITMAP
00
00
04
04
08
3d
4b
52
94
94
ac
57
02
04
04
00
ENDCHAR
STARTCHAR LtSmlTCCurl
ENCODING 259
SWIDTH 960 0
DWIDTH 8 0
BBX 8 16 0 -4
BITMAP
00
00
00
20
20
fa
25
48
48
48
8e
64
08
08
00
00
ENDCHAR
STARTCHAR LtSmlEshRevLoop
ENCODING 260
SWIDTH 960 0
DWIDTH 8 0
BBX 8 16 0 -4
BITMAP
00
00
18
24
1c
04
08
08
08
10
10
10
20
24
1c
00
ENDCHAR
STARTCHAR LtCapAStroke
ENCODING 261
SWIDTH 960 0
DWIDTH 8 0
BBX 8 16 0 -4
BITMAP
00
01
0d
0e
16
14
2c
34
7c
64
c4
c4
80
00
00
00
ENDCHAR
STARTCHAR LtCapBStroke
ENCODING 262
SWIDTH 960 0
DWIDTH 8 0
BBX 8 16 0 -4
BITMAP
00
00
1e
11
11
22
3c
22
f2
42
44
78
00
00
00
00
ENDCHAR
STARTCHAR LtCapCStroke
ENCODING 263
SWIDTH 960 0
DWIDTH 8 0
BBX 8 16 0 -4
BITMAP
00
01
0f
13
24
24
48
48
50
50
64
38
40
00
00
00
ENDCHAR
STARTCHAR LtCapDStroke
ENCODING 264
SWIDTH 960 0
DWIDTH 8 0
BBX 8 16 0 -4
BITMAP
00
00
1e
11
11
21
79
21
22
42
44
78
00
00
00
00
ENDCHAR
STARTCHAR LtCapEStroke
ENCODING 265
SWIDTH 960 0
DWIDTH 8 0
BBX 8 16 0 -4
BITMAP
00
01
1f
12
12
24
3c
28
30
50
60
7c
40
00
00
00
ENDCHAR
STARTCHAR LtCapGStroke
ENCODING 266
SWIDTH 960 0
DWIDTH 8 0
BBX 8 16 0 -4
BITMAP
00
00
0e
11
20
20
40
4e
42
5e
44
3c
00
00
00
00
ENDCHAR
STARTCHAR LtCapHStroke
ENCODING 267
SWIDTH 960 0
DWIDTH 8 0
BBX 8 16 0 -4
BITMAP
00
00
21
21
21
7f
42
7e
42
84
84
84
00
00
00
00
ENDCHAR
STARTCHAR LtCapIStroke
ENCODING 268
SWIDTH 960 0
DWIDTH 8 0
BBX 8 16 0 -4
BITMAP
00
00
1f
04
04
08
1c
08
08
10
10
7c
00
00
00
00
ENDCHAR
STARTCHAR LtCapJStroke
ENCODING 269
SWIDTH 960 0
DWIDTH 8 0
BBX 8 16 0 -4
BITMAP
00
00
07
02
02
04
1f
04
04
88
88
70
00
00
00
00
ENDCHAR
STARTCHAR LtCapLStroke
ENCODING 270
SWIDTH 960 0
DWIDTH 8 0
BBX 8 16 0 -4
BITMAP
00
00
08
08
08
10
1c
70
10
20
20
3e
00
00
00
00
ENDCHAR
STARTCHAR LtCapLStrokeH
ENCODING 271
SWIDTH 960 0
DWIDTH 8 0
BBX 8 16 0 -4
BITMAP
00
00
08
08
08
10
7c
10
10
20
20
3e
00
00
00
00
ENDCHAR
STARTCHAR LtCapOStroke
ENCODING 272
SWIDTH 960 0
DWIDTH 8 0
BBX 8 16 0 -4
BITMAP
00
01
0e
13
25
25
49
49
52
52
64
38
40
00
00
00
ENDCHAR
STARTCHAR LtCapOStrokeH
ENCODING 273
SWIDTH 960 0
DWIDTH 8 0
BBX 8 16 0 -4
BITMAP
00
00
0e
11
21
21
7f
41
42
42
44
38
00
00
00
00
ENDCHAR
STARTCHAR LtCapRStroke
ENCODING 274
SWIDTH 960 0
DWIDTH 8 0
BBX 8 16 0 -4
BITMAP
00
00
1e
11
11
22
7f
30
28
48
44
44
00
00
00
00
ENDCHAR
STARTCHAR LtCapTStroke
ENCODING 275
SWIDTH 960 0
DWIDTH 8 0
BBX 8 16 0 -4
BITMAP
00
00
7f
08
08
10
10
7c
10
20
20
20
00
00
00
00
ENDCHAR
STARTCHAR LtCapTStrokeD
ENCODING 276
SWIDTH 960 0
DWIDTH 8 0
BBX 8 16 0 -4
BITMAP
00
01
7f
0a
0c
18
18
10
30
20
60
a0
80
00
00
00
ENDCHAR
STARTCHAR LtCapUStroke
ENCODING 277
SWIDTH 960 0
DWIDTH 8 0
BBX 8 16 0 -4
BITMAP
00
00
21
21
41
42
7f
42
82
84
84
78
00
00
00
00
ENDCHAR
STARTCHAR LtCapYStroke
ENCODING 278
SWIDTH 960 0
DWIDTH 8 0
BBX 8 16 0 -4
BITMAP
00
00
21
21
7f
12
14
08
08
10
10
10
00
00
00
00
ENDCHAR
STARTCHAR LtCapZStroke
ENCODING 279
SWIDTH 960 0
DWIDTH 8 0
BBX 8 16 0 -4
BITMAP
00
00
3f
01
02
04
3e
10
20
40
80
fc
00
00
00
00
ENDCHAR
STARTCHAR LtSmlAStroke
ENCODING 280
SWIDTH 960 0
DWIDTH 8 0
BBX 8 16 0 -4
BITMAP
00
00
00
00
02
1e
26
2a
54
64
4c
72
80
00
00
00
ENDCHAR
STARTCHAR LtSmlBStroke
ENCODING 281
SWIDTH 960 0
DWIDTH 8 0
BBX 8 16 0 -4
BITMAP
00
00
10
3c
10
2c
32
22
22
44
44
38
00
00
00
00
ENDCHAR
STARTCHAR LtSmlCStroke
ENCODING 282
SWIDTH 960 0
DWIDTH 8 0
BBX 8 16 0 -4
BITMAP
00
00
00
00
02
1c
26
28
50
50
64
38
40
00
00
00
ENDCHAR
STARTCHAR LtSmlDStroke
ENCODING 283
SWIDTH 960 0
DWIDTH 8 0
BBX 8 16 0 -4
BITMAP
00
00
02
0f
02
3c
44
44
84
88
98
64
00
00
00
00
ENDCHAR
STARTCHAR LtSmlEStroke
ENCODING 284
SWIDTH 960 0
DWIDTH 8 0
BBX 8 16 0 -4
BITMAP
00
00
00
00
02
1c
26
2c
78
50
64
38
40
00
00
00
ENDCHAR
STARTCHAR LtSmlGStroke
ENCODING 285
SWIDTH 960 0
DWIDTH 8 0
BBX 8 16 0 -4
BITMAP
00
00
00
00
00
1e
22
22
44
44
4c
34
1e
48
70
00
ENDCHAR
STARTCHAR LtSmlHStroke
ENCODING 286
SWIDTH 960 0
DWIDTH 8 0
BBX 8 16 0 -4
BITMAP
00
00
10
3c
10
2e
32
22
22
44
44
46
00
00
00
00
ENDCHAR
STARTCHAR LtSmlIStroke
ENCODING 287
SWIDTH 960 0
DWIDTH 8 0
BBX 8 16 0 -4
BITMAP
00
00
04
04
00
0c
18
08
3e
10
12
1c
00
00
00
00
ENDCHAR
STARTCHAR LtSmlJStroke
ENCODING 288
SWIDTH 960 0
DWIDTH 8 0
BBX 8 16 0 -4
BITMAP
00
00
04
04
00
0c
08
08
7e
08
10
10
10
20
c0
00
ENDCHAR
STARTCHAR LtSmlLStroke
ENCODING 289
SWIDTH 960 0
DWIDTH 8 0
BBX 8 16 0 -4
BITMAP
00
00
0c
04
04
08
0e
38
08
10
14
18
00
00
00
00
ENDCHAR
STARTCHAR LtSmlLStrokeH
ENCODING 290
SWIDTH 960 0
DWIDTH 8 0
BBX 8 16 0 -4
BITMAP
00
00
0c
04
04
08
3e
08
08
10
14
18
00
00
00
00
ENDCHAR
STARTCHAR LtSmlOStroke
ENCODING 291
SWIDTH 960 0
DWIDTH 8 0
BBX 8 16 0 -4
BITMAP
00
00
00
00
02
1c
26
2a
52
54
64
38
40
00
00
00
ENDCHAR
STARTCHAR LtSmlOStrokeH
ENCODING 292
SWIDTH 960 0
DWIDTH 8 0
BBX 8 16 0 -4
BITMAP
00
00
00
00
00
1c
22
22
7e
44
44
38
00
00
00
00
ENDCHAR
STARTCHAR LtSmlRStroke
ENCODING 293
SWIDTH 960 0
DWIDTH 8 0
BBX 8 16 0 -4
BITMAP
00
00
00
00
00
16
3a
10
7c
20
20
20
00
00
00
00
ENDCHAR
STARTCHAR LtSmlTStroke
ENCODING 294
SWIDTH 960 0
DWIDTH 8 0
BBX 8 16 0 -4
BITMAP
00
00
00
08
08
3e
08
7e
10
10
24
18
00
00
00
00
ENDCHAR
STARTCHAR LtSmlTStrokeD
ENCODING 295
SWIDTH 960 0
DWIDTH 8 0
BBX 8 16 0 -4
BITMAP
00
00
02
0a
0c
3e
08
10
10
30
24
58
40
00
00
00
ENDCHAR
STARTCHAR LtSmlUStroke
ENCODING 296
SWIDTH 960 0
DWIDTH 8 0
BBX 8 16 0 -4
BITMAP
00
00
00
00
00
62
22
7f
42
44
4c
32
00
00
00
00
ENDCHAR
STARTCHAR LtSmlYStroke
ENCODING 297
SWIDTH 960 0
DWIDTH 8 0
BBX 8 16 0 -4
BITMAP
00
00
00
00
00
62
22
22
fe
44
4c
34
08
48
70
00
ENDCHAR
STARTCHAR LtSmlZStroke
ENCODING 298
SWIDTH 960 0
DWIDTH 8 0
BBX 8 16 0 -4
BITMAP
00
00
00
00
00
1d
22
04
3e
10
20
52
0c
00
00
00
ENDCHAR
STARTCHAR LtSmlLamStroke
ENCODING 299
SWIDTH 960 0
DWIDTH 8 0
BBX 8 16 0 -4
BITMAP
00
00
32
0c
18
28
08
18
28
48
88
86
00
00
00
00
ENDCHAR
STARTCHAR LtSmlTwoStroke
ENCODING 300
SWIDTH 960 0
DWIDTH 8 0
BBX 8 16 0 -4
BITMAP
00
00
0e
11
01
02
04
3e
10
20
40
7c
00
00
00
00
ENDCHAR
STARTCHAR LtSmlGlotStroke
ENCODING 301
SWIDTH 960 0
DWIDTH 8 0
BBX 8 16 0 -4
BITMAP
00
00
1e
21
21
02
04
08
3c
10
10
10
00
00
00
00
ENDCHAR
STARTCHAR LtSmlAinStroke
ENCODING 302
SWIDTH 960 0
DWIDTH 8 0
BBX 8 16 0 -4
BITMAP
00
00
1e
21
21
10
08
08
3c
10
10
10
00
00
00
00
ENDCHAR
STARTCHAR LtSmlPipeStroke2
ENCODING 303
SWIDTH 960 0
DWIDTH 8 0
BBX 8 16 0 -4
BITMAP
00
00
04
04
04
3f
08
08
7e
10
10
10
00
00
00
00
ENDCHAR
STARTCHAR LtSmlGlotInvStroke
ENCODING 304
SWIDTH 960 0
DWIDTH 8 0
BBX 8 16 0 -4
BITMAP
00
00
08
08
08
3c
10
10
08
84
84
78
00
00
00
00
ENDCHAR
STARTCHAR LtSmlLBelt
ENCODING 305
SWIDTH 960 0
DWIDTH 8 0
BBX 8 16 0 -4
BITMAP
00
00
0c
04
04
18
2a
3c
08
10
14
18
00
00
00
00
ENDCHAR
STARTCHAR LtSmlLLhookBelt
ENCODING 306
SWIDTH 960 0
DWIDTH 8 0
BBX 8 16 0 -4
BITMAP
00
00
0c
04
04
18
2a
3c
08
10
10
10
20
28
30
00
ENDCHAR
STARTCHAR LtSmlLMtilde
ENCODING 307
SWIDTH 960 0
DWIDTH 8 0
BBX 8 16 0 -4
BITMAP
00
00
0c
04
04
08
39
4e
08
10
14
18
00
00
00
00
ENDCHAR
STARTCHAR LtCapOHorn
ENCODING 308
SWIDTH 960 0
DWIDTH 8 0
BBX 8 16 0 -4
BITMAP
03
01
0e
12
22
22
42
42
44
44
48
30
00
00
00
00
ENDCHAR
STARTCHAR LtCapUHorn
ENCODING 309
SWIDTH 960 0
DWIDTH 8 0
BBX 8 16 0 -4
BITMAP
03
01
22
22
42
44
44
44
88
88
88
70
00
00
00
00
ENDCHAR
STARTCHAR LtSmlOHorn
ENCODING 310
SWIDTH 960 0
DWIDTH 8 0
BBX 8 16 0 -4
BITMAP
00
00
00
03
01
1e
22
22
42
44
44
38
00
00
00
00
ENDCHAR
STARTCHAR LtSmlUHorn
ENCODING 311
SWIDTH 960 0
DWIDTH 8 0
BBX 8 16 0 -4
BITMAP
00
00
00
03
01
62
22
22
42
44
4c
32
00
00
00
00
ENDCHAR
STARTCHAR LtCapADot
ENCODING 312
SWIDTH 960 0
DWIDTH 8 0
BBX 8 16 0 -4
BITMAP
04
04
00
0c
0c
14
14
24
7c
44
84
84
00
00
00
00
ENDCHAR
STARTCHAR LtCapBDot
ENCODING 313
SWIDTH 960 0
DWIDTH 8 0
BBX 8 16 0 -4
BITMAP
04
04
00
1e
11
11
22
3c
22
42
44
78
00
00
00
00
ENDCHAR
STARTCHAR LtCapCDot
ENCODING 314
SWIDTH 960 0
DWIDTH 8 0
BBX 8 16 0 -4
BITMAP
04
04
00
0e
11
20
20
40
40
40
44
38
00
00
00
00
ENDCHAR
STARTCHAR LtCapDDot
ENCODING 315
SWIDTH 960 0
DWIDTH 8 0
BBX 8 16 0 -4
BITMAP
08
08
00
3c
22
22
42
42
44
84
88
f0
00
00
00
00
ENDCHAR
STARTCHAR LtCapEDot
ENCODING 316
SWIDTH 960 0
DWIDTH 8 0
BBX 8 16 0 -4
BITMAP
04
04
00
1f
10
10
20
3c
20
40
40
7c
00
00
00
00
ENDCHAR
STARTCHAR LtCapFDot
ENCODING 317
SWIDTH 960 0
DWIDTH 8 0
BBX 8 16 0 -4
BITMAP
04
04
00
1f
10
10
20
3c
20
40
40
40
00
00
00
00
ENDCHAR
STARTCHAR LtCapGDot
ENCODING 318
SWIDTH 960 0
DWIDTH 8 0
BBX 8 16 0 -4
BITMAP
04
04
00
0e
11
20
20
4e
42
44
44
3c
00
00
00
00
ENDCHAR
STARTCHAR LtCapHDot
ENCODING 319
SWIDTH 960 0
DWIDTH 8 0
BBX 8 16 0 -4
BITMAP
04
04
21
21
21
42
7e
42
42
84
84
84
00
00
00
00
ENDCHAR
STARTCHAR LtCapIDot
ENCODING 320
SWIDTH 960 0
DWIDTH 8 0
BBX 8 16 0 -4
BITMAP
04
04
00
1f
04
04
08
08
08
10
10
7c
00
00
00
00
ENDCHAR
STARTCHAR LtCapMDot
ENCODING 321
SWIDTH 960 0
DWIDTH 8 0
BBX 8 16 0 -4
BITMAP
04
04
21
21
33
56
5a
5a
42
84
84
84
00
00
00
00
ENDCHAR
STARTCHAR LtCapNDot
ENCODING 322
SWIDTH 960 0
DWIDTH 8 0
BBX 8 16 0 -4
BITMAP
04
04
00
21
21
31
52
4a
4a
8c
84
84
00
00
00
00
ENDCHAR
STARTCHAR LtCapODot
ENCODING 323
SWIDTH 960 0
DWIDTH 8 0
BBX 8 16 0 -4
BITMAP
02
02
00
0e
11
21
21
41
42
42
44
38
00
00
00
00
ENDCHAR
STARTCHAR LtCapPDot
ENCODING 324
SWIDTH 960 0
DWIDTH 8 0
BBX 8 16 0 -4
BITMAP
04
04
00
1e
11
11
22
3c
20
40
40
40
00
00
00
00
ENDCHAR
STARTCHAR LtCapQDot
ENCODING 325
SWIDTH 960 0
DWIDTH 8 0
BBX 8 16 0 -4
BITMAP
02
02
00
0e
11
21
21
41
42
52
54
38
06
00
00
00
ENDCHAR
STARTCHAR LtCapRDot
ENCODING 326
SWIDTH 960 0
DWIDTH 8 0
BBX 8 16 0 -4
BITMAP
04
04
00
1e
11
11
22
3c
28
48
44
44
00
00
00
00
ENDCHAR
STARTCHAR LtCapSDot
ENCODING 327
SWIDTH 960 0
DWIDTH 8 0
BBX 8 16 0 -4
BITMAP
04
04
00
1e
21
20
20
18
04
04
84
78
00
00
00
00
ENDCHAR
STARTCHAR LtCapTDot
ENCODING 328
SWIDTH 960 0
DWIDTH 8 0
BBX 8 16 0 -4
BITMAP
04
04
00
7f
08
08
10
10
10
20
20
20
00
00
00
00
ENDCHAR
STARTCHAR LtCapWDot
ENCODING 329
SWIDTH 960 0
DWIDTH 8 0
BBX 8 16 0 -4
BITMAP
04
04
21
21
21
22
2a
5a
6a
6c
44
44
00
00
00
00
ENDCHAR
STARTCHAR LtCapXDot
ENCODING 330
SWIDTH 960 0
DWIDTH 8 0
BBX 8 16 0 -4
BITMAP
04
04
21
21
12
14
18
18
28
48
84
84
00
00
00
00
ENDCHAR
STARTCHAR LtCapYDot
ENCODING 331
SWIDTH 960 0
DWIDTH 8 0
BBX 8 16 0 -4
BITMAP
04
04
21
21
12
12
14
08
08
10
10
10
00
00
00
00
ENDCHAR
STARTCHAR LtCapZDot
ENCODING 332
SWIDTH 960 0
DWIDTH 8 0
BBX 8 16 0 -4
BITMAP
04
04
00
3f
02
04
08
10
20
40
80
fc
00
00
00
00
ENDCHAR
STARTCHAR LtSmlADot
ENCODING 333
SWIDTH 960 0
DWIDTH 8 0
BBX 8 16 0 -4
BITMAP
00
00
04
04
00
1e
22
22
44
44
4c
32
00
00
00
00
ENDCHAR
STARTCHAR LtSmlBDot
ENCODING 334
SWIDTH 960 0
DWIDTH 8 0
BBX 8 16 0 -4
BITMAP
04
04
30
10
10
2c
32
22
22
44
44
38
00
00
00
00
ENDCHAR
STARTCHAR LtSmlCDot
ENCODING 335
SWIDTH 960 0
DWIDTH 8 0
BBX 8 16 0 -4
BITMAP
00
00
08
08
00
1c
22
20
40
40
44
38
00
00
00
00
ENDCHAR
STARTCHAR LtSmlDDot
ENCODING 336
SWIDTH 960 0
DWIDTH 8 0
BBX 8 16 0 -4
BITMAP
04
04
01
01
01
1e
22
22
42
44
4c
32
00
00
00
00
ENDCHAR
STARTCHAR LtSmlEDot
ENCODING 337
SWIDTH 960 0
DWIDTH 8 0
BBX 8 16 0 -4
BITMAP
00
00
08
08
00
1c
22
24
78
40
44
38
00
00
00
00
ENDCHAR
STARTCHAR LtSmlFDot
ENCODING 338
SWIDTH 960 0
DWIDTH 8 0
BBX 8 16 0 -4
BITMAP
02
02
00
03
04
08
3e
08
10
10
10
10
20
20
40
00
ENDCHAR
STARTCHAR LtSmlGDot
ENCODING 339
SWIDTH 960 0
DWIDTH 8 0
BBX 8 16 0 -4
BITMAP
00
00
08
08
00
1e
22
22
44
44
4c
34
08
48
70
00
ENDCHAR
STARTCHAR LtSmlHDot
ENCODING 340
SWIDTH 960 0
DWIDTH 8 0
BBX 8 16 0 -4
BITMAP
02
02
30
10
10
2e
32
22
22
44
44
46
00
00
00
00
ENDCHAR
STARTCHAR LtSmlMDot
ENCODING 341
SWIDTH 960 0
DWIDTH 8 0
BBX 8 16 0 -4
BITMAP
00
00
08
08
00
b7
49
49
49
92
92
93
00
00
00
00
ENDCHAR
STARTCHAR LtSmlNDot
ENCODING 342
SWIDTH 960 0
DWIDTH 8 0
BBX 8 16 0 -4
BITMAP
00
00
08
08
00
6e
32
22
22
44
44
46
00
00
00
00
ENDCHAR
STARTCHAR LtSmlODot
ENCODING 343
SWIDTH 960 0
DWIDTH 8 0
BBX 8 16 0 -4
BITMAP
00
00
04
04
00
1c
22
22
42
44
44
38
00
00
00
00
ENDCHAR
STARTCHAR LtSmlPDot
ENCODING 344
SWIDTH 960 0
DWIDTH 8 0
BBX 8 16 0 -4
BITMAP
00
00
08
08
00
2c
72
22
22
44
44
78
40
80
80
00
ENDCHAR
STARTCHAR LtSmlQDot
ENCODING 345
SWIDTH 960 0
DWIDTH 8 0
BBX 8 16 0 -4
BITMAP
00
00
04
04
00
1a
26
22
42
44
4c
34
08
08
08
00
ENDCHAR
STARTCHAR LtSmlRDot
ENCODING 346
SWIDTH 960 0
DWIDTH 8 0
BBX 8 16 0 -4
BITMAP
00
00
04
04
00
16
3a
10
10
20
20
20
00
00
00
00
ENDCHAR
STARTCHAR LtSmlSDot
ENCODING 347
SWIDTH 960 0
DWIDTH 8 0
BBX 8 16 0 -4
BITMAP
00
00
08
08
00
1c
22
20
18
04
44
38
00
00
00
00
ENDCHAR
STARTCHAR LtSmlTDot
ENCODING 348
SWIDTH 960 0
DWIDTH 8 0
BBX 8 16 0 -4
BITMAP
04
04
00
08
08
3e
08
10
10
10
24
18
00
00
00
00
ENDCHAR
STARTCHAR LtSmlWDot
ENCODING 349
SWIDTH 960 0
DWIDTH 8 0
BBX 8 16 0 -4
BITMAP
00
00
04
04
00
61
21
41
49
5a
66
44
00
00
00
00
ENDCHAR
STARTCHAR LtSmlXDot
ENCODING 350
SWIDTH 960 0
DWIDTH 8 0
BBX 8 16 0 -4
BITMAP
00
00
04
04
00
31
12
0c
08
18
24
46
00
00
00
00
ENDCHAR
STARTCHAR LtSmlYDot
ENCODING 351
SWIDTH 960 0
DWIDTH 8 0
BBX 8 16 0 -4
BITMAP
00
00
08
08
00
62
22
22
44
44
4c
34
08
48
70
00
ENDCHAR
STARTCHAR LtSmlZDot
ENCODING 352
SWIDTH 960 0
DWIDTH 8 0
BBX 8 16 0 -4
BITMAP
00
00
04
04
00
1d
22
04
08
10
20
52
0c
00
00
00
ENDCHAR
STARTCHAR LtSmlSLongDot
ENCODING 353
SWIDTH 960 0
DWIDTH 8 0
BBX 8 16 0 -4
BITMAP
02
02
00
03
05
08
08
08
08
10
10
10
10
20
20
00
ENDCHAR
STARTCHAR LtCapSAcuteDot
ENCODING 354
SWIDTH 960 0
DWIDTH 8 0
BBX 8 16 0 -4
BITMAP
06
00
03
04
1e
21
20
10
08
04
84
78
00
00
00
00
ENDCHAR
STARTCHAR LtSmlSAcuteDot
ENCODING 355
SWIDTH 960 0
DWIDTH 8 0
BBX 8 16 0 -4
BITMAP
06
00
01
06
00
1c
22
20
18
04
44
38
00
00
00
00
ENDCHAR
STARTCHAR LtCapSCaronDot
ENCODING 356
SWIDTH 960 0
DWIDTH 8 0
BBX 8 16 0 -4
BITMAP
06
00
0a
04
1e
21
20
10
08
04
84
78
00
00
00
00
ENDCHAR
STARTCHAR LtSmlSCaronDot
ENCODING 357
SWIDTH 960 0
DWIDTH 8 0
BBX 8 16 0 -4
BITMAP
06
00
09
06
00
1c
22
20
18
04
44
38
00
00
00
00
ENDCHAR
STARTCHAR LtSmlIDotless
ENCODING 358
SWIDTH 960 0
DWIDTH 8 0
BBX 8 16 0 -4
BITMAP
00
00
00
00
00
0c
18
08
08
10
12
1c
00
00
00
00
ENDCHAR
STARTCHAR LtSmlJDotless
ENCODING 359
SWIDTH 960 0
DWIDTH 8 0
BBX 8 16 0 -4
BITMAP
00
00
00
00
00
0c
18
08
08
08
10
10
10
20
c0
00
ENDCHAR
STARTCHAR LtCapADrss
ENCODING 360
SWIDTH 960 0
DWIDTH 8 0
BBX 8 16 0 -4
BITMAP
12
12
00
0c
0c
14
14
24
7c
44
84
84
00
00
00
00
ENDCHAR
STARTCHAR LtCapEDrss
ENCODING 361
SWIDTH 960 0
DWIDTH 8 0
BBX 8 16 0 -4
BITMAP
09
09
00
1f
10
10
20
3c
20
40
40
7c
00
00
00
00
ENDCHAR
STARTCHAR LtCapHDrss
ENCODING 362
SWIDTH 960 0
DWIDTH 8 0
BBX 8 16 0 -4
BITMAP
09
09
00
21
21
21
42
7e
42
84
84
84
00
00
00
00
ENDCHAR
STARTCHAR LtCapIDrss
ENCODING 363
SWIDTH 960 0
DWIDTH 8 0
BBX 8 16 0 -4
BITMAP
09
09
00
1f
04
04
08
08
08
10
10
7c
00
00
00
00
ENDCHAR
STARTCHAR LtCapNDrss
ENCODING 364
SWIDTH 960 0
DWIDTH 8 0
BBX 8 16 0 -4
BITMAP
12
12
00
21
21
31
52
4a
4a
8c
84
84
00
00
00
00
ENDCHAR
STARTCHAR LtCapODrss
ENCODING 365
SWIDTH 960 0
DWIDTH 8 0
BBX 8 16 0 -4
BITMAP
09
09
00
0e
11
21
21
41
42
42
44
38
00
00
00
00
ENDCHAR
STARTCHAR LtCapUDrss
ENCODING 366
SWIDTH 960 0
DWIDTH 8 0
BBX 8 16 0 -4
BITMAP
12
12
00
21
21
41
42
42
82
84
84
78
00
00
00
00
ENDCHAR
STARTCHAR LtCapWDrss
ENCODING 367
SWIDTH 960 0
DWIDTH 8 0
BBX 8 16 0 -4
BITMAP
12
12
00
21
21
22
2a
5a
6a
6c
44
44
00
00
00
00
ENDCHAR
STARTCHAR LtCapXDrss
ENCODING 368
SWIDTH 960 0
DWIDTH 8 0
BBX 8 16 0 -4
BITMAP
09
09
00
21
21
12
14
08
18
28
44
84
00
00
00
00
ENDCHAR
STARTCHAR LtCapYDrss
ENCODING 369
SWIDTH 960 0
DWIDTH 8 0
BBX 8 16 0 -4
BITMAP
12
12
00
21
21
12
12
0c
08
08
10
10
00
00
00
00
ENDCHAR
STARTCHAR LtSmlADrss
ENCODING 370
SWIDTH 960 0
DWIDTH 8 0
BBX 8 16 0 -4
BITMAP
00
00
12
12
00
1e
22
22
44
44
4c
32
00
00
00
00
ENDCHAR
STARTCHAR LtSmlEDrss
ENCODING 371
SWIDTH 960 0
DWIDTH 8 0
BBX 8 16 0 -4
BITMAP
00
00
12
12
00
1c
22
24
78
40
44
38
00
00
00
00
ENDCHAR
STARTCHAR LtSmlHDrss
ENCODING 372
SWIDTH 960 0
DWIDTH 8 0
BBX 8 16 0 -4
BITMAP
09
09
30
10
10
2e
32
22
22
44
44
46
00
00
00
00
ENDCHAR
STARTCHAR LtSmlIDrss
ENCODING 373
SWIDTH 960 0
DWIDTH 8 0
BBX 8 16 0 -4
BITMAP
00
00
12
12
00
0c
18
08
08
10
12
1c
00
00
00
00
ENDCHAR
STARTCHAR LtSmlNDrss
ENCODING 374
SWIDTH 960 0
DWIDTH 8 0
BBX 8 16 0 -4
BITMAP
00
00
12
12
00
6e
32
22
22
44
44
46
00
00
00
00
ENDCHAR
STARTCHAR LtSmlODrss
ENCODING 375
SWIDTH 960 0
DWIDTH 8 0
BBX 8 16 0 -4
BITMAP
00
00
12
12
00
1c
22
22
42
44
44
38
00
00
00
00
ENDCHAR
STARTCHAR LtSmlTDrss
ENCODING 376
SWIDTH 960 0
DWIDTH 8 0
BBX 8 16 0 -4
BITMAP
09
09
00
08
08
3e
08
10
10
10
24
18
00
00
00
00
ENDCHAR
STARTCHAR LtSmlUDrss
ENCODING 377
SWIDTH 960 0
DWIDTH 8 0
BBX 8 16 0 -4
BITMAP
00
00
12
12
00
62
22
22
42
44
4c
32
00
00
00
00
ENDCHAR
STARTCHAR LtSmlWDrss
ENCODING 378
SWIDTH 960 0
DWIDTH 8 0
BBX 8 16 0 -4
BITMAP
00
00
12
12
00
61
21
41
49
5a
66
44
00
00
00
00
ENDCHAR
STARTCHAR LtSmlXDrss
ENCODING 379
SWIDTH 960 0
DWIDTH 8 0
BBX 8 16 0 -4
BITMAP
00
00
12
12
00
31
12
0c
08
18
24
46
00
00
00
00
ENDCHAR
STARTCHAR LtSmlYDrss
ENCODING 380
SWIDTH 960 0
DWIDTH 8 0
BBX 8 16 0 -4
BITMAP
00
00
12
12
00
62
22
22
44
44
4c
34
08
48
70
00
ENDCHAR
STARTCHAR LtCapUMacronDrss
ENCODING 381
SWIDTH 960 0
DWIDTH 8 0
BBX 8 16 0 -4
BITMAP
1b
00
1f
00
21
41
42
42
82
84
84
78
00
00
00
00
ENDCHAR
STARTCHAR LtSmlUMacronDrss
ENCODING 382
SWIDTH 960 0
DWIDTH 8 0
BBX 8 16 0 -4
BITMAP
12
12
00
3e
00
62
22
22
42
44
4c
32
00
00
00
00
ENDCHAR
STARTCHAR LtCapOTildeDrss
ENCODING 383
SWIDTH 960 0
DWIDTH 8 0
BBX 8 16 0 -4
BITMAP
1b
00
0d
12
0e
11
21
21
42
42
44
38
00
00
00
00
ENDCHAR
STARTCHAR LtSmlOTildeDrss
ENCODING 384
SWIDTH 960 0
DWIDTH 8 0
BBX 8 16 0 -4
BITMAP
1b
00
09
16
00
1c
22
22
42
44
44
38
00
00
00
00
ENDCHAR
STARTCHAR LtCapARing
ENCODING 385
SWIDTH 960 0
DWIDTH 8 0
BBX 8 16 0 -4
BITMAP
0c
12
12
0c
0c
14
14
24
7c
44
84
84
00
00
00
00
ENDCHAR
STARTCHAR LtCapURing
ENCODING 386
SWIDTH 960 0
DWIDTH 8 0
BBX 8 16 0 -4
BITMAP
0c
12
0c
21
21
41
42
42
82
84
84
78
00
00
00
00
ENDCHAR
STARTCHAR LtSmlARing
ENCODING 387
SWIDTH 960 0
DWIDTH 8 0
BBX 8 16 0 -4
BITMAP
00
0c
12
0c
00
1e
22
22
44
44
4c
32
00
00
00
00
ENDCHAR
STARTCHAR LtSmlURing
ENCODING 388
SWIDTH 960 0
DWIDTH 8 0
BBX 8 16 0 -4
BITMAP
00
0c
12
0c
00
62
22
22
42
44
4c
32
00
00
00
00
ENDCHAR
STARTCHAR LtSmlWRing
ENCODING 389
SWIDTH 960 0
DWIDTH 8 0
BBX 8 16 0 -4
BITMAP
00
0c
12
0c
00
61
21
41
49
5a
66
44
00
00
00
00
ENDCHAR
STARTCHAR LtSmlYRing
ENCODING 390
SWIDTH 960 0
DWIDTH 8 0
BBX 8 16 0 -4
BITMAP
00
0c
12
0c
00
62
22
22
44
44
4c
34
08
48
70
00
ENDCHAR
STARTCHAR LtSmlAHalfringr
ENCODING 391
SWIDTH 960 0
DWIDTH 8 0
BBX 8 16 0 -4
BITMAP
00
04
02
04
00
1e
22
22
44
44
4c
32
00
00
00
00
ENDCHAR
STARTCHAR LtCapAMacron
ENCODING 392
SWIDTH 960 0
DWIDTH 8 0
BBX 8 16 0 -4
BITMAP
1e
00
0c
0c
14
14
24
24
7c
44
84
84
00
00
00
00
ENDCHAR
STARTCHAR LtCapEMacron
ENCODING 393
SWIDTH 960 0
DWIDTH 8 0
BBX 8 16 0 -4
BITMAP
0f
00
1f
10
10
20
3c
20
20
40
40
7c
00
00
00
00
ENDCHAR
STARTCHAR LtCapGMacron
ENCODING 394
SWIDTH 960 0
DWIDTH 8 0
BBX 8 16 0 -4
BITMAP
0f
00
0e
11
20
20
40
4e
42
44
44
3c
00
00
00
00
ENDCHAR
STARTCHAR LtCapIMacron
ENCODING 395
SWIDTH 960 0
DWIDTH 8 0
BBX 8 16 0 -4
BITMAP
0f
00
1f
04
04
08
08
08
08
10
10
7c
00
00
00
00
ENDCHAR
STARTCHAR LtCapNMacron
ENCODING 396
SWIDTH 960 0
DWIDTH 8 0
BBX 8 16 0 -4
BITMAP
1e
00
21
21
31
52
52
4a
4a
8c
84
84
00
00
00
00
ENDCHAR
STARTCHAR LtCapOMacron
ENCODING 397
SWIDTH 960 0
DWIDTH 8 0
BBX 8 16 0 -4
BITMAP
0f
00
0e
11
21
21
41
41
42
42
44
38
00
00
00
00
ENDCHAR
STARTCHAR LtCapUMacron
ENCODING 398
SWIDTH 960 0
DWIDTH 8 0
BBX 8 16 0 -4
BITMAP
1e
00
21
21
41
42
42
42
82
84
84
78
00
00
00
00
ENDCHAR
STARTCHAR LtCapYMacron
ENCODING 399
SWIDTH 960 0
DWIDTH 8 0
BBX 8 16 0 -4
BITMAP
1e
00
21
21
12
12
14
08
08
10
10
10
00
00
00
00
ENDCHAR
STARTCHAR LtSmlAMacron
ENCODING 400
SWIDTH 960 0
DWIDTH 8 0
BBX 8 16 0 -4
BITMAP
00
00
1e
00
00
1e
22
22
44
44
4c
32
00
00
00
00
ENDCHAR
STARTCHAR LtSmlEMacron
ENCODING 401
SWIDTH 960 0
DWIDTH 8 0
BBX 8 16 0 -4
BITMAP
00
00
1e
00
00
1c
22
24
78
40
44
38
00
00
00
00
ENDCHAR
STARTCHAR LtSmlGMacron
ENCODING 402
SWIDTH 960 0
DWIDTH 8 0
BBX 8 16 0 -4
BITMAP
00
00
1e
00
00
1e
22
22
44
44
4c
34
08
48
70
00
ENDCHAR
STARTCHAR LtSmlIMacron
ENCODING 403
SWIDTH 960 0
DWIDTH 8 0
BBX 8 16 0 -4
BITMAP
00
00
1e
00
00
0c
18
08
08
10
12
1c
00
00
00
00
ENDCHAR
STARTCHAR LtSmlNMacron
ENCODING 404
SWIDTH 960 0
DWIDTH 8 0
BBX 8 16 0 -4
BITMAP
00
00
1e
00
00
6e
32
22
22
44
44
46
00
00
00
00
ENDCHAR
STARTCHAR LtSmlOMacron
ENCODING 405
SWIDTH 960 0
DWIDTH 8 0
BBX 8 16 0 -4
BITMAP
00
00
1e
00
00
1c
22
22
42
44
44
38
00
00
00
00
ENDCHAR
STARTCHAR LtSmlUMacron
ENCODING 406
SWIDTH 960 0
DWIDTH 8 0
BBX 8 16 0 -4
BITMAP
00
00
1e
00
00
62
22
22
42
44
4c
32
00
00
00
00
ENDCHAR
STARTCHAR LtSmlYMacron
ENCODING 407
SWIDTH 960 0
DWIDTH 8 0
BBX 8 16 0 -4
BITMAP
00
00
1e
00
00
62
22
22
44
44
4c
34
08
48
70
00
ENDCHAR
STARTCHAR LtCapAEMacron
ENCODING 408
SWIDTH 960 0
DWIDTH 8 0
BBX 8 16 0 -4
BITMAP
0f
00
0f
0c
14
18
2e
28
78
50
90
9c
00
00
00
00
ENDCHAR
STARTCHAR LtSmlAEMacron
ENCODING 409
SWIDTH 960 0
DWIDTH 8 0
BBX 8 16 0 -4
BITMAP
00
00
0f
00
00
06
19
29
4e
90
92
6c
00
00
00
00
ENDCHAR
STARTCHAR LtCapADotMacron
ENCODING 410
SWIDTH 960 0
DWIDTH 8 0
BBX 8 16 0 -4
BITMAP
0f
00
06
00
0c
0c
14
24
3c
44
84
84
00
00
00
00
ENDCHAR
STARTCHAR LtCapODotMacron
ENCODING 411
SWIDTH 960 0
DWIDTH 8 0
BBX 8 16 0 -4
BITMAP
0f
00
06
00
0e
11
21
21
42
42
44
38
00
00
00
00
ENDCHAR
STARTCHAR LtSmlADotMacron
ENCODING 412
SWIDTH 960 0
DWIDTH 8 0
BBX 8 16 0 -4
BITMAP
0f
00
04
04
00
1e
22
22
44
44
4c
32
00
00
00
00
ENDCHAR
STARTCHAR LtSmlODotMacron
ENCODING 413
SWIDTH 960 0
DWIDTH 8 0
BBX 8 16 0 -4
BITMAP
0f
00
04
04
00
1c
22
22
42
44
44
38
00
00
00
00
ENDCHAR
STARTCHAR LtCapADrssMacron
ENCODING 414
SWIDTH 960 0
DWIDTH 8 0
BBX 8 16 0 -4
BITMAP
1f
00
11
15
0c
14
14
24
7c
44
84
84
00
00
00
00
ENDCHAR
STARTCHAR LtCapODrssMacron
ENCODING 415
SWIDTH 960 0
DWIDTH 8 0
BBX 8 16 0 -4
BITMAP
0f
00
1b
00
0e
11
21
21
42
42
44
38
00
00
00
00
ENDCHAR
STARTCHAR LtCapUDrssMacron
ENCODING 416
SWIDTH 960 0
DWIDTH 8 0
BBX 8 16 0 -4
BITMAP
0f
00
1b
00
21
41
42
42
82
84
84
78
00
00
00
00
ENDCHAR
STARTCHAR LtSmlADrssMacron
ENCODING 417
SWIDTH 960 0
DWIDTH 8 0
BBX 8 16 0 -4
BITMAP
0f
00
12
12
00
1e
22
22
44
44
4c
32
00
00
00
00
ENDCHAR
STARTCHAR LtSmlODrssMacron
ENCODING 418
SWIDTH 960 0
DWIDTH 8 0
BBX 8 16 0 -4
BITMAP
0f
00
12
12
00
1c
22
22
42
44
44
38
00
00
00
00
ENDCHAR
STARTCHAR LtSmlUDrssMacron
ENCODING 419
SWIDTH 960 0
DWIDTH 8 0
BBX 8 16 0 -4
BITMAP
0f
00
12
12
00
62
22
22
42
44
4c
32
00
00
00
00
ENDCHAR
STARTCHAR LtCapOTildeMacron
ENCODING 420
SWIDTH 960 0
DWIDTH 8 0
BBX 8 16 0 -4
BITMAP
0f
00
0d
12
0e
11
21
21
42
42
44
38
00
00
00
00
ENDCHAR
STARTCHAR LtSmlOTildeMacron
ENCODING 421
SWIDTH 960 0
DWIDTH 8 0
BBX 8 16 0 -4
BITMAP
0f
00
09
16
00
1c
22
22
42
44
44
38
00
00
00
00
ENDCHAR
STARTCHAR LtCapAAcute
ENCODING 422
SWIDTH 960 0
DWIDTH 8 0
BBX 8 16 0 -4
BITMAP
01
06
00
0c
0c
14
14
24
7c
44
84
84
00
00
00
00
ENDCHAR
STARTCHAR LtCapCAcute
ENCODING 423
SWIDTH 960 0
DWIDTH 8 0
BBX 8 16 0 -4
BITMAP
01
06
00
0e
11
20
20
40
40
40
44
38
00
00
00
00
ENDCHAR
STARTCHAR LtCapEAcute
ENCODING 424
SWIDTH 960 0
DWIDTH 8 0
BBX 8 16 0 -4
BITMAP
01
06
00
1f
10
10
20
3c
20
40
40
7c
00
00
00
00
ENDCHAR
STARTCHAR LtCapGAcute
ENCODING 425
SWIDTH 960 0
DWIDTH 8 0
BBX 8 16 0 -4
BITMAP
01
06
00
0e
11
20
20
4e
42
44
44
3c
00
00
00
00
ENDCHAR
STARTCHAR LtCapIAcute
ENCODING 426
SWIDTH 960 0
DWIDTH 8 0
BBX 8 16 0 -4
BITMAP
01
06
00
1f
04
04
08
08
08
10
10
7c
00
00
00
00
ENDCHAR
STARTCHAR LtCapKAcute
ENCODING 427
SWIDTH 960 0
DWIDTH 8 0
BBX 8 16 0 -4
BITMAP
02
0c
00
21
22
24
48
70
50
88
84
84
00
00
00
00
ENDCHAR
STARTCHAR LtCapLAcute
ENCODING 428
SWIDTH 960 0
DWIDTH 8 0
BBX 8 16 0 -4
BITMAP
01
06
00
10
10
10
20
20
20
40
40
7c
00
00
00
00
ENDCHAR
STARTCHAR LtCapMAcute
ENCODING 429
SWIDTH 960 0
DWIDTH 8 0
BBX 8 16 0 -4
BITMAP
02
0c
00
21
23
56
5a
5a
42
84
84
84
00
00
00
00
ENDCHAR
STARTCHAR LtCapNAcute
ENCODING 430
SWIDTH 960 0
DWIDTH 8 0
BBX 8 16 0 -4
BITMAP
02
0c
00
21
21
31
52
4a
4a
8c
84
84
00
00
00
00
ENDCHAR
STARTCHAR LtCapOAcute
ENCODING 431
SWIDTH 960 0
DWIDTH 8 0
BBX 8 16 0 -4
BITMAP
01
06
00
0e
11
21
21
41
42
42
44
38
00
00
00
00
ENDCHAR
STARTCHAR LtCapPAcute
ENCODING 432
SWIDTH 960 0
DWIDTH 8 0
BBX 8 16 0 -4
BITMAP
01
06
00
1e
11
11
22
3c
20
40
40
40
00
00
00
00
ENDCHAR
STARTCHAR LtCapRAcute
ENCODING 433
SWIDTH 960 0
DWIDTH 8 0
BBX 8 16 0 -4
BITMAP
01
06
00
1e
11
11
22
3c
28
48
44
44
00
00
00
00
ENDCHAR
STARTCHAR LtCapSAcute
ENCODING 434
SWIDTH 960 0
DWIDTH 8 0
BBX 8 16 0 -4
BITMAP
01
06
00
1e
21
20
20
18
04
04
84
78
00
00
00
00
ENDCHAR
STARTCHAR LtCapUAcute
ENCODING 435
SWIDTH 960 0
DWIDTH 8 0
BBX 8 16 0 -4
BITMAP
02
0c
00
21
21
41
42
42
82
84
84
78
00
00
00
00
ENDCHAR
STARTCHAR LtCapWAcute
ENCODING 436
SWIDTH 960 0
DWIDTH 8 0
BBX 8 16 0 -4
BITMAP
02
0c
00
21
21
22
2a
5a
6a
6c
44
44
00
00
00
00
ENDCHAR
STARTCHAR LtCapYAcute
ENCODING 437
SWIDTH 960 0
DWIDTH 8 0
BBX 8 16 0 -4
BITMAP
02
0c
00
21
21
12
12
0c
08
08
10
10
00
00
00
00
ENDCHAR
STARTCHAR LtCapZAcute
ENCODING 438
SWIDTH 960 0
DWIDTH 8 0
BBX 8 16 0 -4
BITMAP
02
0c
00
3f
02
04
08
10
20
40
80
fc
00
00
00
00
ENDCHAR
STARTCHAR LtCapEpsAcute
ENCODING 439
SWIDTH 960 0
DWIDTH 8 0
BBX 8 16 0 -4
BITMAP
01
06
00
0e
11
20
20
18
20
40
44
38
00
00
00
00
ENDCHAR
STARTCHAR LtCapERevAcute
ENCODING 440
SWIDTH 960 0
DWIDTH 8 0
BBX 8 16 0 -4
BITMAP
02
0c
00
3e
02
02
04
3c
04
08
08
f8
00
00
00
00
ENDCHAR
STARTCHAR LtCapCTrndAcute
ENCODING 441
SWIDTH 960 0
DWIDTH 8 0
BBX 8 16 0 -4
BITMAP
01
06
00
1c
22
02
02
02
04
04
88
70
00
00
00
00
ENDCHAR
STARTCHAR LtSmlAAcute
ENCODING 442
SWIDTH 960 0
DWIDTH 8 0
BBX 8 16 0 -4
BITMAP
00
02
02
04
00
1e
22
22
44
44
4c
32
00
00
00
00
ENDCHAR
STARTCHAR LtSmlCAcute
ENCODING 443
SWIDTH 960 0
DWIDTH 8 0
BBX 8 16 0 -4
BITMAP
00
04
04
08
00
1c
22
20
40
40
44
38
00
00
00
00
ENDCHAR
STARTCHAR LtSmlEAcute
ENCODING 444
SWIDTH 960 0
DWIDTH 8 0
BBX 8 16 0 -4
BITMAP
00
04
04
08
00
1c
22
24
78
40
44
38
00
00
00
00
ENDCHAR
STARTCHAR LtSmlGAcute
ENCODING 445
SWIDTH 960 0
DWIDTH 8 0
BBX 8 16 0 -4
BITMAP
00
04
04
08
00
1e
22
22
44
44
4c
34
08
48
70
00
ENDCHAR
STARTCHAR LtSmlIAcute
ENCODING 446
SWIDTH 960 0
DWIDTH 8 0
BBX 8 16 0 -4
BITMAP
00
04
04
08
00
0c
18
08
08
10
12
1c
00
00
00
00
ENDCHAR
STARTCHAR LtSmlKAcute
ENCODING 447
SWIDTH 960 0
DWIDTH 8 0
BBX 8 16 0 -4
BITMAP
02
0c
00
10
10
1e
32
22
3c
48
44
42
00
00
00
00
ENDCHAR
STARTCHAR LtSmlLAcute
ENCODING 448
SWIDTH 960 0
DWIDTH 8 0
BBX 8 16 0 -4
BITMAP
01
06
00
0c
04
04
08
08
08
10
14
18
00
00
00
00
ENDCHAR
STARTCHAR LtSmlMAcute
ENCODING 449
SWIDTH 960 0
DWIDTH 8 0
BBX 8 16 0 -4
BITMAP
00
04
04
08
00
b7
49
49
49
92
92
93
00
00
00
00
ENDCHAR
STARTCHAR LtSmlNAcute
ENCODING 450
SWIDTH 960 0
DWIDTH 8 0
BBX 8 16 0 -4
BITMAP
00
04
04
08
00
6e
32
22
22
44
44
46
00
00
00
00
ENDCHAR
STARTCHAR LtSmlOAcute
ENCODING 451
SWIDTH 960 0
DWIDTH 8 0
BBX 8 16 0 -4
BITMAP
00
02
02
04
00
1c
22
22
42
44
44
38
00
00
00
00
ENDCHAR
STARTCHAR LtSmlPAcute
ENCODING 452
SWIDTH 960 0
DWIDTH 8 0
BBX 8 16 0 -4
BITMAP
00
04
04
08
00
2c
72
22
22
44
44
78
40
80
80
00
ENDCHAR
STARTCHAR LtSmlRAcute
ENCODING 453
SWIDTH 960 0
DWIDTH 8 0
BBX 8 16 0 -4
BITMAP
00
02
02
04
00
16
3a
10
10
20
20
20
00
00
00
00
ENDCHAR
STARTCHAR LtSmlSAcute
ENCODING 454
SWIDTH 960 0
DWIDTH 8 0
BBX 8 16 0 -4
BITMAP
00
02
02
04
00
1c
22
20
18
04
44
38
00
00
00
00
ENDCHAR
STARTCHAR LtSmlUAcute
ENCODING 455
SWIDTH 960 0
DWIDTH 8 0
BBX 8 16 0 -4
BITMAP
00
04
04
08
00
62
22
22
42
44
4c
32
00
00
00
00
ENDCHAR
STARTCHAR LtSmlWAcute
ENCODING 456
SWIDTH 960 0
DWIDTH 8 0
BBX 8 16 0 -4
BITMAP
00
04
04
08
00
61
21
41
49
5a
66
44
00
00
00
00
ENDCHAR
STARTCHAR LtSmlYAcute
ENCODING 457
SWIDTH 960 0
DWIDTH 8 0
BBX 8 16 0 -4
BITMAP
00
04
04
08
00
62
22
22
44
44
4c
34
08
48
70
00
ENDCHAR
STARTCHAR LtSmlZAcute
ENCODING 458
SWIDTH 960 0
DWIDTH 8 0
BBX 8 16 0 -4
BITMAP
00
02
02
04
00
1d
22
04
08
10
20
52
0c
00
00
00
ENDCHAR
STARTCHAR LtSmlEpsAcute
ENCODING 459
SWIDTH 960 0
DWIDTH 8 0
BBX 8 16 0 -4
BITMAP
00
04
04
08
00
1c
22
20
38
40
44
38
00
00
00
00
ENDCHAR
STARTCHAR LtSmlSchwaAcute
ENCODING 460
SWIDTH 960 0
DWIDTH 8 0
BBX 8 16 0 -4
BITMAP
00
04
04
08
00
1c
22
02
3e
42
44
38
00
00
00
00
ENDCHAR
STARTCHAR LtSmlCTrndAcute
ENCODING 461
SWIDTH 960 0
DWIDTH 8 0
BBX 8 16 0 -4
BITMAP
00
04
04
08
00
1c
22
02
02
04
44
38
00
00
00
00
ENDCHAR
STARTCHAR LtCapAEAcute
ENCODING 462
SWIDTH 960 0
DWIDTH 8 0
BBX 8 16 0 -4
BITMAP
01
06
00
0f
0c
18
18
2e
78
50
90
9c
00
00
00
00
ENDCHAR
STARTCHAR LtSmlAEAcute
ENCODING 463
SWIDTH 960 0
DWIDTH 8 0
BBX 8 16 0 -4
BITMAP
00
04
04
08
00
06
19
29
4e
90
92
6c
00
00
00
00
ENDCHAR
STARTCHAR LtCapOStrokeAcute
ENCODING 464
SWIDTH 960 0
DWIDTH 8 0
BBX 8 16 0 -4
BITMAP
02
0c
01
0e
13
25
25
49
52
52
64
38
40
00
00
00
ENDCHAR
STARTCHAR LtSmlOStrokeAcute
ENCODING 465
SWIDTH 960 0
DWIDTH 8 0
BBX 8 16 0 -4
BITMAP
00
04
04
08
02
1c
26
2a
52
54
64
38
40
00
00
00
ENDCHAR
STARTCHAR LtCapOHornAcute
ENCODING 466
SWIDTH 960 0
DWIDTH 8 0
BBX 8 16 0 -4
BITMAP
04
09
01
0e
12
22
22
42
44
44
48
30
00
00
00
00
ENDCHAR
STARTCHAR LtCapUHornAcute
ENCODING 467
SWIDTH 960 0
DWIDTH 8 0
BBX 8 16 0 -4
BITMAP
08
13
01
22
22
42
44
44
84
88
88
70
00
00
00
00
ENDCHAR
STARTCHAR LtSmlOHornAcute
ENCODING 468
SWIDTH 960 0
DWIDTH 8 0
BBX 8 16 0 -4
BITMAP
00
04
04
09
01
1e
22
22
42
44
44
38
00
00
00
00
ENDCHAR
STARTCHAR LtSmlUHornAcute
ENCODING 469
SWIDTH 960 0
DWIDTH 8 0
BBX 8 16 0 -4
BITMAP
00
08
08
13
01
62
22
22
42
44
4c
32
00
00
00
00
ENDCHAR
STARTCHAR LtCapIDrssAcute
ENCODING 470
SWIDTH 960 0
DWIDTH 8 0
BBX 8 16 0 -4
BITMAP
02
04
1b
00
1f
04
08
08
08
10
10
7c
00
00
00
00
ENDCHAR
STARTCHAR LtCapUDrssAcute
ENCODING 471
SWIDTH 960 0
DWIDTH 8 0
BBX 8 16 0 -4
BITMAP
02
04
1b
00
21
41
42
42
82
84
84
78
00
00
00
00
ENDCHAR
STARTCHAR LtSmlIDrssAcute
ENCODING 472
SWIDTH 960 0
DWIDTH 8 0
BBX 8 16 0 -4
BITMAP
01
06
00
1b
00
0c
18
08
08
10
12
1c
00
00
00
00
ENDCHAR
STARTCHAR LtSmlUDrssAcute
ENCODING 473
SWIDTH 960 0
DWIDTH 8 0
BBX 8 16 0 -4
BITMAP
02
0c
00
1b
00
62
22
22
42
44
4c
32
00
00
00
00
ENDCHAR
STARTCHAR LtCapARingAcute
ENCODING 474
SWIDTH 960 0
DWIDTH 8 0
BBX 8 16 0 -4
BITMAP
01
02
0c
12
0c
14
14
24
7c
44
84
84
00
00
00
00
ENDCHAR
STARTCHAR LtSmlARingAcute
ENCODING 475
SWIDTH 960 0
DWIDTH 8 0
BBX 8 16 0 -4
BITMAP
02
04
0c
12
0c
1e
22
22
44
44
4c
32
00
00
00
00
ENDCHAR
STARTCHAR LtCapEMacronAcute
ENCODING 476
SWIDTH 960 0
DWIDTH 8 0
BBX 8 16 0 -4
BITMAP
01
02
0f
00
1f
10
20
3c
20
40
40
7c
00
00
00
00
ENDCHAR
STARTCHAR LtCapOMacronAcute
ENCODING 477
SWIDTH 960 0
DWIDTH 8 0
BBX 8 16 0 -4
BITMAP
01
02
0f
00
0e
11
21
21
42
42
44
38
00
00
00
00
ENDCHAR
STARTCHAR LtSmlAMacronAcute
ENCODING 478
SWIDTH 960 0
DWIDTH 8 0
BBX 8 16 0 -4
BITMAP
01
06
00
1e
00
1e
22
22
44
44
4c
32
00
00
00
00
ENDCHAR
STARTCHAR LtSmlEMacronAcute
ENCODING 479
SWIDTH 960 0
DWIDTH 8 0
BBX 8 16 0 -4
BITMAP
01
06
00
1e
00
1c
22
24
78
40
44
38
00
00
00
00
ENDCHAR
STARTCHAR LtSmlIMacronAcute
ENCODING 480
SWIDTH 960 0
DWIDTH 8 0
BBX 8 16 0 -4
BITMAP
01
06
00
1e
00
0c
18
08
08
10
12
1c
00
00
00
00
ENDCHAR
STARTCHAR LtSmlOMacronAcute
ENCODING 481
SWIDTH 960 0
DWIDTH 8 0
BBX 8 16 0 -4
BITMAP
01
06
00
1e
00
1c
22
22
42
44
44
38
00
00
00
00
ENDCHAR
STARTCHAR LtSmlUMacronAcute
ENCODING 482
SWIDTH 960 0
DWIDTH 8 0
BBX 8 16 0 -4
BITMAP
01
06
00
1e
00
62
22
22
42
44
4c
32
00
00
00
00
ENDCHAR
STARTCHAR LtCapACircumAcute
ENCODING 483
SWIDTH 960 0
DWIDTH 8 0
BBX 8 16 0 -4
BITMAP
01
0a
14
00
0c
0c
14
24
3c
44
84
84
00
00
00
00
ENDCHAR
STARTCHAR LtCapECircumAcute
ENCODING 484
SWIDTH 960 0
DWIDTH 8 0
BBX 8 16 0 -4
BITMAP
01
0a
14
00
1f
10
20
3c
20
40
40
7c
00
00
00
00
ENDCHAR
STARTCHAR LtCapOCircumAcute
ENCODING 485
SWIDTH 960 0
DWIDTH 8 0
BBX 8 16 0 -4
BITMAP
01
0a
14
00
0e
11
21
21
42
42
44
38
00
00
00
00
ENDCHAR
STARTCHAR LtSmlACircumAcute
ENCODING 486
SWIDTH 960 0
DWIDTH 8 0
BBX 8 16 0 -4
BITMAP
01
02
0c
12
00
1e
22
22
44
44
4c
32
00
00
00
00
ENDCHAR
STARTCHAR LtSmlECircumAcute
ENCODING 487
SWIDTH 960 0
DWIDTH 8 0
BBX 8 16 0 -4
BITMAP
01
02
0c
12
00
1c
22
24
78
40
44
38
00
00
00
00
ENDCHAR
STARTCHAR LtSmlOCircumAcute
ENCODING 488
SWIDTH 960 0
DWIDTH 8 0
BBX 8 16 0 -4
BITMAP
01
02
0c
12
00
1c
22
22
42
44
44
38
00
00
00
00
ENDCHAR
STARTCHAR LtCapABreveAcute
ENCODING 489
SWIDTH 960 0
DWIDTH 8 0
BBX 8 16 0 -4
BITMAP
02
04
11
0e
04
0c
14
24
3c
44
84
84
00
00
00
00
ENDCHAR
STARTCHAR LtSmlABreveAcute
ENCODING 490
SWIDTH 960 0
DWIDTH 8 0
BBX 8 16 0 -4
BITMAP
02
04
11
0e
00
1e
22
22
44
44
4c
32
00
00
00
00
ENDCHAR
STARTCHAR LtCapOTildeAcute
ENCODING 491
SWIDTH 960 0
DWIDTH 8 0
BBX 8 16 0 -4
BITMAP
04
09
16
00
0e
11
21
21
42
42
44
38
00
00
00
00
ENDCHAR
STARTCHAR LtCapUTildeAcute
ENCODING 492
SWIDTH 960 0
DWIDTH 8 0
BBX 8 16 0 -4
BITMAP
04
09
16
00
21
41
42
42
82
84
84
78
00
00
00
00
ENDCHAR
STARTCHAR LtSmlOTildeAcute
ENCODING 493
SWIDTH 960 0
DWIDTH 8 0
BBX 8 16 0 -4
BITMAP
02
04
09
16
00
1c
22
22
42
44
44
38
00
00
00
00
ENDCHAR
STARTCHAR LtSmlUTildeAcute
ENCODING 494
SWIDTH 960 0
DWIDTH 8 0
BBX 8 16 0 -4
BITMAP
04
08
12
2c
00
62
22
22
42
44
4c
32
00
00
00
00
ENDCHAR
STARTCHAR LtCapOAcute2
ENCODING 495
SWIDTH 960 0
DWIDTH 8 0
BBX 8 16 0 -4
BITMAP
09
12
00
0e
11
21
21
41
42
42
44
38
00
00
00
00
ENDCHAR
STARTCHAR LtCapUAcute2
ENCODING 496
SWIDTH 960 0
DWIDTH 8 0
BBX 8 16 0 -4
BITMAP
09
12
00
21
21
41
42
42
82
84
84
78
00
00
00
00
ENDCHAR
STARTCHAR LtSmlOAcute2
ENCODING 497
SWIDTH 960 0
DWIDTH 8 0
BBX 8 16 0 -4
BITMAP
00
0a
0a
14
00
1c
22
22
42
44
44
38
00
00
00
00
ENDCHAR
STARTCHAR LtSmlUAcute2
ENCODING 498
SWIDTH 960 0
DWIDTH 8 0
BBX 8 16 0 -4
BITMAP
00
0a
0a
14
00
62
22
22
42
44
4c
32
00
00
00
00
ENDCHAR
STARTCHAR LtCapAGrave
ENCODING 499
SWIDTH 960 0
DWIDTH 8 0
BBX 8 16 0 -4
BITMAP
10
0c
00
0c
0c
14
14
24
7c
44
84
84
00
00
00
00
ENDCHAR
STARTCHAR LtCapEGrave
ENCODING 500
SWIDTH 960 0
DWIDTH 8 0
BBX 8 16 0 -4
BITMAP
08
06
00
1f
10
10
20
3c
20
40
40
7c
00
00
00
00
ENDCHAR
STARTCHAR LtCapIGrave
ENCODING 501
SWIDTH 960 0
DWIDTH 8 0
BBX 8 16 0 -4
BITMAP
08
06
00
1f
04
04
08
08
08
10
10
7c
00
00
00
00
ENDCHAR
STARTCHAR LtCapNGrave
ENCODING 502
SWIDTH 960 0
DWIDTH 8 0
BBX 8 16 0 -4
BITMAP
08
06
00
21
21
31
52
4a
4a
8c
84
84
00
00
00
00
ENDCHAR
STARTCHAR LtCapOGrave
ENCODING 503
SWIDTH 960 0
DWIDTH 8 0
BBX 8 16 0 -4
BITMAP
08
06
00
0e
11
21
21
41
42
42
44
38
00
00
00
00
ENDCHAR
STARTCHAR LtCapUGrave
ENCODING 504
SWIDTH 960 0
DWIDTH 8 0
BBX 8 16 0 -4
BITMAP
08
06
00
21
21
41
42
42
82
84
84
78
00
00
00
00
ENDCHAR
STARTCHAR LtCapWGrave
ENCODING 505
SWIDTH 960 0
DWIDTH 8 0
BBX 8 16 0 -4
BITMAP
10
0c
00
21
21
22
2a
5a
6a
6c
44
44
00
00
00
00
ENDCHAR
STARTCHAR LtCapYGrave
ENCODING 506
SWIDTH 960 0
DWIDTH 8 0
BBX 8 16 0 -4
BITMAP
10
0c
00
21
21
12
12
0c
08
08
10
10
00
00
00
00
ENDCHAR
STARTCHAR LtCapEpsGrave
ENCODING 507
SWIDTH 960 0
DWIDTH 8 0
BBX 8 16 0 -4
BITMAP
08
06
00
0e
11
20
20
18
20
40
44
38
00
00
00
00
ENDCHAR
STARTCHAR LtCapCTrndGrave
ENCODING 508
SWIDTH 960 0
DWIDTH 8 0
BBX 8 16 0 -4
BITMAP
08
06
00
1c
22
02
02
02
04
04
88
70
00
00
00
00
ENDCHAR
STARTCHAR LtSmlAGrave
ENCODING 509
SWIDTH 960 0
DWIDTH 8 0
BBX 8 16 0 -4
BITMAP
00
08
08
04
00
1e
22
22
44
44
4c
32
00
00
00
00
ENDCHAR
STARTCHAR LtSmlEGrave
ENCODING 510
SWIDTH 960 0
DWIDTH 8 0
BBX 8 16 0 -4
BITMAP
00
08
08
04
00
1c
22
24
78
40
44
38
00
00
00
00
ENDCHAR
STARTCHAR LtSmlIGrave
ENCODING 511
SWIDTH 960 0
DWIDTH 8 0
BBX 8 16 0 -4
BITMAP
00
08
08
04
00
0c
18
08
08
10
12
1c
00
00
00
00
ENDCHAR
STARTCHAR LtSmlNGrave
ENCODING 512
SWIDTH 960 0
DWIDTH 8 0
BBX 8 16 0 -4
BITMAP
00
08
08
04
00
6e
32
22
22
44
44
46
00
00
00
00
ENDCHAR
STARTCHAR LtSmlOGrave
ENCODING 513
SWIDTH 960 0
DWIDTH 8 0
BBX 8 16 0 -4
BITMAP
00
08
08
04
00
1c
22
22
42
44
44
38
00
00
00
00
ENDCHAR
STARTCHAR LtSmlUGrave
ENCODING 514
SWIDTH 960 0
DWIDTH 8 0
BBX 8 16 0 -4
BITMAP
00
08
08
04
00
62
22
22
42
44
4c
32
00
00
00
00
ENDCHAR
STARTCHAR LtSmlWGrave
ENCODING 515
SWIDTH 960 0
DWIDTH 8 0
BBX 8 16 0 -4
BITMAP
00
08
08
04
00
61
21
41
49
5a
66
44
00
00
00
00
ENDCHAR
STARTCHAR LtSmlYGrave
ENCODING 516
SWIDTH 960 0
DWIDTH 8 0
BBX 8 16 0 -4
BITMAP
00
08
08
04
00
62
22
22
44
44
4c
34
08
48
70
00
ENDCHAR
STARTCHAR LtSmlEpsGrave
ENCODING 517
SWIDTH 960 0
DWIDTH 8 0
BBX 8 16 0 -4
BITMAP
00
08
08
04
00
1c
22
20
38
40
44
38
00
00
00
00
ENDCHAR
STARTCHAR LtSmlCTrndGrave
ENCODING 518
SWIDTH 960 0
DWIDTH 8 0
BBX 8 16 0 -4
BITMAP
00
08
08
04
00
1c
22
02
02
04
44
38
00
00
00
00
ENDCHAR
STARTCHAR LtCapOHornGrave
ENCODING 519
SWIDTH 960 0
DWIDTH 8 0
BBX 8 16 0 -4
BITMAP
08
05
01
0e
12
22
22
42
44
44
48
30
00
00
00
00
ENDCHAR
STARTCHAR LtCapUHornGrave
ENCODING 520
SWIDTH 960 0
DWIDTH 8 0
BBX 8 16 0 -4
BITMAP
10
0b
01
22
22
42
44
44
84
88
88
70
00
00
00
00
ENDCHAR
STARTCHAR LtSmlOHornGrave
ENCODING 521
SWIDTH 960 0
DWIDTH 8 0
BBX 8 16 0 -4
BITMAP
00
08
08
05
01
1e
22
22
42
44
44
38
00
00
00
00
ENDCHAR
STARTCHAR LtSmlUHornGrave
ENCODING 522
SWIDTH 960 0
DWIDTH 8 0
BBX 8 16 0 -4
BITMAP
00
10
10
0b
01
62
22
22
42
44
4c
32
00
00
00
00
ENDCHAR
STARTCHAR LtCapUDrssGrave
ENCODING 523
SWIDTH 960 0
DWIDTH 8 0
BBX 8 16 0 -4
BITMAP
08
04
1b
00
21
41
42
42
82
84
84
78
00
00
00
00
ENDCHAR
STARTCHAR LtSmlUDrssGrave
ENCODING 524
SWIDTH 960 0
DWIDTH 8 0
BBX 8 16 0 -4
BITMAP
08
06
00
1b
00
62
22
22
42
44
4c
32
00
00
00
00
ENDCHAR
STARTCHAR LtCapEMacronGrave
ENCODING 525
SWIDTH 960 0
DWIDTH 8 0
BBX 8 16 0 -4
BITMAP
08
04
0f
00
1f
10
20
3c
20
40
40
7c
00
00
00
00
ENDCHAR
STARTCHAR LtCapOMacronGrave
ENCODING 526
SWIDTH 960 0
DWIDTH 8 0
BBX 8 16 0 -4
BITMAP
08
04
0f
00
0e
11
21
21
42
42
44
38
00
00
00
00
ENDCHAR
STARTCHAR LtSmlAMacronGrave
ENCODING 527
SWIDTH 960 0
DWIDTH 8 0
BBX 8 16 0 -4
BITMAP
08
06
00
1e
00
1e
22
22
44
44
4c
32
00
00
00
00
ENDCHAR
STARTCHAR LtSmlEMacronGrave
ENCODING 528
SWIDTH 960 0
DWIDTH 8 0
BBX 8 16 0 -4
BITMAP
10
0c
00
1e
00
1c
22
24
78
40
44
38
00
00
00
00
ENDCHAR
STARTCHAR LtSmlIMacronGrave
ENCODING 529
SWIDTH 960 0
DWIDTH 8 0
BBX 8 16 0 -4
BITMAP
08
06
00
1e
00
0c
18
08
08
10
12
1c
00
00
00
00
ENDCHAR
STARTCHAR LtSmlOMacronGrave
ENCODING 530
SWIDTH 960 0
DWIDTH 8 0
BBX 8 16 0 -4
BITMAP
10
0c
00
1e
00
1c
22
22
42
44
44
38
00
00
00
00
ENDCHAR
STARTCHAR LtSmlUMacronGrave
ENCODING 531
SWIDTH 960 0
DWIDTH 8 0
BBX 8 16 0 -4
BITMAP
10
0c
00
1e
00
62
22
22
42
44
4c
32
00
00
00
00
ENDCHAR
STARTCHAR LtCapACircumGrave
ENCODING 532
SWIDTH 960 0
DWIDTH 8 0
BBX 8 16 0 -4
BITMAP
20
14
0a
00
0c
0c
14
24
3c
44
84
84
00
00
00
00
ENDCHAR
STARTCHAR LtCapECircumGrave
ENCODING 533
SWIDTH 960 0
DWIDTH 8 0
BBX 8 16 0 -4
BITMAP
20
14
0a
00
1f
10
20
3c
20
40
40
7c
00
00
00
00
ENDCHAR
STARTCHAR LtCapOCircumGrave
ENCODING 534
SWIDTH 960 0
DWIDTH 8 0
BBX 8 16 0 -4
BITMAP
20
14
0a
00
0e
11
21
21
42
42
44
38
00
00
00
00
ENDCHAR
STARTCHAR LtSmlACircumGrave
ENCODING 535
SWIDTH 960 0
DWIDTH 8 0
BBX 8 16 0 -4
BITMAP
20
10
0c
12
00
1e
22
22
44
44
4c
32
00
00
00
00
ENDCHAR
STARTCHAR LtSmlECircumGrave
ENCODING 536
SWIDTH 960 0
DWIDTH 8 0
BBX 8 16 0 -4
BITMAP
20
10
0c
12
00
1c
22
24
78
40
44
38
00
00
00
00
ENDCHAR
STARTCHAR LtSmlOCircumGrave
ENCODING 537
SWIDTH 960 0
DWIDTH 8 0
BBX 8 16 0 -4
BITMAP
20
10
0c
12
00
1c
22
22
42
44
44
38
00
00
00
00
ENDCHAR
STARTCHAR LtCapABreveGrave
ENCODING 538
SWIDTH 960 0
DWIDTH 8 0
BBX 8 16 0 -4
BITMAP
08
04
11
0e
04
0c
14
24
3c
44
84
84
00
00
00
00
ENDCHAR
STARTCHAR LtSmlABreveGrave
ENCODING 539
SWIDTH 960 0
DWIDTH 8 0
BBX 8 16 0 -4
BITMAP
08
04
11
0e
00
1e
22
22
44
44
4c
32
00
00
00
00
ENDCHAR
STARTCHAR LtCapAGrave2
ENCODING 540
SWIDTH 960 0
DWIDTH 8 0
BBX 8 16 0 -4
BITMAP
24
12
00
0c
0c
14
14
24
7c
44
84
84
00
00
00
00
ENDCHAR
STARTCHAR LtCapEGrave2
ENCODING 541
SWIDTH 960 0
DWIDTH 8 0
BBX 8 16 0 -4
BITMAP
12
09
00
1f
10
10
20
3c
20
40
40
7c
00
00
00
00
ENDCHAR
STARTCHAR LtCapIGrave2
ENCODING 542
SWIDTH 960 0
DWIDTH 8 0
BBX 8 16 0 -4
BITMAP
12
09
00
1f
04
04
08
08
08
10
10
7c
00
00
00
00
ENDCHAR
STARTCHAR LtCapOGrave2
ENCODING 543
SWIDTH 960 0
DWIDTH 8 0
BBX 8 16 0 -4
BITMAP
12
09
00
0e
11
21
21
41
42
42
44
38
00
00
00
00
ENDCHAR
STARTCHAR LtCapRGrave2
ENCODING 544
SWIDTH 960 0
DWIDTH 8 0
BBX 8 16 0 -4
BITMAP
12
09
00
1e
11
11
22
3c
28
48
44
44
00
00
00
00
ENDCHAR
STARTCHAR LtCapUGrave2
ENCODING 545
SWIDTH 960 0
DWIDTH 8 0
BBX 8 16 0 -4
BITMAP
12
09
00
21
21
41
42
42
82
84
84
78
00
00
00
00
ENDCHAR
STARTCHAR LtSmlAGrave2
ENCODING 546
SWIDTH 960 0
DWIDTH 8 0
BBX 8 16 0 -4
BITMAP
00
14
14
0a
00
1e
22
22
44
44
4c
32
00
00
00
00
ENDCHAR
STARTCHAR LtSmlEGrave2
ENCODING 547
SWIDTH 960 0
DWIDTH 8 0
BBX 8 16 0 -4
BITMAP
00
28
28
14
00
1c
22
24
78
40
44
38
00
00
00
00
ENDCHAR
STARTCHAR LtSmlIGrave2
ENCODING 548
SWIDTH 960 0
DWIDTH 8 0
BBX 8 16 0 -4
BITMAP
00
14
14
0a
00
0c
18
08
08
10
12
1c
00
00
00
00
ENDCHAR
STARTCHAR LtSmlOGrave2
ENCODING 549
SWIDTH 960 0
DWIDTH 8 0
BBX 8 16 0 -4
BITMAP
00
28
28
14
00
1c
22
22
42
44
44
38
00
00
00
00
ENDCHAR
STARTCHAR LtSmlRGrave2
ENCODING 550
SWIDTH 960 0
DWIDTH 8 0
BBX 8 16 0 -4
BITMAP
00
14
14
0a
00
16
3a
10
10
20
20
20
00
00
00
00
ENDCHAR
STARTCHAR LtSmlUGrave2
ENCODING 551
SWIDTH 960 0
DWIDTH 8 0
BBX 8 16 0 -4
BITMAP
00
28
28
14
00
62
22
22
42
44
4c
32
00
00
00
00
ENDCHAR
STARTCHAR LtCapACircum
ENCODING 552
SWIDTH 960 0
DWIDTH 8 0
BBX 8 16 0 -4
BITMAP
0c
12
00
0c
0c
14
14
24
7c
44
84
84
00
00
00
00
ENDCHAR
STARTCHAR LtCapCCircum
ENCODING 553
SWIDTH 960 0
DWIDTH 8 0
BBX 8 16 0 -4
BITMAP
06
09
00
0e
11
20
20
40
40
40
44
38
00
00
00
00
ENDCHAR
STARTCHAR LtCapECircum
ENCODING 554
SWIDTH 960 0
DWIDTH 8 0
BBX 8 16 0 -4
BITMAP
06
09
00
1f
10
10
20
3c
20
40
40
7c
00
00
00
00
ENDCHAR
STARTCHAR LtCapGCircum
ENCODING 555
SWIDTH 960 0
DWIDTH 8 0
BBX 8 16 0 -4
BITMAP
06
09
00
0e
11
20
20
4e
42
44
44
3c
00
00
00
00
ENDCHAR
STARTCHAR LtCapHCircum
ENCODING 556
SWIDTH 960 0
DWIDTH 8 0
BBX 8 16 0 -4
BITMAP
0c
12
00
21
21
21
42
7e
42
84
84
84
00
00
00
00
ENDCHAR
STARTCHAR LtCapICircum
ENCODING 557
SWIDTH 960 0
DWIDTH 8 0
BBX 8 16 0 -4
BITMAP
06
09
00
1f
04
04
08
08
08
10
10
7c
00
00
00
00
ENDCHAR
STARTCHAR LtCapJCircum
ENCODING 558
SWIDTH 960 0
DWIDTH 8 0
BBX 8 16 0 -4
BITMAP
06
09
00
07
02
02
04
04
04
88
88
70
00
00
00
00
ENDCHAR
STARTCHAR LtCapNCircum
ENCODING 559
SWIDTH 960 0
DWIDTH 8 0
BBX 8 16 0 -4
BITMAP
0c
12
00
21
21
31
52
4a
4a
8c
84
84
00
00
00
00
ENDCHAR
STARTCHAR LtCapOCircum
ENCODING 560
SWIDTH 960 0
DWIDTH 8 0
BBX 8 16 0 -4
BITMAP
06
09
00
0e
11
21
21
41
42
42
44
38
00
00
00
00
ENDCHAR
STARTCHAR LtCapSCircum
ENCODING 561
SWIDTH 960 0
DWIDTH 8 0
BBX 8 16 0 -4
BITMAP
06
09
00
1e
21
20
20
18
04
04
84
78
00
00
00
00
ENDCHAR
STARTCHAR LtCapUCircum
ENCODING 562
SWIDTH 960 0
DWIDTH 8 0
BBX 8 16 0 -4
BITMAP
0c
12
00
21
21
41
42
42
82
84
84
78
00
00
00
00
ENDCHAR
STARTCHAR LtCapWCircum
ENCODING 563
SWIDTH 960 0
DWIDTH 8 0
BBX 8 16 0 -4
BITMAP
0c
12
00
21
21
22
2a
5a
6a
6c
44
44
00
00
00
00
ENDCHAR
STARTCHAR LtCapYCircum
ENCODING 564
SWIDTH 960 0
DWIDTH 8 0
BBX 8 16 0 -4
BITMAP
0c
12
00
21
21
12
12
0c
08
08
10
10
00
00
00
00
ENDCHAR
STARTCHAR LtCapZCircum
ENCODING 565
SWIDTH 960 0
DWIDTH 8 0
BBX 8 16 0 -4
BITMAP
06
09
00
3f
02
04
08
10
20
40
80
fc
00
00
00
00
ENDCHAR
STARTCHAR LtCapEpsCircum
ENCODING 566
SWIDTH 960 0
DWIDTH 8 0
BBX 8 16 0 -4
BITMAP
06
09
00
0e
11
20
20
18
20
40
44
38
00
00
00
00
ENDCHAR
STARTCHAR LtCapCTrndCircum
ENCODING 567
SWIDTH 960 0
DWIDTH 8 0
BBX 8 16 0 -4
BITMAP
0c
12
00
1c
22
02
02
02
04
04
88
70
00
00
00
00
ENDCHAR
STARTCHAR LtSmlACircum
ENCODING 568
SWIDTH 960 0
DWIDTH 8 0
BBX 8 16 0 -4
BITMAP
00
00
0c
12
00
1e
22
22
44
44
4c
32
00
00
00
00
ENDCHAR
STARTCHAR LtSmlCCircum
ENCODING 569
SWIDTH 960 0
DWIDTH 8 0
BBX 8 16 0 -4
BITMAP
00
00
0c
12
00
1c
22
20
40
40
44
38
00
00
00
00
ENDCHAR
STARTCHAR LtSmlECircum
ENCODING 570
SWIDTH 960 0
DWIDTH 8 0
BBX 8 16 0 -4
BITMAP
00
00
0c
12
00
1c
22
24
78
40
44
38
00
00
00
00
ENDCHAR
STARTCHAR LtSmlGCircum
ENCODING 571
SWIDTH 960 0
DWIDTH 8 0
BBX 8 16 0 -4
BITMAP
00
00
0c
12
00
1e
22
22
44
44
4c
34
08
48
70
00
ENDCHAR
STARTCHAR LtSmlHCircum
ENCODING 572
SWIDTH 960 0
DWIDTH 8 0
BBX 8 16 0 -4
BITMAP
06
09
20
10
10
2e
32
22
22
44
44
46
00
00
00
00
ENDCHAR
STARTCHAR LtSmlICircum
ENCODING 573
SWIDTH 960 0
DWIDTH 8 0
BBX 8 16 0 -4
BITMAP
00
00
0c
12
00
0c
18
08
08
10
12
1c
00
00
00
00
ENDCHAR
STARTCHAR LtSmlJCircum
ENCODING 574
SWIDTH 960 0
DWIDTH 8 0
BBX 8 16 0 -4
BITMAP
00
00
0c
12
00
0c
18
08
08
08
10
10
10
20
c0
00
ENDCHAR
STARTCHAR LtSmlNCircum
ENCODING 575
SWIDTH 960 0
DWIDTH 8 0
BBX 8 16 0 -4
BITMAP
00
00
0c
12
00
6e
32
22
22
44
44
46
00
00
00
00
ENDCHAR
STARTCHAR LtSmlOCircum
ENCODING 576
SWIDTH 960 0
DWIDTH 8 0
BBX 8 16 0 -4
BITMAP
00
00
0c
12
00
1c
22
22
42
44
44
38
00
00
00
00
ENDCHAR
STARTCHAR LtSmlSCircum
ENCODING 577
SWIDTH 960 0
DWIDTH 8 0
BBX 8 16 0 -4
BITMAP
00
00
0c
12
00
1c
22
20
18
04
44
38
00
00
00
00
ENDCHAR
STARTCHAR LtSmlUCircum
ENCODING 578
SWIDTH 960 0
DWIDTH 8 0
BBX 8 16 0 -4
BITMAP
00
00
0c
12
00
62
22
22
42
44
4c
32
00
00
00
00
ENDCHAR
STARTCHAR LtSmlWCircum
ENCODING 579
SWIDTH 960 0
DWIDTH 8 0
BBX 8 16 0 -4
BITMAP
00
00
0c
12
00
61
21
41
49
5a
66
44
00
00
00
00
ENDCHAR
STARTCHAR LtSmlYCircum
ENCODING 580
SWIDTH 960 0
DWIDTH 8 0
BBX 8 16 0 -4
BITMAP
00
00
0c
12
00
62
22
22
44
44
4c
34
08
48
70
00
ENDCHAR
STARTCHAR LtSmlZCircum
ENCODING 581
SWIDTH 960 0
DWIDTH 8 0
BBX 8 16 0 -4
BITMAP
00
00
06
09
00
1d
22
04
08
10
20
52
0c
00
00
00
ENDCHAR
STARTCHAR LtSmlEpsCircum
ENCODING 582
SWIDTH 960 0
DWIDTH 8 0
BBX 8 16 0 -4
BITMAP
00
00
0c
12
00
1c
22
20
38
40
44
38
00
00
00
00
ENDCHAR
STARTCHAR LtSmlCTrndCircum
ENCODING 583
SWIDTH 960 0
DWIDTH 8 0
BBX 8 16 0 -4
BITMAP
00
00
0c
12
00
1c
22
02
02
04
44
38
00
00
00
00
ENDCHAR
STARTCHAR LtCapACaron
ENCODING 584
SWIDTH 960 0
DWIDTH 8 0
BBX 8 16 0 -4
BITMAP
09
06
00
0c
0c
14
14
24
7c
44
84
84
00
00
00
00
ENDCHAR
STARTCHAR LtCapCCaron
ENCODING 585
SWIDTH 960 0
DWIDTH 8 0
BBX 8 16 0 -4
BITMAP
09
06
00
0e
11
20
20
40
40
40
44
38
00
00
00
00
ENDCHAR
STARTCHAR LtCapDCaron
ENCODING 586
SWIDTH 960 0
DWIDTH 8 0
BBX 8 16 0 -4
BITMAP
12
0c
00
3c
22
22
42
42
44
84
88
f0
00
00
00
00
ENDCHAR
STARTCHAR LtCapECaron
ENCODING 587
SWIDTH 960 0
DWIDTH 8 0
BBX 8 16 0 -4
BITMAP
09
06
00
1f
10
10
20
3c
20
40
40
7c
00
00
00
00
ENDCHAR
STARTCHAR LtCapGCaron
ENCODING 588
SWIDTH 960 0
DWIDTH 8 0
BBX 8 16 0 -4
BITMAP
09
06
00
0e
11
20
20
4e
42
44
44
3c
00
00
00
00
ENDCHAR
STARTCHAR LtCapHCaron
ENCODING 589
SWIDTH 960 0
DWIDTH 8 0
BBX 8 16 0 -4
BITMAP
09
06
00
21
21
21
42
7e
42
84
84
84
00
00
00
00
ENDCHAR
STARTCHAR LtCapICaron
ENCODING 590
SWIDTH 960 0
DWIDTH 8 0
BBX 8 16 0 -4
BITMAP
09
06
00
1f
04
04
08
08
08
10
10
7c
00
00
00
00
ENDCHAR
STARTCHAR LtCapJCaron
ENCODING 591
SWIDTH 960 0
DWIDTH 8 0
BBX 8 16 0 -4
BITMAP
09
06
00
07
02
02
04
04
04
88
88
70
00
00
00
00
ENDCHAR
STARTCHAR LtCapKCaron
ENCODING 592
SWIDTH 960 0
DWIDTH 8 0
BBX 8 16 0 -4
BITMAP
09
06
00
21
22
24
48
70
50
88
84
84
00
00
00
00
ENDCHAR
STARTCHAR LtCapLCaron
ENCODING 593
SWIDTH 960 0
DWIDTH 8 0
BBX 8 16 0 -4
BITMAP
00
01
11
11
12
20
20
20
20
40
40
7c
00
00
00
00
ENDCHAR
STARTCHAR LtCapNCaron
ENCODING 594
SWIDTH 960 0
DWIDTH 8 0
BBX 8 16 0 -4
BITMAP
09
06
00
21
21
31
52
4a
4a
8c
84
84
00
00
00
00
ENDCHAR
STARTCHAR LtCapOCaron
ENCODING 595
SWIDTH 960 0
DWIDTH 8 0
BBX 8 16 0 -4
BITMAP
09
06
00
0e
11
21
21
41
42
42
44
38
00
00
00
00
ENDCHAR
STARTCHAR LtCapRCaron
ENCODING 596
SWIDTH 960 0
DWIDTH 8 0
BBX 8 16 0 -4
BITMAP
09
06
00
1e
11
11
22
3c
28
48
44
44
00
00
00
00
ENDCHAR
STARTCHAR LtCapSCaron
ENCODING 597
SWIDTH 960 0
DWIDTH 8 0
BBX 8 16 0 -4
BITMAP
09
06
00
1e
21
20
20
18
04
04
84
78
00
00
00
00
ENDCHAR
STARTCHAR LtCapTCaron
ENCODING 598
SWIDTH 960 0
DWIDTH 8 0
BBX 8 16 0 -4
BITMAP
12
0c
00
7f
08
08
10
10
10
20
20
20
00
00
00
00
ENDCHAR
STARTCHAR LtCapUCaron
ENCODING 599
SWIDTH 960 0
DWIDTH 8 0
BBX 8 16 0 -4
BITMAP
09
06
00
21
21
41
42
42
82
84
84
78
00
00
00
00
ENDCHAR
STARTCHAR LtCapZCaron
ENCODING 600
SWIDTH 960 0
DWIDTH 8 0
BBX 8 16 0 -4
BITMAP
12
0c
00
3f
02
04
08
10
20
40
80
fc
00
00
00
00
ENDCHAR
STARTCHAR LtCapEpsCaron
ENCODING 601
SWIDTH 960 0
DWIDTH 8 0
BBX 8 16 0 -4
BITMAP
09
06
00
0e
11
20
20
18
20
40
44
38
00
00
00
00
ENDCHAR
STARTCHAR LtCapEzhCaron
ENCODING 602
SWIDTH 960 0
DWIDTH 8 0
BBX 8 16 0 -4
BITMAP
09
06
00
3f
01
02
04
0c
02
02
84
78
00
00
00
00
ENDCHAR
STARTCHAR LtCapCTrndCaron
ENCODING 603
SWIDTH 960 0
DWIDTH 8 0
BBX 8 16 0 -4
BITMAP
12
0c
00
1c
22
02
02
02
04
04
88
70
00
00
00
00
ENDCHAR
STARTCHAR LtSmlACaron
ENCODING 604
SWIDTH 960 0
DWIDTH 8 0
BBX 8 16 0 -4
BITMAP
00
00
12
0c
00
1e
22
22
44
44
4c
32
00
00
00
00
ENDCHAR
STARTCHAR LtSmlCCaron
ENCODING 605
SWIDTH 960 0
DWIDTH 8 0
BBX 8 16 0 -4
BITMAP
00
00
12
0c
00
1c
22
20
40
40
44
38
00
00
00
00
ENDCHAR
STARTCHAR LtSmlDCaron
ENCODING 606
SWIDTH 960 0
DWIDTH 8 0
BBX 8 16 0 -4
BITMAP
00
01
05
05
0a
38
48
48
90
90
90
68
00
00
00
00
ENDCHAR
STARTCHAR LtSmlECaron
ENCODING 607
SWIDTH 960 0
DWIDTH 8 0
BBX 8 16 0 -4
BITMAP
00
00
12
0c
00
1c
22
24
78
40
44
38
00
00
00
00
ENDCHAR
STARTCHAR LtSmlGCaron
ENCODING 608
SWIDTH 960 0
DWIDTH 8 0
BBX 8 16 0 -4
BITMAP
00
00
12
0c
00
1e
22
22
44
44
4c
34
08
48
70
00
ENDCHAR
STARTCHAR LtSmlHCaron
ENCODING 609
SWIDTH 960 0
DWIDTH 8 0
BBX 8 16 0 -4
BITMAP
09
06
20
10
10
2e
32
22
22
44
44
46
00
00
00
00
ENDCHAR
STARTCHAR LtSmlICaron
ENCODING 610
SWIDTH 960 0
DWIDTH 8 0
BBX 8 16 0 -4
BITMAP
00
00
12
0c
00
0c
18
08
08
10
12
1c
00
00
00
00
ENDCHAR
STARTCHAR LtSmlJCaron
ENCODING 611
SWIDTH 960 0
DWIDTH 8 0
BBX 8 16 0 -4
BITMAP
00
00
12
0c
00
0c
18
08
08
08
10
10
10
20
c0
00
ENDCHAR
STARTCHAR LtSmlKCaron
ENCODING 612
SWIDTH 960 0
DWIDTH 8 0
BBX 8 16 0 -4
BITMAP
09
06
00
10
10
1e
32
22
3c
48
44
42
00
00
00
00
ENDCHAR
STARTCHAR LtSmlLCaron
ENCODING 613
SWIDTH 960 0
DWIDTH 8 0
BBX 8 16 0 -4
BITMAP
00
01
19
09
0a
10
10
10
10
20
28
30
00
00
00
00
ENDCHAR
STARTCHAR LtSmlNCaron
ENCODING 614
SWIDTH 960 0
DWIDTH 8 0
BBX 8 16 0 -4
BITMAP
00
00
12
0c
00
6e
32
22
22
44
44
46
00
00
00
00
ENDCHAR
STARTCHAR LtSmlOCaron
ENCODING 615
SWIDTH 960 0
DWIDTH 8 0
BBX 8 16 0 -4
BITMAP
00
00
12
0c
00
1c
22
22
42
44
44
38
00
00
00
00
ENDCHAR
STARTCHAR LtSmlRCaron
ENCODING 616
SWIDTH 960 0
DWIDTH 8 0
BBX 8 16 0 -4
BITMAP
00
00
12
0c
00
16
3a
10
10
20
20
20
00
00
00
00
ENDCHAR
STARTCHAR LtSmlSCaron
ENCODING 617
SWIDTH 960 0
DWIDTH 8 0
BBX 8 16 0 -4
BITMAP
00
00
12
0c
00
1c
22
20
18
04
44
38
00
00
00
00
ENDCHAR
STARTCHAR LtSmlTCaron
ENCODING 618
SWIDTH 960 0
DWIDTH 8 0
BBX 8 16 0 -4
BITMAP
00
01
01
09
0a
3c
08
10
10
10
24
18
00
00
00
00
ENDCHAR
STARTCHAR LtSmlUCaron
ENCODING 619
SWIDTH 960 0
DWIDTH 8 0
BBX 8 16 0 -4
BITMAP
00
00
12
0c
00
62
22
22
42
44
4c
32
00
00
00
00
ENDCHAR
STARTCHAR LtSmlZCaron
ENCODING 620
SWIDTH 960 0
DWIDTH 8 0
BBX 8 16 0 -4
BITMAP
00
00
09
06
00
1d
22
04
08
10
20
52
0c
00
00
00
ENDCHAR
STARTCHAR LtSmlEpsCaron
ENCODING 621
SWIDTH 960 0
DWIDTH 8 0
BBX 8 16 0 -4
BITMAP
00
00
12
0c
00
1c
22
20
38
40
44
38
00
00
00
00
ENDCHAR
STARTCHAR LtSmlEzhCaron
ENCODING 622
SWIDTH 960 0
DWIDTH 8 0
BBX 8 16 0 -4
BITMAP
00
00
12
0c
00
3a
44
08
10
38
04
04
08
90
e0
00
ENDCHAR
STARTCHAR LtSmlCTrndCaron
ENCODING 623
SWIDTH 960 0
DWIDTH 8 0
BBX 8 16 0 -4
BITMAP
00
00
12
0c
00
1c
22
02
02
04
44
38
00
00
00
00
ENDCHAR
STARTCHAR LtCapDZCaron
ENCODING 624
SWIDTH 960 0
DWIDTH 8 0
BBX 8 16 0 -4
BITMAP
05
02
30
2b
29
4a
4a
54
54
a8
c8
dc
00
00
00
00
ENDCHAR
STARTCHAR LtMixDZCaron
ENCODING 625
SWIDTH 960 0
DWIDTH 8 0
BBX 8 16 0 -4
BITMAP
00
00
33
29
28
4d
4b
52
54
a4
cc
d5
02
00
00
00
ENDCHAR
STARTCHAR LtSmlDZCaron
ENCODING 626
SWIDTH 960 0
DWIDTH 8 0
BBX 8 16 0 -4
BITMAP
00
00
07
05
08
3d
4b
52
94
94
ac
55
02
00
00
00
ENDCHAR
STARTCHAR LtCapUDrssCaron
ENCODING 627
SWIDTH 960 0
DWIDTH 8 0
BBX 8 16 0 -4
BITMAP
0a
04
1b
00
21
41
42
42
82
84
84
78
00
00
00
00
ENDCHAR
STARTCHAR LtSmlUDrssCaron
ENCODING 628
SWIDTH 960 0
DWIDTH 8 0
BBX 8 16 0 -4
BITMAP
09
06
00
1b
00
62
22
22
42
44
4c
32
00
00
00
00
ENDCHAR
STARTCHAR LtCapABreve
ENCODING 629
SWIDTH 960 0
DWIDTH 8 0
BBX 8 16 0 -4
BITMAP
11
0e
00
0c
0c
14
14
24
7c
44
84
84
00
00
00
00
ENDCHAR
STARTCHAR LtCapEBreve
ENCODING 630
SWIDTH 960 0
DWIDTH 8 0
BBX 8 16 0 -4
BITMAP
09
06
00
1f
10
10
20
3c
20
40
40
7c
00
00
00
00
ENDCHAR
STARTCHAR LtCapGBreve
ENCODING 631
SWIDTH 960 0
DWIDTH 8 0
BBX 8 16 0 -4
BITMAP
09
06
00
0e
11
20
20
4e
42
44
44
3c
00
00
00
00
ENDCHAR
STARTCHAR LtCapIBreve
ENCODING 632
SWIDTH 960 0
DWIDTH 8 0
BBX 8 16 0 -4
BITMAP
09
06
00
1f
04
04
08
08
08
10
10
7c
00
00
00
00
ENDCHAR
STARTCHAR LtCapOBreve
ENCODING 633
SWIDTH 960 0
DWIDTH 8 0
BBX 8 16 0 -4
BITMAP
09
06
00
0e
11
21
21
41
42
42
44
38
00
00
00
00
ENDCHAR
STARTCHAR LtCapUBreve
ENCODING 634
SWIDTH 960 0
DWIDTH 8 0
BBX 8 16 0 -4
BITMAP
11
0e
00
21
21
41
42
42
82
84
84
78
00
00
00
00
ENDCHAR
STARTCHAR LtCapYBreve
ENCODING 635
SWIDTH 960 0
DWIDTH 8 0
BBX 8 16 0 -4
BITMAP
11
0e
00
21
21
12
12
0c
08
08
10
10
00
00
00
00
ENDCHAR
STARTCHAR LtSmlABreve
ENCODING 636
SWIDTH 960 0
DWIDTH 8 0
BBX 8 16 0 -4
BITMAP
00
00
12
0c
00
1e
22
22
44
44
4c
32
00
00
00
00
ENDCHAR
STARTCHAR LtSmlEBreve
ENCODING 637
SWIDTH 960 0
DWIDTH 8 0
BBX 8 16 0 -4
BITMAP
00
00
12
0c
00
1c
22
24
78
40
44
38
00
00
00
00
ENDCHAR
STARTCHAR LtSmlGBreve
ENCODING 638
SWIDTH 960 0
DWIDTH 8 0
BBX 8 16 0 -4
BITMAP
00
00
12
0c
00
1e
22
22
44
44
4c
34
08
48
70
00
ENDCHAR
STARTCHAR LtSmlIBreve
ENCODING 639
SWIDTH 960 0
DWIDTH 8 0
BBX 8 16 0 -4
BITMAP
00
00
12
0c
00
0c
18
08
08
10
12
1c
00
00
00
00
ENDCHAR
STARTCHAR LtSmlMBreve
ENCODING 640
SWIDTH 960 0
DWIDTH 8 0
BBX 8 16 0 -4
BITMAP
00
00
22
1c
00
b7
49
49
49
92
92
93
00
00
00
00
ENDCHAR
STARTCHAR LtSmlNBreve
ENCODING 641
SWIDTH 960 0
DWIDTH 8 0
BBX 8 16 0 -4
BITMAP
00
00
12
0c
00
6e
32
22
22
44
44
46
00
00
00
00
ENDCHAR
STARTCHAR LtSmlOBreve
ENCODING 642
SWIDTH 960 0
DWIDTH 8 0
BBX 8 16 0 -4
BITMAP
00
00
12
0c
00
1c
22
22
42
44
44
38
00
00
00
00
ENDCHAR
STARTCHAR LtSmlRBreve
ENCODING 643
SWIDTH 960 0
DWIDTH 8 0
BBX 8 16 0 -4
BITMAP
00
00
12
0c
00
16
3a
10
10
20
20
20
00
00
00
00
ENDCHAR
STARTCHAR LtSmlUBreve
ENCODING 644
SWIDTH 960 0
DWIDTH 8 0
BBX 8 16 0 -4
BITMAP
00
00
12
0c
00
62
22
22
42
44
4c
32
00
00
00
00
ENDCHAR
STARTCHAR LtSmlYBreve
ENCODING 645
SWIDTH 960 0
DWIDTH 8 0
BBX 8 16 0 -4
BITMAP
00
00
12
0c
00
62
22
22
44
44
4c
34
08
48
70
00
ENDCHAR
STARTCHAR LtSmlAMacronBreve
ENCODING 646
SWIDTH 960 0
DWIDTH 8 0
BBX 8 16 0 -4
BITMAP
09
06
00
1e
00
1e
22
22
44
44
4c
32
00
00
00
00
ENDCHAR
STARTCHAR LtSmlIMacronBreve
ENCODING 647
SWIDTH 960 0
DWIDTH 8 0
BBX 8 16 0 -4
BITMAP
09
06
00
1e
00
0c
18
08
08
10
12
1c
00
00
00
00
ENDCHAR
STARTCHAR LtSmlUMacronBreve
ENCODING 648
SWIDTH 960 0
DWIDTH 8 0
BBX 8 16 0 -4
BITMAP
09
06
00
1e
00
62
22
22
42
44
4c
32
00
00
00
00
ENDCHAR
STARTCHAR LtCapAInvbreve
ENCODING 649
SWIDTH 960 0
DWIDTH 8 0
BBX 8 16 0 -4
BITMAP
0e
11
00
0c
0c
14
14
24
7c
44
84
84
00
00
00
00
ENDCHAR
STARTCHAR LtCapEInvbreve
ENCODING 650
SWIDTH 960 0
DWIDTH 8 0
BBX 8 16 0 -4
BITMAP
0e
11
00
1f
10
10
20
3c
20
40
40
7c
00
00
00
00
ENDCHAR
STARTCHAR LtCapIInvbreve
ENCODING 651
SWIDTH 960 0
DWIDTH 8 0
BBX 8 16 0 -4
BITMAP
0e
11
00
1f
04
04
08
08
08
10
10
7c
00
00
00
00
ENDCHAR
STARTCHAR LtCapOInvbreve
ENCODING 652
SWIDTH 960 0
DWIDTH 8 0
BBX 8 16 0 -4
BITMAP
0e
11
00
0e
11
21
21
41
42
42
44
38
00
00
00
00
ENDCHAR
STARTCHAR LtCapRInvbreve
ENCODING 653
SWIDTH 960 0
DWIDTH 8 0
BBX 8 16 0 -4
BITMAP
0e
11
00
1e
11
11
22
3c
28
48
44
44
00
00
00
00
ENDCHAR
STARTCHAR LtCapUInvbreve
ENCODING 654
SWIDTH 960 0
DWIDTH 8 0
BBX 8 16 0 -4
BITMAP
0e
11
00
21
21
41
42
42
82
84
84
78
00
00
00
00
ENDCHAR
STARTCHAR LtSmlAInvbreve
ENCODING 655
SWIDTH 960 0
DWIDTH 8 0
BBX 8 16 0 -4
BITMAP
00
00
0e
11
00
1e
22
22
44
44
4c
32
00
00
00
00
ENDCHAR
STARTCHAR LtSmlEInvbreve
ENCODING 656
SWIDTH 960 0
DWIDTH 8 0
BBX 8 16 0 -4
BITMAP
00
00
1c
22
00
1c
22
24
78
40
44
38
00
00
00
00
ENDCHAR
STARTCHAR LtSmlIInvbreve
ENCODING 657
SWIDTH 960 0
DWIDTH 8 0
BBX 8 16 0 -4
BITMAP
00
00
0e
11
00
0c
18
08
08
10
12
1c
00
00
00
00
ENDCHAR
STARTCHAR LtSmlOInvbreve
ENCODING 658
SWIDTH 960 0
DWIDTH 8 0
BBX 8 16 0 -4
BITMAP
00
00
1c
22
00
1c
22
22
42
44
44
38
00
00
00
00
ENDCHAR
STARTCHAR LtSmlRInvbreve
ENCODING 659
SWIDTH 960 0
DWIDTH 8 0
BBX 8 16 0 -4
BITMAP
00
00
0e
11
00
16
3a
10
10
20
20
20
00
00
00
00
ENDCHAR
STARTCHAR LtSmlUInvbreve
ENCODING 660
SWIDTH 960 0
DWIDTH 8 0
BBX 8 16 0 -4
BITMAP
00
00
1c
22
00
62
22
22
42
44
4c
32
00
00
00
00
ENDCHAR
STARTCHAR LtSmlMCandra
ENCODING 661
SWIDTH 960 0
DWIDTH 8 0
BBX 8 16 0 -4
BITMAP
08
08
22
1c
00
b7
49
49
49
92
92
93
00
00
00
00
ENDCHAR
STARTCHAR LtCapATilde
ENCODING 662
SWIDTH 960 0
DWIDTH 8 0
BBX 8 16 0 -4
BITMAP
09
16
00
0c
0c
14
14
24
7c
44
84
84
00
00
00
00
ENDCHAR
STARTCHAR LtCapETilde
ENCODING 663
SWIDTH 960 0
DWIDTH 8 0
BBX 8 16 0 -4
BITMAP
09
16
00
1f
10
10
20
3c
20
40
40
7c
00
00
00
00
ENDCHAR
STARTCHAR LtCapGTilde
ENCODING 664
SWIDTH 960 0
DWIDTH 8 0
BBX 8 16 0 -4
BITMAP
09
16
00
0e
11
20
20
4e
42
44
44
3c
00
00
00
00
ENDCHAR
STARTCHAR LtCapITilde
ENCODING 665
SWIDTH 960 0
DWIDTH 8 0
BBX 8 16 0 -4
BITMAP
09
16
00
1f
04
04
08
08
08
10
10
7c
00
00
00
00
ENDCHAR
STARTCHAR LtCapLTilde
ENCODING 666
SWIDTH 960 0
DWIDTH 8 0
BBX 8 16 0 -4
BITMAP
09
16
00
10
10
10
20
20
20
40
40
7c
00
00
00
00
ENDCHAR
STARTCHAR LtCapNTilde
ENCODING 667
SWIDTH 960 0
DWIDTH 8 0
BBX 8 16 0 -4
BITMAP
09
16
00
21
21
31
52
4a
4a
8c
84
84
00
00
00
00
ENDCHAR
STARTCHAR LtCapOTilde
ENCODING 668
SWIDTH 960 0
DWIDTH 8 0
BBX 8 16 0 -4
BITMAP
09
16
00
0e
11
21
21
41
42
42
44
38
00
00
00
00
ENDCHAR
STARTCHAR LtCapUTilde
ENCODING 669
SWIDTH 960 0
DWIDTH 8 0
BBX 8 16 0 -4
BITMAP
09
16
00
21
21
41
42
42
82
84
84
78
00
00
00
00
ENDCHAR
STARTCHAR LtCapVTilde
ENCODING 670
SWIDTH 960 0
DWIDTH 8 0
BBX 8 16 0 -4
BITMAP
09
16
00
21
22
22
24
24
28
28
30
30
00
00
00
00
ENDCHAR
STARTCHAR LtCapYTilde
ENCODING 671
SWIDTH 960 0
DWIDTH 8 0
BBX 8 16 0 -4
BITMAP
09
16
00
21
21
12
12
0c
08
08
10
10
00
00
00
00
ENDCHAR
STARTCHAR LtCapEpsTilde
ENCODING 672
SWIDTH 960 0
DWIDTH 8 0
BBX 8 16 0 -4
BITMAP
09
16
00
0e
11
20
20
18
20
40
44
38
00
00
00
00
ENDCHAR
STARTCHAR LtCapCTrndTilde
ENCODING 673
SWIDTH 960 0
DWIDTH 8 0
BBX 8 16 0 -4
BITMAP
09
16
00
1c
22
02
02
02
04
04
88
70
00
00
00
00
ENDCHAR
STARTCHAR LtSmlATilde
ENCODING 674
SWIDTH 960 0
DWIDTH 8 0
BBX 8 16 0 -4
BITMAP
00
00
09
16
00
1e
22
22
44
44
4c
32
00
00
00
00
ENDCHAR
STARTCHAR LtSmlETilde
ENCODING 675
SWIDTH 960 0
DWIDTH 8 0
BBX 8 16 0 -4
BITMAP
00
00
09
16
00
1c
22
24
78
40
44
38
00
00
00
00
ENDCHAR
STARTCHAR LtSmlGTilde
ENCODING 676
SWIDTH 960 0
DWIDTH 8 0
BBX 8 16 0 -4
BITMAP
00
00
09
16
00
1e
22
22
44
44
4c
34
08
48
70
00
ENDCHAR
STARTCHAR LtSmlITilde
ENCODING 677
SWIDTH 960 0
DWIDTH 8 0
BBX 8 16 0 -4
BITMAP
00
00
09
16
00
0c
18
08
08
10
12
1c
00
00
00
00
ENDCHAR
STARTCHAR LtSmlLTilde
ENCODING 678
SWIDTH 960 0
DWIDTH 8 0
BBX 8 16 0 -4
BITMAP
09
16
00
0c
04
04
08
08
08
10
14
18
00
00
00
00
ENDCHAR
STARTCHAR LtSmlNTilde
ENCODING 679
SWIDTH 960 0
DWIDTH 8 0
BBX 8 16 0 -4
BITMAP
00
00
19
26
00
6e
32
22
22
44
44
46
00
00
00
00
ENDCHAR
STARTCHAR LtSmlOTilde
ENCODING 680
SWIDTH 960 0
DWIDTH 8 0
BBX 8 16 0 -4
BITMAP
00
00
09
16
00
1c
22
22
42
44
44
38
00
00
00
00
ENDCHAR
STARTCHAR LtSmlUTilde
ENCODING 681
SWIDTH 960 0
DWIDTH 8 0
BBX 8 16 0 -4
BITMAP
00
00
12
2c
00
62
22
22
42
44
4c
32
00
00
00
00
ENDCHAR
STARTCHAR LtSmlVTilde
ENCODING 682
SWIDTH 960 0
DWIDTH 8 0
BBX 8 16 0 -4
BITMAP
00
00
12
2c
00
62
22
22
22
24
28
30
00
00
00
00
ENDCHAR
STARTCHAR LtSmlYTilde
ENCODING 683
SWIDTH 960 0
DWIDTH 8 0
BBX 8 16 0 -4
BITMAP
00
00
12
2c
00
62
22
22
44
44
4c
34
08
48
70
00
ENDCHAR
STARTCHAR LtSmlEpsTilde
ENCODING 684
SWIDTH 960 0
DWIDTH 8 0
BBX 8 16 0 -4
BITMAP
00
00
09
16
00
1c
22
20
38
40
44
38
00
00
00
00
ENDCHAR
STARTCHAR LtSmlAScrTilde
ENCODING 685
SWIDTH 960 0
DWIDTH 8 0
BBX 8 16 0 -4
BITMAP
00
00
09
16
00
1e
22
22
44
44
4c
32
00
00
00
00
ENDCHAR
STARTCHAR LtSmlANonscrTilde
ENCODING 686
SWIDTH 960 0
DWIDTH 8 0
BBX 8 16 0 -4
BITMAP
00
00
09
16
00
1c
12
02
3c
44
4c
32
00
00
00
00
ENDCHAR
STARTCHAR LtSmlATrndTilde
ENCODING 687
SWIDTH 960 0
DWIDTH 8 0
BBX 8 16 0 -4
BITMAP
00
00
12
2c
00
6c
32
22
3c
40
48
38
00
00
00
00
ENDCHAR
STARTCHAR LtSmlCTrndTilde
ENCODING 688
SWIDTH 960 0
DWIDTH 8 0
BBX 8 16 0 -4
BITMAP
00
00
09
16
00
1c
22
02
02
04
44
38
00
00
00
00
ENDCHAR
STARTCHAR LtSmlAScrTrndTilde
ENCODING 689
SWIDTH 960 0
DWIDTH 8 0
BBX 8 16 0 -4
BITMAP
00
00
12
2c
00
6c
32
22
22
44
44
78
00
00
00
00
ENDCHAR
STARTCHAR LtSmlOETilde
ENCODING 690
SWIDTH 960 0
DWIDTH 8 0
BBX 8 16 0 -4
BITMAP
00
00
12
2c
00
36
49
49
8e
90
92
6c
00
00
00
00
ENDCHAR
STARTCHAR LtCapOHornTilde
ENCODING 691
SWIDTH 960 0
DWIDTH 8 0
BBX 8 16 0 -4
BITMAP
14
29
01
0e
12
22
22
42
44
44
48
30
00
00
00
00
ENDCHAR
STARTCHAR LtCapUHornTilde
ENCODING 692
SWIDTH 960 0
DWIDTH 8 0
BBX 8 16 0 -4
BITMAP
14
2b
01
22
22
42
44
44
84
88
88
70
00
00
00
00
ENDCHAR
STARTCHAR LtSmlOHornTilde
ENCODING 693
SWIDTH 960 0
DWIDTH 8 0
BBX 8 16 0 -4
BITMAP
00
0a
14
01
01
1e
22
22
42
44
44
38
00
00
00
00
ENDCHAR
STARTCHAR LtSmlUHornTilde
ENCODING 694
SWIDTH 960 0
DWIDTH 8 0
BBX 8 16 0 -4
BITMAP
00
0a
14
03
01
62
22
22
42
44
4c
32
00
00
00
00
ENDCHAR
STARTCHAR LtSmlAMacronTilde
ENCODING 695
SWIDTH 960 0
DWIDTH 8 0
BBX 8 16 0 -4
BITMAP
09
16
00
1e
00
1e
22
22
44
44
4c
32
00
00
00
00
ENDCHAR
STARTCHAR LtSmlEMacronTilde
ENCODING 696
SWIDTH 960 0
DWIDTH 8 0
BBX 8 16 0 -4
BITMAP
09
16
00
1e
00
1c
22
24
78
40
44
38
00
00
00
00
ENDCHAR
STARTCHAR LtSmlIMacronTilde
ENCODING 697
SWIDTH 960 0
DWIDTH 8 0
BBX 8 16 0 -4
BITMAP
09
16
00
1e
00
0c
18
08
08
10
12
1c
00
00
00
00
ENDCHAR
STARTCHAR LtSmlOMacronTilde
ENCODING 698
SWIDTH 960 0
DWIDTH 8 0
BBX 8 16 0 -4
BITMAP
09
16
00
1e
00
1c
22
22
42
44
44
38
00
00
00
00
ENDCHAR
STARTCHAR LtSmlUMacronTilde
ENCODING 699
SWIDTH 960 0
DWIDTH 8 0
BBX 8 16 0 -4
BITMAP
09
16
00
1e
00
62
22
22
42
44
4c
32
00
00
00
00
ENDCHAR
STARTCHAR LtCapACircumTilde
ENCODING 700
SWIDTH 960 0
DWIDTH 8 0
BBX 8 16 0 -4
BITMAP
19
26
0a
00
0c
0c
14
24
3c
44
84
84
00
00
00
00
ENDCHAR
STARTCHAR LtCapECircumTilde
ENCODING 701
SWIDTH 960 0
DWIDTH 8 0
BBX 8 16 0 -4
BITMAP
19
26
0a
00
1f
10
20
3c
20
40
40
7c
00
00
00
00
ENDCHAR
STARTCHAR LtCapOCircumTilde
ENCODING 702
SWIDTH 960 0
DWIDTH 8 0
BBX 8 16 0 -4
BITMAP
19
26
0a
00
0e
11
21
21
42
42
44
38
00
00
00
00
ENDCHAR
STARTCHAR LtSmlACircumTilde
ENCODING 703
SWIDTH 960 0
DWIDTH 8 0
BBX 8 16 0 -4
BITMAP
19
26
0c
12
00
1e
22
22
44
44
4c
32
00
00
00
00
ENDCHAR
STARTCHAR LtSmlECircumTilde
ENCODING 704
SWIDTH 960 0
DWIDTH 8 0
BBX 8 16 0 -4
BITMAP
19
26
0c
12
00
1c
22
24
78
40
44
38
00
00
00
00
ENDCHAR
STARTCHAR LtSmlOCircumTilde
ENCODING 705
SWIDTH 960 0
DWIDTH 8 0
BBX 8 16 0 -4
BITMAP
19
26
0c
12
00
1c
22
22
42
44
44
38
00
00
00
00
ENDCHAR
STARTCHAR LtCapABreveTilde
ENCODING 706
SWIDTH 960 0
DWIDTH 8 0
BBX 8 16 0 -4
BITMAP
0a
14
11
0e
04
0c
14
24
3c
44
84
84
00
00
00
00
ENDCHAR
STARTCHAR LtSmlABreveTilde
ENCODING 707
SWIDTH 960 0
DWIDTH 8 0
BBX 8 16 0 -4
BITMAP
0a
14
11
0e
00
1e
22
22
44
44
4c
32
00
00
00
00
ENDCHAR
STARTCHAR LtCapAVhook
ENCODING 708
SWIDTH 960 0
DWIDTH 8 0
BBX 8 16 0 -4
BITMAP
06
01
02
0c
0c
14
14
24
7c
44
84
84
00
00
00
00
ENDCHAR
STARTCHAR LtCapEVhook
ENCODING 709
SWIDTH 960 0
DWIDTH 8 0
BBX 8 16 0 -4
BITMAP
0c
02
04
1f
10
10
20
3c
20
40
40
7c
00
00
00
00
ENDCHAR
STARTCHAR LtCapIVhook
ENCODING 710
SWIDTH 960 0
DWIDTH 8 0
BBX 8 16 0 -4
BITMAP
06
01
02
1f
04
04
08
08
08
10
10
7c
00
00
00
00
ENDCHAR
STARTCHAR LtCapOVhook
ENCODING 711
SWIDTH 960 0
DWIDTH 8 0
BBX 8 16 0 -4
BITMAP
0c
02
04
0e
11
21
21
41
42
42
44
38
00
00
00
00
ENDCHAR
STARTCHAR LtCapUVhook
ENCODING 712
SWIDTH 960 0
DWIDTH 8 0
BBX 8 16 0 -4
BITMAP
0c
02
04
21
21
41
42
42
82
84
84
78
00
00
00
00
ENDCHAR
STARTCHAR LtCapYVhook
ENCODING 713
SWIDTH 960 0
DWIDTH 8 0
BBX 8 16 0 -4
BITMAP
0c
02
04
21
21
12
12
0c
08
08
10
10
00
00
00
00
ENDCHAR
STARTCHAR LtSmlAVhook
ENCODING 714
SWIDTH 960 0
DWIDTH 8 0
BBX 8 16 0 -4
BITMAP
00
0c
02
04
00
1e
22
22
44
44
4c
32
00
00
00
00
ENDCHAR
STARTCHAR LtSmlEVhook
ENCODING 715
SWIDTH 960 0
DWIDTH 8 0
BBX 8 16 0 -4
BITMAP
00
0c
02
04
00
1c
22
24
78
40
44
38
00
00
00
00
ENDCHAR
STARTCHAR LtSmlIVhook
ENCODING 716
SWIDTH 960 0
DWIDTH 8 0
BBX 8 16 0 -4
BITMAP
00
0c
02
04
00
0c
18
08
08
10
12
1c
00
00
00
00
ENDCHAR
STARTCHAR LtSmlOVhook
ENCODING 717
SWIDTH 960 0
DWIDTH 8 0
BBX 8 16 0 -4
BITMAP
00
0c
02
04
00
1c
22
22
42
44
44
38
00
00
00
00
ENDCHAR
STARTCHAR LtSmlUVhook
ENCODING 718
SWIDTH 960 0
DWIDTH 8 0
BBX 8 16 0 -4
BITMAP
00
0c
02
04
00
62
22
22
42
44
4c
32
00
00
00
00
ENDCHAR
STARTCHAR LtSmlYVhook
ENCODING 719
SWIDTH 960 0
DWIDTH 8 0
BBX 8 16 0 -4
BITMAP
00
0c
02
04
00
62
22
22
44
44
4c
34
08
48
70
00
ENDCHAR
STARTCHAR LtCapOHornVhook
ENCODING 720
SWIDTH 960 0
DWIDTH 8 0
BBX 8 16 0 -4
BITMAP
0c
05
09
0e
12
22
22
42
44
44
48
30
00
00
00
00
ENDCHAR
STARTCHAR LtCapUHornVhook
ENCODING 721
SWIDTH 960 0
DWIDTH 8 0
BBX 8 16 0 -4
BITMAP
18
05
09
22
22
42
44
44
84
88
88
70
00
00
00
00
ENDCHAR
STARTCHAR LtSmlOHornVhook
ENCODING 722
SWIDTH 960 0
DWIDTH 8 0
BBX 8 16 0 -4
BITMAP
00
18
04
09
01
1e
22
22
42
44
44
38
00
00
00
00
ENDCHAR
STARTCHAR LtSmlUHornVhook
ENCODING 723
SWIDTH 960 0
DWIDTH 8 0
BBX 8 16 0 -4
BITMAP
00
18
04
0b
01
62
22
22
42
44
4c
32
00
00
00
00
ENDCHAR
STARTCHAR LtCapACircumVhook
ENCODING 724
SWIDTH 960 0
DWIDTH 8 0
BBX 8 16 0 -4
BITMAP
03
09
16
00
0c
0c
14
24
3c
44
84
84
00
00
00
00
ENDCHAR
STARTCHAR LtCapECircumVhook
ENCODING 725
SWIDTH 960 0
DWIDTH 8 0
BBX 8 16 0 -4
BITMAP
03
09
16
00
1f
10
20
3c
20
40
40
7c
00
00
00
00
ENDCHAR
STARTCHAR LtCapOCircumVhook
ENCODING 726
SWIDTH 960 0
DWIDTH 8 0
BBX 8 16 0 -4
BITMAP
03
09
16
00
0e
11
21
21
42
42
44
38
00
00
00
00
ENDCHAR
STARTCHAR LtSmlACircumVhook
ENCODING 727
SWIDTH 960 0
DWIDTH 8 0
BBX 8 16 0 -4
BITMAP
06
02
0c
12
00
1e
22
22
44
44
4c
32
00
00
00
00
ENDCHAR
STARTCHAR LtSmlECircumVhook
ENCODING 728
SWIDTH 960 0
DWIDTH 8 0
BBX 8 16 0 -4
BITMAP
06
02
0c
12
00
1c
22
24
78
40
44
38
00
00
00
00
ENDCHAR
STARTCHAR LtSmlOCircumVhook
ENCODING 729
SWIDTH 960 0
DWIDTH 8 0
BBX 8 16 0 -4
BITMAP
06
02
0c
12
00
1c
22
22
42
44
44
38
00
00
00
00
ENDCHAR
STARTCHAR LtCapABreveVhook
ENCODING 730
SWIDTH 960 0
DWIDTH 8 0
BBX 8 16 0 -4
BITMAP
06
02
15
0e
04
0c
14
24
3c
44
84
84
00
00
00
00
ENDCHAR
STARTCHAR LtSmlABreveVhook
ENCODING 731
SWIDTH 960 0
DWIDTH 8 0
BBX 8 16 0 -4
BITMAP
06
02
15
0e
00
1e
22
22
44
44
4c
32
00
00
00
00
ENDCHAR
STARTCHAR LtSmlNApostr
ENCODING 732
SWIDTH 960 0
DWIDTH 8 0
BBX 8 16 0 -4
BITMAP
00
40
40
40
80
6e
32
22
22
44
44
46
00
00
00
00
ENDCHAR
STARTCHAR LtCapLMdot
ENCODING 733
SWIDTH 960 0
DWIDTH 8 0
BBX 8 16 0 -4
BITMAP
00
00
10
10
10
20
21
21
20
40
40
7c
00
00
00
00
ENDCHAR
STARTCHAR LtSmlLMdot
ENCODING 734
SWIDTH 960 0
DWIDTH 8 0
BBX 8 16 0 -4
BITMAP
00
00
30
10
10
20
21
21
20
40
50
60
00
00
00
00
ENDCHAR
STARTCHAR LtCapALdot
ENCODING 735
SWIDTH 960 0
DWIDTH 8 0
BBX 8 16 0 -4
BITMAP
00
00
0c
0c
14
14
24
24
7c
44
84
84
00
20
20
00
ENDCHAR
STARTCHAR LtCapBLdot
ENCODING 736
SWIDTH 960 0
DWIDTH 8 0
BBX 8 16 0 -4
BITMAP
00
00
1e
11
11
22
3c
22
22
42
44
78
00
20
20
00
ENDCHAR
STARTCHAR LtCapCLdot
ENCODING 737
SWIDTH 960 0
DWIDTH 8 0
BBX 8 16 0 -4
BITMAP
00
00
0e
11
20
20
40
40
40
40
44
38
00
20
20
00
ENDCHAR
STARTCHAR LtCapDLdot
ENCODING 738
SWIDTH 960 0
DWIDTH 8 0
BBX 8 16 0 -4
BITMAP
00
00
3c
22
22
42
42
42
44
84
88
f0
00
40
40
00
ENDCHAR
STARTCHAR LtCapELdot
ENCODING 739
SWIDTH 960 0
DWIDTH 8 0
BBX 8 16 0 -4
BITMAP
00
00
1f
10
10
20
3c
20
20
40
40
7c
00
20
20
00
ENDCHAR
STARTCHAR LtCapHLdot
ENCODING 740
SWIDTH 960 0
DWIDTH 8 0
BBX 8 16 0 -4
BITMAP
00
00
21
21
21
42
7e
42
42
84
84
84
00
20
20
00
ENDCHAR
STARTCHAR LtCapILdot
ENCODING 741
SWIDTH 960 0
DWIDTH 8 0
BBX 8 16 0 -4
BITMAP
00
00
1f
04
04
08
08
08
08
10
10
7c
00
20
20
00
ENDCHAR
STARTCHAR LtCapKLdot
ENCODING 742
SWIDTH 960 0
DWIDTH 8 0
BBX 8 16 0 -4
BITMAP
00
00
21
22
24
48
70
50
48
88
84
84
00
20
20
00
ENDCHAR
STARTCHAR LtCapLLdot
ENCODING 743
SWIDTH 960 0
DWIDTH 8 0
BBX 8 16 0 -4
BITMAP
00
00
10
10
10
20
20
20
20
40
40
7c
00
20
20
00
ENDCHAR
STARTCHAR LtCapMLdot
ENCODING 744
SWIDTH 960 0
DWIDTH 8 0
BBX 8 16 0 -4
BITMAP
00
00
21
21
33
56
5a
5a
42
84
84
84
00
20
20
00
ENDCHAR
STARTCHAR LtCapNLdot
ENCODING 745
SWIDTH 960 0
DWIDTH 8 0
BBX 8 16 0 -4
BITMAP
00
00
21
21
31
52
52
4a
4a
8c
84
84
00
20
20
00
ENDCHAR
STARTCHAR LtCapOLdot
ENCODING 746
SWIDTH 960 0
DWIDTH 8 0
BBX 8 16 0 -4
BITMAP
00
00
0e
11
21
21
41
41
42
42
44
38
00
20
20
00
ENDCHAR
STARTCHAR LtCapPLdot
ENCODING 747
SWIDTH 960 0
DWIDTH 8 0
BBX 8 16 0 -4
BITMAP
00
00
1e
11
11
21
22
3c
20
40
40
40
00
80
80
00
ENDCHAR
STARTCHAR LtCapQLdot
ENCODING 748
SWIDTH 960 0
DWIDTH 8 0
BBX 8 16 0 -4
BITMAP
00
00
0e
11
21
21
41
41
42
52
54
38
06
20
20
00
ENDCHAR
STARTCHAR LtCapRLdot
ENCODING 749
SWIDTH 960 0
DWIDTH 8 0
BBX 8 16 0 -4
BITMAP
00
00
1e
11
11
22
3c
30
28
48
44
44
00
20
20
00
ENDCHAR
STARTCHAR LtCapSLdot
ENCODING 750
SWIDTH 960 0
DWIDTH 8 0
BBX 8 16 0 -4
BITMAP
00
00
1e
21
20
20
10
08
04
04
84
78
00
20
20
00
ENDCHAR
STARTCHAR LtCapTLdot
ENCODING 751
SWIDTH 960 0
DWIDTH 8 0
BBX 8 16 0 -4
BITMAP
00
00
7f
08
08
10
10
10
10
20
20
20
00
40
40
00
ENDCHAR
STARTCHAR LtCapULdot
ENCODING 752
SWIDTH 960 0
DWIDTH 8 0
BBX 8 16 0 -4
BITMAP
00
00
21
21
41
42
42
42
82
84
84
78
00
20
20
00
ENDCHAR
STARTCHAR LtCapVLdot
ENCODING 753
SWIDTH 960 0
DWIDTH 8 0
BBX 8 16 0 -4
BITMAP
00
00
21
21
22
22
24
24
28
28
30
30
00
20
20
00
ENDCHAR
STARTCHAR LtCapWLdot
ENCODING 754
SWIDTH 960 0
DWIDTH 8 0
BBX 8 16 0 -4
BITMAP
00
00
21
21
21
22
2a
5a
6a
6c
44
44
00
10
10
00
ENDCHAR
STARTCHAR LtCapYLdot
ENCODING 755
SWIDTH 960 0
DWIDTH 8 0
BBX 8 16 0 -4
BITMAP
00
00
21
21
12
12
14
08
08
10
10
10
00
20
20
00
ENDCHAR
STARTCHAR LtCapZLdot
ENCODING 756
SWIDTH 960 0
DWIDTH 8 0
BBX 8 16 0 -4
BITMAP
00
00
3f
01
02
04
08
10
20
40
80
fc
00
20
20
00
ENDCHAR
STARTCHAR LtSmlALdot
ENCODING 757
SWIDTH 960 0
DWIDTH 8 0
BBX 8 16 0 -4
BITMAP
00
00
00
00
00
1e
22
22
44
44
4c
32
00
10
10
00
ENDCHAR
STARTCHAR LtSmlBLdot
ENCODING 758
SWIDTH 960 0
DWIDTH 8 0
BBX 8 16 0 -4
BITMAP
00
00
30
10
10
2c
32
22
22
44
44
38
00
20
20
00
ENDCHAR
STARTCHAR LtSmlCLdot
ENCODING 759
SWIDTH 960 0
DWIDTH 8 0
BBX 8 16 0 -4
BITMAP
00
00
00
00
00
1c
22
20
40
40
44
38
00
20
20
00
ENDCHAR
STARTCHAR LtSmlDLdot
ENCODING 760
SWIDTH 960 0
DWIDTH 8 0
BBX 8 16 0 -4
BITMAP
00
00
01
01
01
1e
22
22
42
44
4c
32
00
10
10
00
ENDCHAR
STARTCHAR LtSmlELdot
ENCODING 761
SWIDTH 960 0
DWIDTH 8 0
BBX 8 16 0 -4
BITMAP
00
00
00
00
00
1c
22
24
78
40
44
38
00
20
20
00
ENDCHAR
STARTCHAR LtSmlHLdot
ENCODING 762
SWIDTH 960 0
DWIDTH 8 0
BBX 8 16 0 -4
BITMAP
00
00
30
10
10
2e
32
22
22
44
44
46
00
10
10
00
ENDCHAR
STARTCHAR LtSmlILdot
ENCODING 763
SWIDTH 960 0
DWIDTH 8 0
BBX 8 16 0 -4
BITMAP
00
00
04
04
00
0c
18
08
08
10
12
1c
00
10
10
00
ENDCHAR
STARTCHAR LtSmlKLdot
ENCODING 764
SWIDTH 960 0
DWIDTH 8 0
BBX 8 16 0 -4
BITMAP
00
00
10
10
10
2e
32
22
3c
48
44
42
00
10
10
00
ENDCHAR
STARTCHAR LtSmlLLdot
ENCODING 765
SWIDTH 960 0
DWIDTH 8 0
BBX 8 16 0 -4
BITMAP
00
00
0c
04
04
08
08
08
08
10
14
18
00
10
10
00
ENDCHAR
STARTCHAR LtSmlMLdot
ENCODING 766
SWIDTH 960 0
DWIDTH 8 0
BBX 8 16 0 -4
BITMAP
00
00
00
00
00
b7
49
49
49
92
92
93
00
20
20
00
ENDCHAR
STARTCHAR LtSmlNLdot
ENCODING 767
SWIDTH 960 0
DWIDTH 8 0
BBX 8 16 0 -4
BITMAP
00
00
00
00
00
6e
32
22
22
44
44
46
00
10
10
00
ENDCHAR
STARTCHAR LtSmlOLdot
ENCODING 768
SWIDTH 960 0
DWIDTH 8 0
BBX 8 16 0 -4
BITMAP
00
00
00
00
00
1c
22
22
42
44
44
38
00
20
20
00
ENDCHAR
STARTCHAR LtSmlPLdot
ENCODING 769
SWIDTH 960 0
DWIDTH 8 0
BBX 8 16 0 -4
BITMAP
00
00
00
00
00
2c
72
22
22
44
44
78
40
90
90
00
ENDCHAR
STARTCHAR LtSmlQLdot
ENCODING 770
SWIDTH 960 0
DWIDTH 8 0
BBX 8 16 0 -4
BITMAP
00
00
00
00
00
1a
26
22
42
44
4c
34
08
28
28
00
ENDCHAR
STARTCHAR LtSmlRLdot
ENCODING 771
SWIDTH 960 0
DWIDTH 8 0
BBX 8 16 0 -4
BITMAP
00
00
00
00
00
16
3a
10
10
20
20
20
00
40
40
00
ENDCHAR
STARTCHAR LtSmlSLdot
ENCODING 772
SWIDTH 960 0
DWIDTH 8 0
BBX 8 16 0 -4
BITMAP
00
00
00
00
00
1c
22
20
18
04
44
38
00
20
20
00
ENDCHAR
STARTCHAR LtSmlTLdot
ENCODING 773
SWIDTH 960 0
DWIDTH 8 0
BBX 8 16 0 -4
BITMAP
00
00
00
08
08
3e
08
10
10
10
24
18
00
10
10
00
ENDCHAR
STARTCHAR LtSmlULdot
ENCODING 774
SWIDTH 960 0
DWIDTH 8 0
BBX 8 16 0 -4
BITMAP
00
00
00
00
00
62
22
22
42
44
4c
32
00
10
10
00
ENDCHAR
STARTCHAR LtSmlVLdot
ENCODING 775
SWIDTH 960 0
DWIDTH 8 0
BBX 8 16 0 -4
BITMAP
00
00
00
00
00
62
22
22
22
24
28
30
00
20
20
00
ENDCHAR
STARTCHAR LtSmlWLdot
ENCODING 776
SWIDTH 960 0
DWIDTH 8 0
BBX 8 16 0 -4
BITMAP
00
00
00
00
00
61
21
41
49
5a
66
44
00
10
10
00
ENDCHAR
STARTCHAR LtSmlYLdot
ENCODING 777
SWIDTH 960 0
DWIDTH 8 0
BBX 8 16 0 -4
BITMAP
00
00
00
00
00
62
22
22
44
44
4c
34
08
4a
72
00
ENDCHAR
STARTCHAR LtSmlZLdot
ENCODING 778
SWIDTH 960 0
DWIDTH 8 0
BBX 8 16 0 -4
BITMAP
00
00
00
00
00
1d
22
04
08
10
20
52
0c
20
20
00
ENDCHAR
STARTCHAR LtCapOHornLdot
ENCODING 779
SWIDTH 960 0
DWIDTH 8 0
BBX 8 16 0 -4
BITMAP
03
01
0e
12
22
22
42
42
44
44
48
30
00
20
20
00
ENDCHAR
STARTCHAR LtCapUHornLdot
ENCODING 780
SWIDTH 960 0
DWIDTH 8 0
BBX 8 16 0 -4
BITMAP
03
01
22
22
42
44
44
44
88
88
88
70
00
40
40
00
ENDCHAR
STARTCHAR LtSmlOHornLdot
ENCODING 781
SWIDTH 960 0
DWIDTH 8 0
BBX 8 16 0 -4
BITMAP
00
00
00
03
01
1e
22
22
42
44
44
38
00
20
20
00
ENDCHAR
STARTCHAR LtSmlUHornLdot
ENCODING 782
SWIDTH 960 0
DWIDTH 8 0
BBX 8 16 0 -4
BITMAP
00
00
00
03
01
62
22
22
42
44
4c
32
00
10
10
00
ENDCHAR
STARTCHAR LtCapSDotLdot
ENCODING 783
SWIDTH 960 0
DWIDTH 8 0
BBX 8 16 0 -4
BITMAP
04
04
00
1e
21
20
20
18
04
04
84
78
00
20
20
00
ENDCHAR
STARTCHAR LtSmlSDotLdot
ENCODING 784
SWIDTH 960 0
DWIDTH 8 0
BBX 8 16 0 -4
BITMAP
00
00
08
08
00
1c
22
20
18
04
44
38
00
20
20
00
ENDCHAR
STARTCHAR LtCapLMacronLdot
ENCODING 785
SWIDTH 960 0
DWIDTH 8 0
BBX 8 16 0 -4
BITMAP
0f
00
10
10
10
20
20
20
20
40
40
7c
00
20
20
00
ENDCHAR
STARTCHAR LtCapRMacronLdot
ENCODING 786
SWIDTH 960 0
DWIDTH 8 0
BBX 8 16 0 -4
BITMAP
0f
00
1e
11
11
22
3c
30
28
48
44
44
00
20
20
00
ENDCHAR
STARTCHAR LtSmlLMacronLdot
ENCODING 787
SWIDTH 960 0
DWIDTH 8 0
BBX 8 16 0 -4
BITMAP
0f
00
0c
04
04
08
08
08
08
10
14
18
00
10
10
00
ENDCHAR
STARTCHAR LtSmlRMacronLdot
ENCODING 788
SWIDTH 960 0
DWIDTH 8 0
BBX 8 16 0 -4
BITMAP
00
00
1e
00
00
16
3a
10
10
20
20
20
00
40
40
00
ENDCHAR
STARTCHAR LtCapEAcuteLdot
ENCODING 789
SWIDTH 960 0
DWIDTH 8 0
BBX 8 16 0 -4
BITMAP
01
06
00
1f
10
10
20
3c
20
40
40
7c
00
20
20
00
ENDCHAR
STARTCHAR LtCapOAcuteLdot
ENCODING 790
SWIDTH 960 0
DWIDTH 8 0
BBX 8 16 0 -4
BITMAP
01
06
00
0e
11
21
21
41
42
42
44
38
00
20
20
00
ENDCHAR
STARTCHAR LtCapRAcuteLdot
ENCODING 791
SWIDTH 960 0
DWIDTH 8 0
BBX 8 16 0 -4
BITMAP
01
06
00
1e
11
11
22
3c
28
48
44
44
00
20
20
00
ENDCHAR
STARTCHAR LtSmlEAcuteLdot
ENCODING 792
SWIDTH 960 0
DWIDTH 8 0
BBX 8 16 0 -4
BITMAP
00
04
04
08
00
1c
22
24
78
40
44
38
00
20
20
00
ENDCHAR
STARTCHAR LtSmlOAcuteLdot
ENCODING 793
SWIDTH 960 0
DWIDTH 8 0
BBX 8 16 0 -4
BITMAP
00
02
02
04
00
1c
22
22
42
44
44
38
00
20
20
00
ENDCHAR
STARTCHAR LtSmlRAcuteLdot
ENCODING 794
SWIDTH 960 0
DWIDTH 8 0
BBX 8 16 0 -4
BITMAP
00
02
02
04
00
16
3a
10
10
20
20
20
00
40
40
00
ENDCHAR
STARTCHAR LtSmlRMacronAcuteLdot
ENCODING 795
SWIDTH 960 0
DWIDTH 8 0
BBX 8 16 0 -4
BITMAP
01
06
00
1e
00
16
3a
10
10
20
20
20
00
40
40
00
ENDCHAR
STARTCHAR LtCapEGraveLdot
ENCODING 796
SWIDTH 960 0
DWIDTH 8 0
BBX 8 16 0 -4
BITMAP
08
06
00
1f
10
10
20
3c
20
40
40
7c
00
20
20
00
ENDCHAR
STARTCHAR LtCapOGraveLdot
ENCODING 797
SWIDTH 960 0
DWIDTH 8 0
BBX 8 16 0 -4
BITMAP
08
06
00
0e
11
21
21
41
42
42
44
38
00
20
20
00
ENDCHAR
STARTCHAR LtCapRGraveLdot
ENCODING 798
SWIDTH 960 0
DWIDTH 8 0
BBX 8 16 0 -4
BITMAP
08
06
00
1e
11
11
22
3c
28
48
44
44
00
20
20
00
ENDCHAR
STARTCHAR LtSmlEGraveLdot
ENCODING 799
SWIDTH 960 0
DWIDTH 8 0
BBX 8 16 0 -4
BITMAP
00
08
08
04
00
1c
22
24
78
40
44
38
00
20
20
00
ENDCHAR
STARTCHAR LtSmlOGraveLdot
ENCODING 800
SWIDTH 960 0
DWIDTH 8 0
BBX 8 16 0 -4
BITMAP
00
08
08
04
00
1c
22
22
42
44
44
38
00
20
20
00
ENDCHAR
STARTCHAR LtSmlRGraveLdot
ENCODING 801
SWIDTH 960 0
DWIDTH 8 0
BBX 8 16 0 -4
BITMAP
00
08
08
04
00
16
3a
10
10
20
20
20
00
40
40
00
ENDCHAR
STARTCHAR LtCapACircumLdot
ENCODING 802
SWIDTH 960 0
DWIDTH 8 0
BBX 8 16 0 -4
BITMAP
0c
12
00
0c
0c
14
14
24
7c
44
84
84
00
20
20
00
ENDCHAR
STARTCHAR LtCapECircumLdot
ENCODING 803
SWIDTH 960 0
DWIDTH 8 0
BBX 8 16 0 -4
BITMAP
06
09
00
1f
10
10
20
3c
20
40
40
7c
00
20
20
00
ENDCHAR
STARTCHAR LtCapOCircumLdot
ENCODING 804
SWIDTH 960 0
DWIDTH 8 0
BBX 8 16 0 -4
BITMAP
06
09
00
0e
11
21
21
41
42
42
44
38
00
20
20
00
ENDCHAR
STARTCHAR LtSmlACircumLdot
ENCODING 805
SWIDTH 960 0
DWIDTH 8 0
BBX 8 16 0 -4
BITMAP
00
00
0c
12
00
1e
22
22
44
44
4c
32
00
10
10
00
ENDCHAR
STARTCHAR LtSmlECircumLdot
ENCODING 806
SWIDTH 960 0
DWIDTH 8 0
BBX 8 16 0 -4
BITMAP
00
00
0c
12
00
1c
22
24
78
40
44
38
00
20
20
00
ENDCHAR
STARTCHAR LtSmlOCircumLdot
ENCODING 807
SWIDTH 960 0
DWIDTH 8 0
BBX 8 16 0 -4
BITMAP
00
00
0c
12
00
1c
22
22
42
44
44
38
00
20
20
00
ENDCHAR
STARTCHAR LtCapCCaronLdot
ENCODING 808
SWIDTH 960 0
DWIDTH 8 0
BBX 8 16 0 -4
BITMAP
09
06
00
0e
11
20
20
40
40
40
44
38
00
20
20
00
ENDCHAR
STARTCHAR LtSmlCCaronLdot
ENCODING 809
SWIDTH 960 0
DWIDTH 8 0
BBX 8 16 0 -4
BITMAP
00
00
12
0c
00
1c
22
20
40
40
44
38
00
20
20
00
ENDCHAR
STARTCHAR LtCapABreveLdot
ENCODING 810
SWIDTH 960 0
DWIDTH 8 0
BBX 8 16 0 -4
BITMAP
11
0e
00
0c
0c
14
14
24
7c
44
84
84
00
20
20
00
ENDCHAR
STARTCHAR LtSmlABreveLdot
ENCODING 811
SWIDTH 960 0
DWIDTH 8 0
BBX 8 16 0 -4
BITMAP
00
00
12
0c
00
1e
22
22
44
44
4c
32
00
10
10
00
ENDCHAR
STARTCHAR LtSmlLLvline
ENCODING 812
SWIDTH 960 0
DWIDTH 8 0
BBX 8 16 0 -4
BITMAP
00
00
0c
04
04
08
08
08
08
10
14
18
10
10
10
00
ENDCHAR
STARTCHAR LtSmlMLvline
ENCODING 813
SWIDTH 960 0
DWIDTH 8 0
BBX 8 16 0 -4
BITMAP
00
00
00
00
00
b7
49
49
49
92
92
83
20
20
20
00
ENDCHAR
STARTCHAR LtSmlNLvline
ENCODING 814
SWIDTH 960 0
DWIDTH 8 0
BBX 8 16 0 -4
BITMAP
00
00
00
00
00
6e
32
22
22
44
44
46
10
10
10
00
ENDCHAR
STARTCHAR LtSmlRLvline
ENCODING 815
SWIDTH 960 0
DWIDTH 8 0
BBX 8 16 0 -4
BITMAP
00
00
00
00
00
16
3a
10
10
20
20
20
10
10
10
00
ENDCHAR
STARTCHAR LtSmlEngLvline
ENCODING 816
SWIDTH 960 0
DWIDTH 8 0
BBX 8 16 0 -4
BITMAP
00
00
00
00
00
6e
32
22
22
44
44
44
28
28
30
00
ENDCHAR
STARTCHAR LtCapALring
ENCODING 817
SWIDTH 960 0
DWIDTH 8 0
BBX 8 16 0 -4
BITMAP
00
00
0c
0c
14
14
24
24
7c
44
84
84
20
50
20
00
ENDCHAR
STARTCHAR LtCapRLring
ENCODING 818
SWIDTH 960 0
DWIDTH 8 0
BBX 8 16 0 -4
BITMAP
00
00
1e
11
11
22
3c
30
28
48
44
44
10
28
10
00
ENDCHAR
STARTCHAR LtSmlALring
ENCODING 819
SWIDTH 960 0
DWIDTH 8 0
BBX 8 16 0 -4
BITMAP
00
00
00
00
00
1e
22
22
44
44
4c
32
10
28
10
00
ENDCHAR
STARTCHAR LtSmlLLring
ENCODING 820
SWIDTH 960 0
DWIDTH 8 0
BBX 8 16 0 -4
BITMAP
00
00
0c
04
04
08
08
08
08
10
14
18
10
28
10
00
ENDCHAR
STARTCHAR LtSmlRLring
ENCODING 821
SWIDTH 960 0
DWIDTH 8 0
BBX 8 16 0 -4
BITMAP
00
00
00
00
00
16
3a
10
10
20
20
20
20
50
20
00
ENDCHAR
STARTCHAR LtSmlLMacronLring
ENCODING 822
SWIDTH 960 0
DWIDTH 8 0
BBX 8 16 0 -4
BITMAP
0f
00
0c
04
04
08
08
08
08
10
14
18
10
28
10
00
ENDCHAR
STARTCHAR LtSmlRMacronLring
ENCODING 823
SWIDTH 960 0
DWIDTH 8 0
BBX 8 16 0 -4
BITMAP
00
00
1e
00
00
16
3a
10
10
20
20
20
20
50
20
00
ENDCHAR
STARTCHAR LtSmlRAcuteLring
ENCODING 824
SWIDTH 960 0
DWIDTH 8 0
BBX 8 16 0 -4
BITMAP
00
02
02
04
00
16
3a
10
10
20
20
20
20
50
20
00
ENDCHAR
STARTCHAR LtSmlRMacronAcuteLring
ENCODING 825
SWIDTH 960 0
DWIDTH 8 0
BBX 8 16 0 -4
BITMAP
01
06
00
1e
00
16
3a
10
10
20
20
20
20
50
20
00
ENDCHAR
STARTCHAR LtSmlRGraveLring
ENCODING 826
SWIDTH 960 0
DWIDTH 8 0
BBX 8 16 0 -4
BITMAP
00
08
08
04
00
16
3a
10
10
20
20
20
20
50
20
00
ENDCHAR
STARTCHAR LtCapULdrss
ENCODING 827
SWIDTH 960 0
DWIDTH 8 0
BBX 8 16 0 -4
BITMAP
00
00
21
21
41
42
42
42
82
84
84
78
00
48
48
00
ENDCHAR
STARTCHAR LtSmlULdrss
ENCODING 828
SWIDTH 960 0
DWIDTH 8 0
BBX 8 16 0 -4
BITMAP
00
00
00
00
00
62
22
22
42
44
4c
32
00
48
48
00
ENDCHAR
STARTCHAR LtCapBLmacron
ENCODING 829
SWIDTH 960 0
DWIDTH 8 0
BBX 8 16 0 -4
BITMAP
00
00
1e
11
11
22
3c
22
22
42
44
78
00
00
78
00
ENDCHAR
STARTCHAR LtCapDLmacron
ENCODING 830
SWIDTH 960 0
DWIDTH 8 0
BBX 8 16 0 -4
BITMAP
00
00
3c
22
22
42
42
42
44
84
88
f0
00
00
f0
00
ENDCHAR
STARTCHAR LtCapELmacron
ENCODING 831
SWIDTH 960 0
DWIDTH 8 0
BBX 8 16 0 -4
BITMAP
00
00
1f
10
10
20
3c
20
20
40
40
7c
00
00
78
00
ENDCHAR
STARTCHAR LtCapHLmacron
ENCODING 832
SWIDTH 960 0
DWIDTH 8 0
BBX 8 16 0 -4
BITMAP
00
00
21
21
21
42
7e
42
42
84
84
84
00
00
f0
00
ENDCHAR
STARTCHAR LtCapKLmacron
ENCODING 833
SWIDTH 960 0
DWIDTH 8 0
BBX 8 16 0 -4
BITMAP
00
00
21
22
24
48
70
50
48
88
84
84
00
00
f0
00
ENDCHAR
STARTCHAR LtCapLLmacron
ENCODING 834
SWIDTH 960 0
DWIDTH 8 0
BBX 8 16 0 -4
BITMAP
00
00
10
10
10
20
20
20
20
40
40
7c
00
00
f0
00
ENDCHAR
STARTCHAR LtCapNLmacron
ENCODING 835
SWIDTH 960 0
DWIDTH 8 0
BBX 8 16 0 -4
BITMAP
00
00
21
21
31
52
52
4a
4a
8c
84
84
00
00
f0
00
ENDCHAR
STARTCHAR LtCapOLmacron
ENCODING 836
SWIDTH 960 0
DWIDTH 8 0
BBX 8 16 0 -4
BITMAP
00
00
0e
11
21
21
41
41
42
42
44
38
00
00
78
00
ENDCHAR
STARTCHAR LtCapRLmacron
ENCODING 837
SWIDTH 960 0
DWIDTH 8 0
BBX 8 16 0 -4
BITMAP
00
00
1e
11
11
22
3c
30
28
48
44
44
00
00
f0
00
ENDCHAR
STARTCHAR LtCapTLmacron
ENCODING 838
SWIDTH 960 0
DWIDTH 8 0
BBX 8 16 0 -4
BITMAP
00
00
7f
08
08
10
10
10
10
20
20
20
00
00
f0
00
ENDCHAR
STARTCHAR LtCapZLmacron
ENCODING 839
SWIDTH 960 0
DWIDTH 8 0
BBX 8 16 0 -4
BITMAP
00
00
3f
01
02
04
08
10
20
40
80
fc
00
00
f0
00
ENDCHAR
STARTCHAR LtSmlBLmacron
ENCODING 840
SWIDTH 960 0
DWIDTH 8 0
BBX 8 16 0 -4
BITMAP
00
00
30
10
10
2c
32
22
22
44
44
38
00
00
78
00
ENDCHAR
STARTCHAR LtSmlDLmacron
ENCODING 841
SWIDTH 960 0
DWIDTH 8 0
BBX 8 16 0 -4
BITMAP
00
00
01
01
01
1e
22
22
42
44
4c
32
00
00
78
00
ENDCHAR
STARTCHAR LtSmlELmacron
ENCODING 842
SWIDTH 960 0
DWIDTH 8 0
BBX 8 16 0 -4
BITMAP
00
00
00
00
00
1c
22
24
78
40
44
38
00
00
78
00
ENDCHAR
STARTCHAR LtSmlHLmacron
ENCODING 843
SWIDTH 960 0
DWIDTH 8 0
BBX 8 16 0 -4
BITMAP
00
00
30
10
10
2e
32
22
22
44
44
46
00
00
78
00
ENDCHAR
STARTCHAR LtSmlKLmacron
ENCODING 844
SWIDTH 960 0
DWIDTH 8 0
BBX 8 16 0 -4
BITMAP
00
00
10
10
10
2e
32
22
3c
48
44
42
00
00
78
00
ENDCHAR
STARTCHAR LtSmlLLmacron
ENCODING 845
SWIDTH 960 0
DWIDTH 8 0
BBX 8 16 0 -4
BITMAP
00
00
0c
04
04
08
08
08
08
10
14
18
00
00
78
00
ENDCHAR
STARTCHAR LtSmlNLmacron
ENCODING 846
SWIDTH 960 0
DWIDTH 8 0
BBX 8 16 0 -4
BITMAP
00
00
00
00
00
6e
32
22
22
44
44
46
00
00
78
00
ENDCHAR
STARTCHAR LtSmlOLmacron
ENCODING 847
SWIDTH 960 0
DWIDTH 8 0
BBX 8 16 0 -4
BITMAP
00
00
00
00
00
1c
22
22
42
44
44
38
00
00
78
00
ENDCHAR
STARTCHAR LtSmlRLmacron
ENCODING 848
SWIDTH 960 0
DWIDTH 8 0
BBX 8 16 0 -4
BITMAP
00
00
00
00
00
16
3a
10
10
20
20
20
00
00
f0
00
ENDCHAR
STARTCHAR LtSmlTLmacron
ENCODING 849
SWIDTH 960 0
DWIDTH 8 0
BBX 8 16 0 -4
BITMAP
00
00
00
08
08
3e
08
10
10
10
24
18
00
00
3c
00
ENDCHAR
STARTCHAR LtSmlZLmacron
ENCODING 850
SWIDTH 960 0
DWIDTH 8 0
BBX 8 16 0 -4
BITMAP
00
00
00
00
00
1d
22
04
08
10
20
52
0c
00
78
00
ENDCHAR
STARTCHAR LtCapGHLmacron
ENCODING 851
SWIDTH 960 0
DWIDTH 8 0
BBX 8 16 0 -4
BITMAP
00
00
15
35
45
45
8e
aa
aa
aa
d4
d4
00
00
78
00
ENDCHAR
STARTCHAR LtCapKHLmacron
ENCODING 852
SWIDTH 960 0
DWIDTH 8 0
BBX 8 16 0 -4
BITMAP
00
00
2d
2d
55
55
6e
6a
6a
aa
b4
b4
00
00
78
00
ENDCHAR
STARTCHAR LtMixGHLmacron
ENCODING 853
SWIDTH 960 0
DWIDTH 8 0
BBX 8 16 0 -4
BITMAP
00
00
0a
1a
22
47
45
b5
95
aa
aa
6b
00
00
78
00
ENDCHAR
STARTCHAR LtMixKHLmacron
ENCODING 854
SWIDTH 960 0
DWIDTH 8 0
BBX 8 16 0 -4
BITMAP
00
00
2a
2a
2a
57
65
65
55
aa
aa
ab
00
00
78
00
ENDCHAR
STARTCHAR LtSmlGHLmacron
ENCODING 855
SWIDTH 960 0
DWIDTH 8 0
BBX 8 16 0 -4
BITMAP
00
00
02
02
02
37
55
55
95
aa
aa
6b
20
a0
fc
00
ENDCHAR
STARTCHAR LtSmlKHLmacron
ENCODING 856
SWIDTH 960 0
DWIDTH 8 0
BBX 8 16 0 -4
BITMAP
00
00
22
22
22
77
55
55
65
aa
aa
ab
00
00
78
00
ENDCHAR
STARTCHAR LtCapDLcircum
ENCODING 857
SWIDTH 960 0
DWIDTH 8 0
BBX 8 16 0 -4
BITMAP
00
00
3c
22
22
42
42
42
44
84
88
f0
00
60
90
00
ENDCHAR
STARTCHAR LtCapELcircum
ENCODING 858
SWIDTH 960 0
DWIDTH 8 0
BBX 8 16 0 -4
BITMAP
00
00
1f
10
10
20
3c
20
20
40
40
7c
00
30
48
00
ENDCHAR
STARTCHAR LtCapLLcircum
ENCODING 859
SWIDTH 960 0
DWIDTH 8 0
BBX 8 16 0 -4
BITMAP
00
00
10
10
10
20
20
20
20
40
40
7c
00
30
48
00
ENDCHAR
STARTCHAR LtCapNLcircum
ENCODING 860
SWIDTH 960 0
DWIDTH 8 0
BBX 8 16 0 -4
BITMAP
00
00
21
21
31
52
52
4a
4a
8c
84
84
00
30
48
00
ENDCHAR
STARTCHAR LtCapTLcircum
ENCODING 861
SWIDTH 960 0
DWIDTH 8 0
BBX 8 16 0 -4
BITMAP
00
00
7f
08
08
10
10
10
10
20
20
20
00
60
90
00
ENDCHAR
STARTCHAR LtCapULcircum
ENCODING 862
SWIDTH 960 0
DWIDTH 8 0
BBX 8 16 0 -4
BITMAP
00
00
21
21
41
42
42
42
82
84
84
78
00
60
90
00
ENDCHAR
STARTCHAR LtSmlDLcircum
ENCODING 863
SWIDTH 960 0
DWIDTH 8 0
BBX 8 16 0 -4
BITMAP
00
00
01
01
01
1e
22
22
42
44
4c
32
00
30
48
00
ENDCHAR
STARTCHAR LtSmlELcircum
ENCODING 864
SWIDTH 960 0
DWIDTH 8 0
BBX 8 16 0 -4
BITMAP
00
00
00
00
00
1c
22
24
78
40
44
38
00
30
48
00
ENDCHAR
STARTCHAR LtSmlLLcircum
ENCODING 865
SWIDTH 960 0
DWIDTH 8 0
BBX 8 16 0 -4
BITMAP
00
00
0c
04
04
08
08
08
08
10
14
18
00
18
24
00
ENDCHAR
STARTCHAR LtSmlNLcircum
ENCODING 866
SWIDTH 960 0
DWIDTH 8 0
BBX 8 16 0 -4
BITMAP
00
00
00
00
00
6e
32
22
22
44
44
46
00
30
48
00
ENDCHAR
STARTCHAR LtSmlTLcircum
ENCODING 867
SWIDTH 960 0
DWIDTH 8 0
BBX 8 16 0 -4
BITMAP
00
00
00
08
08
3e
08
10
10
10
24
18
00
30
48
00
ENDCHAR
STARTCHAR LtSmlULcircum
ENCODING 868
SWIDTH 960 0
DWIDTH 8 0
BBX 8 16 0 -4
BITMAP
00
00
00
00
00
62
22
22
42
44
4c
32
00
30
48
00
ENDCHAR
STARTCHAR LtCapHLbreve
ENCODING 869
SWIDTH 960 0
DWIDTH 8 0
BBX 8 16 0 -4
BITMAP
00
00
21
21
21
42
7e
42
42
84
84
84
00
48
30
00
ENDCHAR
STARTCHAR LtSmlHLbreve
ENCODING 870
SWIDTH 960 0
DWIDTH 8 0
BBX 8 16 0 -4
BITMAP
00
00
30
10
10
2e
32
22
22
44
44
46
00
48
30
00
ENDCHAR
STARTCHAR LtSmlILinvbreve
ENCODING 871
SWIDTH 960 0
DWIDTH 8 0
BBX 8 16 0 -4
BITMAP
00
00
04
04
00
0c
18
08
08
10
12
1c
00
18
24
00
ENDCHAR
STARTCHAR LtSmlOLinvbreve
ENCODING 872
SWIDTH 960 0
DWIDTH 8 0
BBX 8 16 0 -4
BITMAP
00
00
00
00
00
1c
22
22
42
44
44
38
00
30
48
00
ENDCHAR
STARTCHAR LtSmlULinvbreve
ENCODING 873
SWIDTH 960 0
DWIDTH 8 0
BBX 8 16 0 -4
BITMAP
00
00
00
00
00
62
22
22
42
44
4c
32
00
30
48
00
ENDCHAR
STARTCHAR LtSmlATrndLinvbreve
ENCODING 874
SWIDTH 960 0
DWIDTH 8 0
BBX 8 16 0 -4
BITMAP
00
00
00
00
00
6c
32
22
3c
40
48
38
00
30
48
00
ENDCHAR
STARTCHAR LtCapELtilde
ENCODING 875
SWIDTH 960 0
DWIDTH 8 0
BBX 8 16 0 -4
BITMAP
00
00
1f
10
10
20
3c
20
20
40
40
7c
00
24
58
00
ENDCHAR
STARTCHAR LtCapILtilde
ENCODING 876
SWIDTH 960 0
DWIDTH 8 0
BBX 8 16 0 -4
BITMAP
00
00
1f
04
04
08
08
08
08
10
10
7c
00
24
58
00
ENDCHAR
STARTCHAR LtCapULtilde
ENCODING 877
SWIDTH 960 0
DWIDTH 8 0
BBX 8 16 0 -4
BITMAP
00
00
21
21
41
42
42
42
82
84
84
78
00
48
b0
00
ENDCHAR
STARTCHAR LtSmlELtilde
ENCODING 878
SWIDTH 960 0
DWIDTH 8 0
BBX 8 16 0 -4
BITMAP
00
00
00
00
00
1c
22
24
78
40
44
38
00
24
58
00
ENDCHAR
STARTCHAR LtSmlILtilde
ENCODING 879
SWIDTH 960 0
DWIDTH 8 0
BBX 8 16 0 -4
BITMAP
00
00
04
04
00
0c
18
08
08
10
12
1c
00
24
58
00
ENDCHAR
STARTCHAR LtSmlULtilde
ENCODING 880
SWIDTH 960 0
DWIDTH 8 0
BBX 8 16 0 -4
BITMAP
00
00
00
00
00
62
22
22
42
44
4c
32
00
24
58
00
ENDCHAR
STARTCHAR LtCapCCedilla
ENCODING 881
SWIDTH 960 0
DWIDTH 8 0
BBX 8 16 0 -4
BITMAP
00
00
0e
11
20
20
40
40
40
40
44
38
20
10
60
00
ENDCHAR
STARTCHAR LtCapECedilla
ENCODING 882
SWIDTH 960 0
DWIDTH 8 0
BBX 8 16 0 -4
BITMAP
00
00
1f
10
10
20
3c
20
20
40
40
7c
20
10
60
00
ENDCHAR
STARTCHAR LtCapHCedilla
ENCODING 883
SWIDTH 960 0
DWIDTH 8 0
BBX 8 16 0 -4
BITMAP
00
00
21
21
21
42
7e
42
42
84
84
84
20
10
60
00
ENDCHAR
STARTCHAR LtCapSCedilla
ENCODING 884
SWIDTH 960 0
DWIDTH 8 0
BBX 8 16 0 -4
BITMAP
00
00
1e
21
20
20
10
08
04
04
84
78
40
20
c0
00
ENDCHAR
STARTCHAR LtCapTCedilla
ENCODING 885
SWIDTH 960 0
DWIDTH 8 0
BBX 8 16 0 -4
BITMAP
00
00
7f
08
08
10
10
10
10
20
20
20
30
10
60
00
ENDCHAR
STARTCHAR LtSmlCCedilla
ENCODING 886
SWIDTH 960 0
DWIDTH 8 0
BBX 8 16 0 -4
BITMAP
00
00
00
00
00
1c
22
20
40
40
44
38
20
10
60
00
ENDCHAR
STARTCHAR LtSmlECedilla
ENCODING 887
SWIDTH 960 0
DWIDTH 8 0
BBX 8 16 0 -4
BITMAP
00
00
00
00
00
1c
22
24
78
40
44
38
20
10
60
00
ENDCHAR
STARTCHAR LtSmlHCedilla
ENCODING 888
SWIDTH 960 0
DWIDTH 8 0
BBX 8 16 0 -4
BITMAP
00
00
30
10
10
2e
32
22
22
44
44
46
10
08
30
00
ENDCHAR
STARTCHAR LtSmlSCedilla
ENCODING 889
SWIDTH 960 0
DWIDTH 8 0
BBX 8 16 0 -4
BITMAP
00
00
00
00
00
1c
22
20
18
04
44
38
20
10
60
00
ENDCHAR
STARTCHAR LtSmlTCedilla
ENCODING 890
SWIDTH 960 0
DWIDTH 8 0
BBX 8 16 0 -4
BITMAP
00
00
00
08
08
3e
08
10
10
10
24
18
10
08
30
00
ENDCHAR
STARTCHAR LtCapCAcuteCedilla
ENCODING 891
SWIDTH 960 0
DWIDTH 8 0
BBX 8 16 0 -4
BITMAP
01
06
00
0e
11
20
20
40
40
40
44
38
20
10
60
00
ENDCHAR
STARTCHAR LtSmlCAcuteCedilla
ENCODING 892
SWIDTH 960 0
DWIDTH 8 0
BBX 8 16 0 -4
BITMAP
00
04
04
08
00
1c
22
20
40
40
44
38
20
10
60
00
ENDCHAR
STARTCHAR LtCapEBreveCedilla
ENCODING 893
SWIDTH 960 0
DWIDTH 8 0
BBX 8 16 0 -4
BITMAP
09
06
00
1f
10
10
20
3c
20
40
40
7c
20
10
60
00
ENDCHAR
STARTCHAR LtSmlEBreveCedilla
ENCODING 894
SWIDTH 960 0
DWIDTH 8 0
BBX 8 16 0 -4
BITMAP
00
00
12
0c
00
1c
22
24
78
40
44
38
20
10
60
00
ENDCHAR
STARTCHAR LtCapDComma
ENCODING 895
SWIDTH 960 0
DWIDTH 8 0
BBX 8 16 0 -4
BITMAP
00
00
3c
22
22
42
42
42
44
84
88
f0
40
20
40
00
ENDCHAR
STARTCHAR LtCapGComma
ENCODING 896
SWIDTH 960 0
DWIDTH 8 0
BBX 8 16 0 -4
BITMAP
00
00
0e
11
20
20
40
4e
42
44
44
3c
20
10
20
00
ENDCHAR
STARTCHAR LtCapKComma
ENCODING 897
SWIDTH 960 0
DWIDTH 8 0
BBX 8 16 0 -4
BITMAP
00
00
21
22
24
48
70
50
48
88
84
84
20
10
20
00
ENDCHAR
STARTCHAR LtCapLComma
ENCODING 898
SWIDTH 960 0
DWIDTH 8 0
BBX 8 16 0 -4
BITMAP
00
00
10
10
10
20
20
20
20
40
40
7c
20
10
20
00
ENDCHAR
STARTCHAR LtCapNComma
ENCODING 899
SWIDTH 960 0
DWIDTH 8 0
BBX 8 16 0 -4
BITMAP
00
00
21
21
31
52
52
4a
4a
8c
84
84
20
10
20
00
ENDCHAR
STARTCHAR LtCapRComma
ENCODING 900
SWIDTH 960 0
DWIDTH 8 0
BBX 8 16 0 -4
BITMAP
00
00
1e
11
11
22
3c
30
28
48
44
44
10
08
10
00
ENDCHAR
STARTCHAR LtCapSComma
ENCODING 901
SWIDTH 960 0
DWIDTH 8 0
BBX 8 16 0 -4
BITMAP
00
00
1e
21
20
20
10
08
04
04
84
78
40
20
40
00
ENDCHAR
STARTCHAR LtCapTComma
ENCODING 902
SWIDTH 960 0
DWIDTH 8 0
BBX 8 16 0 -4
BITMAP
00
00
7f
08
08
10
10
10
10
20
20
20
10
10
20
00
ENDCHAR
STARTCHAR LtSmlDComma
ENCODING 903
SWIDTH 960 0
DWIDTH 8 0
BBX 8 16 0 -4
BITMAP
00
00
01
01
01
1e
22
22
42
44
4c
32
20
10
20
00
ENDCHAR
STARTCHAR LtSmlGComma
ENCODING 904
SWIDTH 960 0
DWIDTH 8 0
BBX 8 16 0 -4
BITMAP
00
04
08
04
00
1e
22
22
44
44
4c
34
08
48
70
00
ENDCHAR
STARTCHAR LtSmlKComma
ENCODING 905
SWIDTH 960 0
DWIDTH 8 0
BBX 8 16 0 -4
BITMAP
00
00
10
10
10
2e
32
22
3c
48
44
42
10
08
10
00
ENDCHAR
STARTCHAR LtSmlLComma
ENCODING 906
SWIDTH 960 0
DWIDTH 8 0
BBX 8 16 0 -4
BITMAP
00
00
0c
04
04
08
08
08
08
10
14
18
10
08
10
00
ENDCHAR
STARTCHAR LtSmlNComma
ENCODING 907
SWIDTH 960 0
DWIDTH 8 0
BBX 8 16 0 -4
BITMAP
00
00
00
00
00
6e
32
22
22
44
44
46
10
08
10
00
ENDCHAR
STARTCHAR LtSmlRComma
ENCODING 908
SWIDTH 960 0
DWIDTH 8 0
BBX 8 16 0 -4
BITMAP
00
00
00
00
00
16
3a
10
10
20
20
20
10
10
20
00
ENDCHAR
STARTCHAR LtSmlSComma
ENCODING 909
SWIDTH 960 0
DWIDTH 8 0
BBX 8 16 0 -4
BITMAP
00
00
00
00
00
1c
22
20
18
04
44
38
20
10
20
00
ENDCHAR
STARTCHAR LtSmlTComma
ENCODING 910
SWIDTH 960 0
DWIDTH 8 0
BBX 8 16 0 -4
BITMAP
00
00
00
08
08
3e
08
10
10
10
24
18
10
08
10
00
ENDCHAR
STARTCHAR LtCapAOgonek
ENCODING 911
SWIDTH 960 0
DWIDTH 8 0
BBX 8 16 0 -4
BITMAP
00
00
0c
0c
14
14
24
24
7c
44
84
84
08
10
0c
00
ENDCHAR
STARTCHAR LtCapEOgonek
ENCODING 912
SWIDTH 960 0
DWIDTH 8 0
BBX 8 16 0 -4
BITMAP
00
00
1f
10
10
20
3c
20
20
40
40
7c
08
10
0c
00
ENDCHAR
STARTCHAR LtCapIOgonek
ENCODING 913
SWIDTH 960 0
DWIDTH 8 0
BBX 8 16 0 -4
BITMAP
00
00
1f
04
04
08
08
08
08
10
10
7c
10
20
18
00
ENDCHAR
STARTCHAR LtCapOOgonek
ENCODING 914
SWIDTH 960 0
DWIDTH 8 0
BBX 8 16 0 -4
BITMAP
00
00
0e
11
21
21
41
41
42
42
44
38
10
20
18
00
ENDCHAR
STARTCHAR LtCapUOgonek
ENCODING 915
SWIDTH 960 0
DWIDTH 8 0
BBX 8 16 0 -4
BITMAP
00
00
21
21
41
42
42
42
82
84
84
78
10
20
18
00
ENDCHAR
STARTCHAR LtSmlAOgonek
ENCODING 916
SWIDTH 960 0
DWIDTH 8 0
BBX 8 16 0 -4
BITMAP
00
00
00
00
00
1e
22
22
44
44
4c
36
08
10
0c
00
ENDCHAR
STARTCHAR LtSmlEOgonek
ENCODING 917
SWIDTH 960 0
DWIDTH 8 0
BBX 8 16 0 -4
BITMAP
00
00
00
00
00
1c
22
24
78
40
44
38
10
20
18
00
ENDCHAR
STARTCHAR LtSmlIOgonek
ENCODING 918
SWIDTH 960 0
DWIDTH 8 0
BBX 8 16 0 -4
BITMAP
00
00
04
04
00
0c
18
08
08
10
12
1c
08
10
0c
00
ENDCHAR
STARTCHAR LtSmlOOgonek
ENCODING 919
SWIDTH 960 0
DWIDTH 8 0
BBX 8 16 0 -4
BITMAP
00
00
00
00
00
1c
22
22
42
44
44
38
10
20
18
00
ENDCHAR
STARTCHAR LtSmlUOgonek
ENCODING 920
SWIDTH 960 0
DWIDTH 8 0
BBX 8 16 0 -4
BITMAP
00
00
00
00
00
62
22
22
42
44
4c
36
08
10
0c
00
ENDCHAR
STARTCHAR LtCapOMacronOgonek
ENCODING 921
SWIDTH 960 0
DWIDTH 8 0
BBX 8 16 0 -4
BITMAP
0f
00
0e
11
21
21
41
41
42
42
44
38
10
20
18
00
ENDCHAR
STARTCHAR LtSmlOMacronOgonek
ENCODING 922
SWIDTH 960 0
DWIDTH 8 0
BBX 8 16 0 -4
BITMAP
00
00
1e
00
00
1c
22
22
42
44
44
38
10
20
18
00
ENDCHAR
STARTCHAR LtCapAAcuteOgonek
ENCODING 923
SWIDTH 960 0
DWIDTH 8 0
BBX 8 16 0 -4
BITMAP
01
06
00
0c
0c
14
14
24
7c
44
84
84
08
10
0c
00
ENDCHAR
STARTCHAR LtCapEAcuteOgonek
ENCODING 924
SWIDTH 960 0
DWIDTH 8 0
BBX 8 16 0 -4
BITMAP
01
06
00
1f
10
10
20
3c
20
40
40
7c
08
10
0c
00
ENDCHAR
STARTCHAR LtCapIAcuteOgonek
ENCODING 925
SWIDTH 960 0
DWIDTH 8 0
BBX 8 16 0 -4
BITMAP
01
06
00
1f
04
04
08
08
08
10
10
7c
10
20
18
00
ENDCHAR
STARTCHAR LtCapOAcuteOgonek
ENCODING 926
SWIDTH 960 0
DWIDTH 8 0
BBX 8 16 0 -4
BITMAP
01
06
00
0e
11
21
21
41
42
42
44
38
10
20
18
00
ENDCHAR
STARTCHAR LtCapUAcuteOgonek
ENCODING 927
SWIDTH 960 0
DWIDTH 8 0
BBX 8 16 0 -4
BITMAP
02
0c
00
21
21
41
42
42
82
84
84
78
10
20
18
00
ENDCHAR
STARTCHAR LtSmlAAcuteOgonek
ENCODING 928
SWIDTH 960 0
DWIDTH 8 0
BBX 8 16 0 -4
BITMAP
00
02
02
04
00
1e
22
22
44
44
4c
36
08
10
0c
00
ENDCHAR
STARTCHAR LtSmlEAcuteOgonek
ENCODING 929
SWIDTH 960 0
DWIDTH 8 0
BBX 8 16 0 -4
BITMAP
00
04
04
08
00
1c
22
24
78
40
44
38
10
20
18
00
ENDCHAR
STARTCHAR LtSmlIAcuteOgonek
ENCODING 930
SWIDTH 960 0
DWIDTH 8 0
BBX 8 16 0 -4
BITMAP
00
04
04
08
00
0c
18
08
08
10
12
1c
08
10
0c
00
ENDCHAR
STARTCHAR LtSmlOAcuteOgonek
ENCODING 931
SWIDTH 960 0
DWIDTH 8 0
BBX 8 16 0 -4
BITMAP
00
02
02
04
00
1c
22
22
42
44
44
38
10
20
18
00
ENDCHAR
STARTCHAR LtSmlUAcuteOgonek
ENCODING 932
SWIDTH 960 0
DWIDTH 8 0
BBX 8 16 0 -4
BITMAP
00
04
04
08
00
62
22
22
42
44
4c
36
08
10
0c
00
ENDCHAR
STARTCHAR CyCapA
ENCODING 933
SWIDTH 960 0
DWIDTH 8 0
BBX 8 16 0 -4
BITMAP
00
00
0c
0c
14
14
24
24
7c
44
84
84
00
00
00
00
ENDCHAR
STARTCHAR CyCapBe
ENCODING 934
SWIDTH 960 0
DWIDTH 8 0
BBX 8 16 0 -4
BITMAP
00
00
1f
10
10
20
3c
22
22
42
44
78
00
00
00
00
ENDCHAR
STARTCHAR CyCapVe
ENCODING 935
SWIDTH 960 0
DWIDTH 8 0
BBX 8 16 0 -4
BITMAP
00
00
1e
11
11
22
3c
22
22
42
44
78
00
00
00
00
ENDCHAR
STARTCHAR CyCapGhe
ENCODING 936
SWIDTH 960 0
DWIDTH 8 0
BBX 8 16 0 -4
BITMAP
00
00
1f
10
10
20
20
20
20
40
40
40
00
00
00
00
ENDCHAR
STARTCHAR CyCapDe
ENCODING 937
SWIDTH 960 0
DWIDTH 8 0
BBX 8 16 0 -4
BITMAP
00
00
1f
11
12
12
22
22
24
24
44
7e
c2
84
84
00
ENDCHAR
STARTCHAR CyCapIe
ENCODING 938
SWIDTH 960 0
DWIDTH 8 0
BBX 8 16 0 -4
BITMAP
00
00
1f
10
10
20
3c
20
20
40
40
7c
00
00
00
00
ENDCHAR
STARTCHAR CyCapZhe
ENCODING 939
SWIDTH 960 0
DWIDTH 8 0
BBX 8 16 0 -4
BITMAP
00
00
25
29
2a
2a
1c
38
54
54
94
a4
00
00
00
00
ENDCHAR
STARTCHAR CyCapZe
ENCODING 940
SWIDTH 960 0
DWIDTH 8 0
BBX 8 16 0 -4
BITMAP
00
00
1c
22
02
04
18
04
04
04
88
70
00
00
00
00
ENDCHAR
STARTCHAR CyCapI
ENCODING 941
SWIDTH 960 0
DWIDTH 8 0
BBX 8 16 0 -4
BITMAP
00
00
21
23
25
4a
4a
52
52
a4
c4
84
00
00
00
00
ENDCHAR
STARTCHAR CyCapKa
ENCODING 942
SWIDTH 960 0
DWIDTH 8 0
BBX 8 16 0 -4
BITMAP
00
00
21
22
24
48
70
50
48
88
84
84
00
00
00
00
ENDCHAR
STARTCHAR CyCapEl
ENCODING 943
SWIDTH 960 0
DWIDTH 8 0
BBX 8 16 0 -4
BITMAP
00
00
07
0d
09
09
12
12
12
24
a4
c4
00
00
00
00
ENDCHAR
STARTCHAR CyCapElBul
ENCODING 944
SWIDTH 960 0
DWIDTH 8 0
BBX 8 16 0 -4
BITMAP
00
00
0c
0c
14
14
24
24
44
44
84
84
00
00
00
00
ENDCHAR
STARTCHAR CyCapEm
ENCODING 945
SWIDTH 960 0
DWIDTH 8 0
BBX 8 16 0 -4
BITMAP
00
00
21
21
33
56
5a
5a
42
84
84
84
00
00
00
00
ENDCHAR
STARTCHAR CyCapEn
ENCODING 946
SWIDTH 960 0
DWIDTH 8 0
BBX 8 16 0 -4
BITMAP
00
00
21
21
21
42
7e
42
42
84
84
84
00
00
00
00
ENDCHAR
STARTCHAR CyCapO
ENCODING 947
SWIDTH 960 0
DWIDTH 8 0
BBX 8 16 0 -4
BITMAP
00
00
0e
11
21
21
41
41
42
42
44
38
00
00
00
00
ENDCHAR
STARTCHAR CyCapPe
ENCODING 948
SWIDTH 960 0
DWIDTH 8 0
BBX 8 16 0 -4
BITMAP
00
00
3f
21
21
42
42
42
42
84
84
84
00
00
00
00
ENDCHAR
STARTCHAR CyCapEr
ENCODING 949
SWIDTH 960 0
DWIDTH 8 0
BBX 8 16 0 -4
BITMAP
00
00
1e
11
11
21
22
3c
20
40
40
40
00
00
00
00
ENDCHAR
STARTCHAR CyCapEs
ENCODING 950
SWIDTH 960 0
DWIDTH 8 0
BBX 8 16 0 -4
BITMAP
00
00
0e
11
20
20
40
40
40
40
44
38
00
00
00
00
ENDCHAR
STARTCHAR CyCapTe
ENCODING 951
SWIDTH 960 0
DWIDTH 8 0
BBX 8 16 0 -4
BITMAP
00
00
7f
08
08
10
10
10
10
20
20
20
00
00
00
00
ENDCHAR
STARTCHAR CyCapU
ENCODING 952
SWIDTH 960 0
DWIDTH 8 0
BBX 8 16 0 -4
BITMAP
00
00
21
21
12
12
14
08
08
10
a0
40
00
00
00
00
ENDCHAR
STARTCHAR CyCapEf
ENCODING 953
SWIDTH 960 0
DWIDTH 8 0
BBX 8 16 0 -4
BITMAP
00
00
04
1e
25
49
49
49
49
52
3c
10
00
00
00
00
ENDCHAR
STARTCHAR CyCapHa
ENCODING 954
SWIDTH 960 0
DWIDTH 8 0
BBX 8 16 0 -4
BITMAP
00
00
21
21
12
14
18
18
28
48
84
84
00
00
00
00
ENDCHAR
STARTCHAR CyCapTse
ENCODING 955
SWIDTH 960 0
DWIDTH 8 0
BBX 8 16 0 -4
BITMAP
00
00
21
21
21
42
42
42
42
84
84
fe
04
04
08
00
ENDCHAR
STARTCHAR CyCapChe
ENCODING 956
SWIDTH 960 0
DWIDTH 8 0
BBX 8 16 0 -4
BITMAP
00
00
21
21
21
42
42
3e
02
04
04
04
00
00
00
00
ENDCHAR
STARTCHAR CyCapSha
ENCODING 957
SWIDTH 960 0
DWIDTH 8 0
BBX 8 16 0 -4
BITMAP
00
00
25
29
49
49
4a
52
92
92
94
fc
00
00
00
00
ENDCHAR
STARTCHAR CyCapShcha
ENCODING 958
SWIDTH 960 0
DWIDTH 8 0
BBX 8 16 0 -4
BITMAP
00
00
25
29
49
49
4a
52
92
92
94
fe
04
04
08
00
ENDCHAR
STARTCHAR CyCapHardsign
ENCODING 959
SWIDTH 960 0
DWIDTH 8 0
BBX 8 16 0 -4
BITMAP
00
00
70
10
10
20
3c
22
22
42
44
78
00
00
00
00
ENDCHAR
STARTCHAR CyCapYeru
ENCODING 960
SWIDTH 960 0
DWIDTH 8 0
BBX 8 16 0 -4
BITMAP
00
00
21
21
21
42
72
4a
4a
8c
94
e4
00
00
00
00
ENDCHAR
STARTCHAR CyCapSoftsign
ENCODING 961
SWIDTH 960 0
DWIDTH 8 0
BBX 8 16 0 -4
BITMAP
00
00
20
20
20
40
7c
42
42
82
84
f8
00
00
00
00
ENDCHAR
STARTCHAR CyCapE
ENCODING 962
SWIDTH 960 0
DWIDTH 8 0
BBX 8 16 0 -4
BITMAP
00
00
1c
22
02
02
3e
02
04
04
88
70
00
00
00
00
ENDCHAR
STARTCHAR CyCapYu
ENCODING 963
SWIDTH 960 0
DWIDTH 8 0
BBX 8 16 0 -4
BITMAP
00
00
22
25
29
49
71
51
52
92
94
88
00
00
00
00
ENDCHAR
STARTCHAR CyCapYa
ENCODING 964
SWIDTH 960 0
DWIDTH 8 0
BBX 8 16 0 -4
BITMAP
00
00
0f
11
21
22
1e
12
22
24
44
84
00
00
00
00
ENDCHAR
STARTCHAR CyCapDje
ENCODING 965
SWIDTH 960 0
DWIDTH 8 0
BBX 8 16 0 -4
BITMAP
00
00
fe
10
10
1c
22
22
22
42
44
44
04
08
70
00
ENDCHAR
STARTCHAR CyCapTshe
ENCODING 966
SWIDTH 960 0
DWIDTH 8 0
BBX 8 16 0 -4
BITMAP
00
00
fe
10
10
1c
22
22
22
44
44
44
00
00
00
00
ENDCHAR
STARTCHAR CyCapLje
ENCODING 967
SWIDTH 960 0
DWIDTH 8 0
BBX 8 16 0 -4
BITMAP
00
00
1c
14
14
28
2e
29
29
51
52
9c
00
00
00
00
ENDCHAR
STARTCHAR CyCapNje
ENCODING 968
SWIDTH 960 0
DWIDTH 8 0
BBX 8 16 0 -4
BITMAP
00
00
24
24
24
48
7e
49
49
91
92
9c
00
00
00
00
ENDCHAR
STARTCHAR CyCapDzhe
ENCODING 969
SWIDTH 960 0
DWIDTH 8 0
BBX 8 16 0 -4
BITMAP
00
00
21
21
21
42
42
42
42
84
84
fc
20
20
40
00
ENDCHAR
STARTCHAR CyCapIeUkr
ENCODING 970
SWIDTH 960 0
DWIDTH 8 0
BBX 8 16 0 -4
BITMAP
00
00
0e
11
20
20
7c
40
40
40
44
38
00
00
00
00
ENDCHAR
STARTCHAR CyCapDze
ENCODING 971
SWIDTH 960 0
DWIDTH 8 0
BBX 8 16 0 -4
BITMAP
00
00
1e
21
20
20
10
08
04
04
84
78
00
00
00
00
ENDCHAR
STARTCHAR CyCapIUkr
ENCODING 972
SWIDTH 960 0
DWIDTH 8 0
BBX 8 16 0 -4
BITMAP
00
00
1f
04
04
08
08
08
08
10
10
7c
00
00
00
00
ENDCHAR
STARTCHAR CyCapJe
ENCODING 973
SWIDTH 960 0
DWIDTH 8 0
BBX 8 16 0 -4
BITMAP
00
00
07
02
02
04
04
04
04
88
88
70
00
00
00
00
ENDCHAR
STARTCHAR CyCapYat
ENCODING 974
SWIDTH 960 0
DWIDTH 8 0
BBX 8 16 0 -4
BITMAP
00
00
10
10
fc
20
3c
22
22
42
44
78
00
00
00
00
ENDCHAR
STARTCHAR CyCapFita
ENCODING 975
SWIDTH 960 0
DWIDTH 8 0
BBX 8 16 0 -4
BITMAP
00
00
0e
11
21
21
7f
41
42
42
44
38
00
00
00
00
ENDCHAR
STARTCHAR CyCapIzhitsa
ENCODING 976
SWIDTH 960 0
DWIDTH 8 0
BBX 8 16 0 -4
BITMAP
00
00
21
22
24
24
28
28
30
30
20
20
00
00
00
00
ENDCHAR
STARTCHAR CyCapLittleyus
ENCODING 977
SWIDTH 960 0
DWIDTH 8 0
BBX 8 16 0 -4
BITMAP
00
00
06
06
0a
0a
12
3e
2a
4a
92
92
00
00
00
00
ENDCHAR
STARTCHAR CyCapBigyus
ENCODING 978
SWIDTH 960 0
DWIDTH 8 0
BBX 8 16 0 -4
BITMAP
00
00
3f
21
12
14
1c
38
54
54
94
a4
00
00
00
00
ENDCHAR
STARTCHAR CyCapOmega
ENCODING 979
SWIDTH 960 0
DWIDTH 8 0
BBX 8 16 0 -4
BITMAP
00
00
21
21
49
49
4a
52
92
92
fc
48
00
00
00
00
ENDCHAR
STARTCHAR CyCapOmegaBroad
ENCODING 980
SWIDTH 960 0
DWIDTH 8 0
BBX 8 16 0 -4
BITMAP
00
00
31
41
41
41
81
99
92
92
92
6c
00
00
00
00
ENDCHAR
STARTCHAR CyCapPsi
ENCODING 981
SWIDTH 960 0
DWIDTH 8 0
BBX 8 16 0 -4
BITMAP
00
00
49
49
49
92
92
7c
10
20
20
20
00
00
00
00
ENDCHAR
STARTCHAR CyCapKsi
ENCODING 982
SWIDTH 960 0
DWIDTH 8 0
BBX 8 16 0 -4
BITMAP
12
0c
00
1c
22
02
04
18
04
04
08
70
80
70
08
00
ENDCHAR
STARTCHAR CyCapKoppa
ENCODING 983
SWIDTH 960 0
DWIDTH 8 0
BBX 8 16 0 -4
BITMAP
00
00
0e
11
20
20
40
40
40
40
40
38
08
10
10
00
ENDCHAR
STARTCHAR CyCapYn
ENCODING 984
SWIDTH 960 0
DWIDTH 8 0
BBX 8 16 0 -4
BITMAP
00
00
0c
0c
1c
1c
2c
54
54
94
10
20
20
20
20
00
ENDCHAR
STARTCHAR CyCapSchwa
ENCODING 985
SWIDTH 960 0
DWIDTH 8 0
BBX 8 16 0 -4
BITMAP
00
00
0e
11
01
01
01
3e
42
42
44
38
00
00
00
00
ENDCHAR
STARTCHAR CyCapQa
ENCODING 986
SWIDTH 960 0
DWIDTH 8 0
BBX 8 16 0 -4
BITMAP
00
00
0e
11
21
21
41
41
42
52
54
38
06
00
00
00
ENDCHAR
STARTCHAR CyCapWe
ENCODING 987
SWIDTH 960 0
DWIDTH 8 0
BBX 8 16 0 -4
BITMAP
00
00
21
21
21
22
2a
5a
6a
6c
44
44
00
00
00
00
ENDCHAR
STARTCHAR CyCapDzeAbkh
ENCODING 988
SWIDTH 960 0
DWIDTH 8 0
BBX 8 16 0 -4
BITMAP
00
00
3f
01
02
04
0c
02
02
02
84
78
00
00
00
00
ENDCHAR
STARTCHAR CyCapUStrt
ENCODING 989
SWIDTH 960 0
DWIDTH 8 0
BBX 8 16 0 -4
BITMAP
00
00
21
21
12
12
14
08
08
10
10
10
00
00
00
00
ENDCHAR
STARTCHAR CyCapShha
ENCODING 990
SWIDTH 960 0
DWIDTH 8 0
BBX 8 16 0 -4
BITMAP
00
00
20
20
20
40
7c
42
42
84
84
84
00
00
00
00
ENDCHAR
STARTCHAR CyCapDeKomi
ENCODING 991
SWIDTH 960 0
DWIDTH 8 0
BBX 8 16 0 -4
BITMAP
00
00
01
01
01
02
1e
22
42
44
44
3c
00
00
00
00
ENDCHAR
STARTCHAR CyCapSemisoftsign
ENCODING 992
SWIDTH 960 0
DWIDTH 8 0
BBX 8 16 0 -4
BITMAP
00
00
20
20
78
40
7c
42
42
82
84
f8
00
00
00
00
ENDCHAR
STARTCHAR CyCapPalochka
ENCODING 993
SWIDTH 960 0
DWIDTH 8 0
BBX 8 16 0 -4
BITMAP
00
00
0e
04
04
08
08
08
08
10
10
38
00
00
00
00
ENDCHAR
STARTCHAR CySmlA
ENCODING 994
SWIDTH 960 0
DWIDTH 8 0
BBX 8 16 0 -4
BITMAP
00
00
00
00
00
1e
22
22
44
44
4c
32
00
00
00
00
ENDCHAR
STARTCHAR CySmlBe
ENCODING 995
SWIDTH 960 0
DWIDTH 8 0
BBX 8 16 0 -4
BITMAP
00
00
02
0c
10
20
2c
32
42
42
44
38
00
00
00
00
ENDCHAR
STARTCHAR CySmlBeSrb
ENCODING 996
SWIDTH 960 0
DWIDTH 8 0
BBX 8 16 0 -4
BITMAP
00
00
0f
10
10
08
14
22
42
42
44
38
00
00
00
00
ENDCHAR
STARTCHAR CySmlVe
ENCODING 997
SWIDTH 960 0
DWIDTH 8 0
BBX 8 16 0 -4
BITMAP
00
00
0c
12
12
24
3c
22
42
44
44
38
00
00
00
00
ENDCHAR
STARTCHAR CySmlVeBul
ENCODING 998
SWIDTH 960 0
DWIDTH 8 0
BBX 8 16 0 -4
BITMAP
00
00
0c
12
12
1c
24
22
22
44
64
58
00
00
00
00
ENDCHAR
STARTCHAR CySmlGhe
ENCODING 999
SWIDTH 960 0
DWIDTH 8 0
BBX 8 16 0 -4
BITMAP
00
00
00
00
00
18
24
04
18
20
24
18
00
00
00
00
ENDCHAR
STARTCHAR CySmlGheSrb
ENCODING 1000
SWIDTH 960 0
DWIDTH 8 0
BBX 8 16 0 -4
BITMAP
00
00
1e
00
00
0c
18
08
08
10
12
1c
00
00
00
00
ENDCHAR
STARTCHAR CySmlGheBul
ENCODING 1001
SWIDTH 960 0
DWIDTH 8 0
BBX 8 16 0 -4
BITMAP
00
00
00
00
00
18
24
04
18
20
24
18
00
00
00
00
ENDCHAR
STARTCHAR CySmlDe
ENCODING 1002
SWIDTH 960 0
DWIDTH 8 0
BBX 8 16 0 -4
BITMAP
00
00
08
04
02
02
1e
22
42
44
44
38
00
00
00
00
ENDCHAR
STARTCHAR CySmlDeSrb
ENCODING 1003
SWIDTH 960 0
DWIDTH 8 0
BBX 8 16 0 -4
BITMAP
00
00
00
00
00
1e
22
22
44
44
4c
34
08
48
70
00
ENDCHAR
STARTCHAR CySmlDeBul
ENCODING 1004
SWIDTH 960 0
DWIDTH 8 0
BBX 8 16 0 -4
BITMAP
00
00
00
00
00
1e
22
22
44
44
4c
34
08
48
70
00
ENDCHAR
STARTCHAR CySmlIe
ENCODING 1005
SWIDTH 960 0
DWIDTH 8 0
BBX 8 16 0 -4
BITMAP
00
00
00
00
00
1c
22
24
78
40
44
38
00
00
00
00
ENDCHAR
STARTCHAR CySmlZhe
ENCODING 1006
SWIDTH 960 0
DWIDTH 8 0
BBX 8 16 0 -4
BITMAP
00
00
00
00
00
49
2a
2a
3c
54
54
92
00
00
00
00
ENDCHAR
STARTCHAR CySmlZheBul
ENCODING 1007
SWIDTH 960 0
DWIDTH 8 0
BBX 8 16 0 -4
BITMAP
00
00
04
04
04
49
2a
2a
3c
54
54
92
00
00
00
00
ENDCHAR
STARTCHAR CySmlZe
ENCODING 1008
SWIDTH 960 0
DWIDTH 8 0
BBX 8 16 0 -4
BITMAP
00
00
00
00
00
1c
12
02
0c
04
44
38
00
00
00
00
ENDCHAR
STARTCHAR CySmlZeBul
ENCODING 1009
SWIDTH 960 0
DWIDTH 8 0
BBX 8 16 0 -4
BITMAP
00
00
00
00
00
1c
12
02
04
18
04
04
04
88
70
00
ENDCHAR
STARTCHAR CySmlI
ENCODING 1010
SWIDTH 960 0
DWIDTH 8 0
BBX 8 16 0 -4
BITMAP
00
00
00
00
00
62
22
22
42
44
4c
32
00
00
00
00
ENDCHAR
STARTCHAR CySmlIBul
ENCODING 1011
SWIDTH 960 0
DWIDTH 8 0
BBX 8 16 0 -4
BITMAP
00
00
00
00
00
62
22
22
42
44
4c
32
00
00
00
00
ENDCHAR
STARTCHAR CySmlKa
ENCODING 1012
SWIDTH 960 0
DWIDTH 8 0
BBX 8 16 0 -4
BITMAP
00
00
00
00
00
63
24
28
30
48
48
46
00
00
00
00
ENDCHAR
STARTCHAR CySmlKaBul
ENCODING 1013
SWIDTH 960 0
DWIDTH 8 0
BBX 8 16 0 -4
BITMAP
00
00
10
10
10
22
24
28
30
48
48
46
00
00
00
00
ENDCHAR
STARTCHAR CySmlEl
ENCODING 1014
SWIDTH 960 0
DWIDTH 8 0
BBX 8 16 0 -4
BITMAP
00
00
00
00
00
06
0a
12
12
24
a4
42
00
00
00
00
ENDCHAR
STARTCHAR CySmlElBul
ENCODING 1015
SWIDTH 960 0
DWIDTH 8 0
BBX 8 16 0 -4
BITMAP
00
00
00
00
00
04
0c
0c
14
24
a4
42
00
00
00
00
ENDCHAR
STARTCHAR CySmlEm
ENCODING 1016
SWIDTH 960 0
DWIDTH 8 0
BBX 8 16 0 -4
BITMAP
00
00
00
00
00
22
22
24
3c
54
54
92
00
00
00
00
ENDCHAR
STARTCHAR CySmlEn
ENCODING 1017
SWIDTH 960 0
DWIDTH 8 0
BBX 8 16 0 -4
BITMAP
00
00
00
00
00
62
22
22
3c
44
44
42
00
00
00
00
ENDCHAR
STARTCHAR CySmlO
ENCODING 1018
SWIDTH 960 0
DWIDTH 8 0
BBX 8 16 0 -4
BITMAP
00
00
00
00
00
1c
22
22
42
44
44
38
00
00
00
00
ENDCHAR
STARTCHAR CySmlPe
ENCODING 1019
SWIDTH 960 0
DWIDTH 8 0
BBX 8 16 0 -4
BITMAP
00
00
00
00
00
6e
32
22
22
44
44
46
00
00
00
00
ENDCHAR
STARTCHAR CySmlPeSrb
ENCODING 1020
SWIDTH 960 0
DWIDTH 8 0
BBX 8 16 0 -4
BITMAP
00
00
1e
00
00
62
22
22
42
44
4c
32
00
00
00
00
ENDCHAR
STARTCHAR CySmlPeBul
ENCODING 1021
SWIDTH 960 0
DWIDTH 8 0
BBX 8 16 0 -4
BITMAP
00
00
00
00
00
6e
32
22
22
44
44
46
00
00
00
00
ENDCHAR
STARTCHAR CySmlEr
ENCODING 1022
SWIDTH 960 0
DWIDTH 8 0
BBX 8 16 0 -4
BITMAP
00
00
00
00
00
2c
72
22
22
44
44
78
40
80
80
00
ENDCHAR
STARTCHAR CySmlEs
ENCODING 1023
SWIDTH 960 0
DWIDTH 8 0
BBX 8 16 0 -4
BITMAP
00
00
00
00
00
1c
22
20
40
40
44
38
00
00
00
00
ENDCHAR
STARTCHAR CySmlTe
ENCODING 1024
SWIDTH 960 0
DWIDTH 8 0
BBX 8 16 0 -4
BITMAP
00
00
00
00
00
b7
49
49
49
92
92
93
00
00
00
00
ENDCHAR
STARTCHAR CySmlTeSrb
ENCODING 1025
SWIDTH 960 0
DWIDTH 8 0
BBX 8 16 0 -4
BITMAP
00
00
3f
00
00
c9
49
49
92
92
92
6d
00
00
00
00
ENDCHAR
STARTCHAR CySmlTeBul
ENCODING 1026
SWIDTH 960 0
DWIDTH 8 0
BBX 8 16 0 -4
BITMAP
00
00
00
00
00
b7
49
49
49
92
92
93
00
00
00
00
ENDCHAR
STARTCHAR CySmlU
ENCODING 1027
SWIDTH 960 0
DWIDTH 8 0
BBX 8 16 0 -4
BITMAP
00
00
00
00
00
62
22
22
44
44
4c
34
08
48
70
00
ENDCHAR
STARTCHAR CySmlEf
ENCODING 1028
SWIDTH 960 0
DWIDTH 8 0
BBX 8 16 0 -4
BITMAP
00
00
04
04
08
2a
5d
49
99
92
ba
54
10
20
20
00
ENDCHAR
STARTCHAR CySmlHa
ENCODING 1029
SWIDTH 960 0
DWIDTH 8 0
BBX 8 16 0 -4
BITMAP
00
00
00
00
00
31
12
0c
08
18
24
46
00
00
00
00
ENDCHAR
STARTCHAR CySmlTse
ENCODING 1030
SWIDTH 960 0
DWIDTH 8 0
BBX 8 16 0 -4
BITMAP
00
00
00
00
00
62
22
22
42
44
4c
32
02
02
04
00
ENDCHAR
STARTCHAR CySmlTseBul
ENCODING 1031
SWIDTH 960 0
DWIDTH 8 0
BBX 8 16 0 -4
BITMAP
00
00
00
00
00
62
22
22
42
44
4c
32
02
02
04
00
ENDCHAR
STARTCHAR CySmlChe
ENCODING 1032
SWIDTH 960 0
DWIDTH 8 0
BBX 8 16 0 -4
BITMAP
00
00
00
00
00
62
22
22
1c
04
04
06
00
00
00
00
ENDCHAR
STARTCHAR CySmlSha
ENCODING 1033
SWIDTH 960 0
DWIDTH 8 0
BBX 8 16 0 -4
BITMAP
00
00
00
00
00
c9
49
49
92
92
92
6d
00
00
00
00
ENDCHAR
STARTCHAR CySmlShaBul
ENCODING 1034
SWIDTH 960 0
DWIDTH 8 0
BBX 8 16 0 -4
BITMAP
00
00
00
00
00
c9
49
49
92
92
92
6d
00
00
00
00
ENDCHAR
STARTCHAR CySmlShcha
ENCODING 1035
SWIDTH 960 0
DWIDTH 8 0
BBX 8 16 0 -4
BITMAP
00
00
00
00
00
c9
49
49
92
92
92
6f
02
02
04
00
ENDCHAR
STARTCHAR CySmlShchaBul
ENCODING 1036
SWIDTH 960 0
DWIDTH 8 0
BBX 8 16 0 -4
BITMAP
00
00
00
00
00
c9
49
49
92
92
92
6f
02
02
04
00
ENDCHAR
STARTCHAR CySmlHardsign
ENCODING 1037
SWIDTH 960 0
DWIDTH 8 0
BBX 8 16 0 -4
BITMAP
00
00
00
00
00
3c
48
48
0c
12
12
0c
00
00
00
00
ENDCHAR
STARTCHAR CySmlYeru
ENCODING 1038
SWIDTH 960 0
DWIDTH 8 0
BBX 8 16 0 -4
BITMAP
00
00
00
00
00
c2
42
42
64
94
94
62
00
00
00
00
ENDCHAR
STARTCHAR CySmlSoftsign
ENCODING 1039
SWIDTH 960 0
DWIDTH 8 0
BBX 8 16 0 -4
BITMAP
00
00
00
00
00
20
60
20
38
44
44
38
00
00
00
00
ENDCHAR
STARTCHAR CySmlE
ENCODING 1040
SWIDTH 960 0
DWIDTH 8 0
BBX 8 16 0 -4
BITMAP
00
00
00
00
00
1c
22
02
1e
02
44
38
00
00
00
00
ENDCHAR
STARTCHAR CySmlYu
ENCODING 1041
SWIDTH 960 0
DWIDTH 8 0
BBX 8 16 0 -4
BITMAP
00
00
00
00
00
66
29
29
31
52
52
4c
00
00
00
00
ENDCHAR
STARTCHAR CySmlYuBul
ENCODING 1042
SWIDTH 960 0
DWIDTH 8 0
BBX 8 16 0 -4
BITMAP
00
00
30
10
10
26
29
29
31
52
52
4c
00
00
00
00
ENDCHAR
STARTCHAR CySmlYa
ENCODING 1043
SWIDTH 960 0
DWIDTH 8 0
BBX 8 16 0 -4
BITMAP
00
00
00
00
00
1e
22
22
1c
14
24
44
00
00
00
00
ENDCHAR
STARTCHAR CySmlDje
ENCODING 1044
SWIDTH 960 0
DWIDTH 8 0
BBX 8 16 0 -4
BITMAP
00
00
10
3e
10
2c
32
22
22
42
44
44
08
10
60
00
ENDCHAR
STARTCHAR CySmlTshe
ENCODING 1045
SWIDTH 960 0
DWIDTH 8 0
BBX 8 16 0 -4
BITMAP
00
00
10
3e
10
2e
32
22
22
44
44
46
00
00
00
00
ENDCHAR
STARTCHAR CySmlLje
ENCODING 1046
SWIDTH 960 0
DWIDTH 8 0
BBX 8 16 0 -4
BITMAP
00
00
00
00
00
18
28
28
2c
52
52
8c
00
00
00
00
ENDCHAR
STARTCHAR CySmlNje
ENCODING 1047
SWIDTH 960 0
DWIDTH 8 0
BBX 8 16 0 -4
BITMAP
00
00
00
00
00
c8
48
48
7e
92
92
8c
00
00
00
00
ENDCHAR
STARTCHAR CySmlDzhe
ENCODING 1048
SWIDTH 960 0
DWIDTH 8 0
BBX 8 16 0 -4
BITMAP
00
00
00
00
00
62
22
22
42
44
44
3a
10
10
e0
00
ENDCHAR
STARTCHAR CySmlIeUkr
ENCODING 1049
SWIDTH 960 0
DWIDTH 8 0
BBX 8 16 0 -4
BITMAP
00
00
00
00
00
1c
22
40
78
40
44
38
00
00
00
00
ENDCHAR
STARTCHAR CySmlDze
ENCODING 1050
SWIDTH 960 0
DWIDTH 8 0
BBX 8 16 0 -4
BITMAP
00
00
00
00
00
1c
22
20
18
04
44
38
00
00
00
00
ENDCHAR
STARTCHAR CySmlIUkr
ENCODING 1051
SWIDTH 960 0
DWIDTH 8 0
BBX 8 16 0 -4
BITMAP
00
00
04
04
00
0c
18
08
08
10
12
1c
00
00
00
00
ENDCHAR
STARTCHAR CySmlJe
ENCODING 1052
SWIDTH 960 0
DWIDTH 8 0
BBX 8 16 0 -4
BITMAP
00
00
04
04
00
0c
18
08
08
08
10
10
10
20
c0
00
ENDCHAR
STARTCHAR CySmlYat
ENCODING 1053
SWIDTH 960 0
DWIDTH 8 0
BBX 8 16 0 -4
BITMAP
00
00
00
00
00
d0
68
48
4c
92
92
8c
00
00
00
00
ENDCHAR
STARTCHAR CySmlFita
ENCODING 1054
SWIDTH 960 0
DWIDTH 8 0
BBX 8 16 0 -4
BITMAP
00
00
00
00
00
1c
22
22
7e
44
44
38
00
00
00
00
ENDCHAR
STARTCHAR CySmlIzhitsa
ENCODING 1055
SWIDTH 960 0
DWIDTH 8 0
BBX 8 16 0 -4
BITMAP
00
00
00
00
00
43
44
28
28
30
20
20
00
00
00
00
ENDCHAR
STARTCHAR CySmlLittleyus
ENCODING 1056
SWIDTH 960 0
DWIDTH 8 0
BBX 8 16 0 -4
BITMAP
00
00
00
00
00
04
0c
14
3c
2a
4a
da
00
00
00
00
ENDCHAR
STARTCHAR CySmlBigyus
ENCODING 1057
SWIDTH 960 0
DWIDTH 8 0
BBX 8 16 0 -4
BITMAP
00
00
00
00
00
3f
22
14
3c
54
54
92
00
00
00
00
ENDCHAR
STARTCHAR CySmlOmega
ENCODING 1058
SWIDTH 960 0
DWIDTH 8 0
BBX 8 16 0 -4
BITMAP
00
00
00
00
00
41
49
5a
92
92
fc
48
00
00
00
00
ENDCHAR
STARTCHAR CySmlOmegaBroad
ENCODING 1059
SWIDTH 960 0
DWIDTH 8 0
BBX 8 16 0 -4
BITMAP
00
00
00
00
00
22
41
41
99
92
92
6c
00
00
00
00
ENDCHAR
STARTCHAR CySmlPsi
ENCODING 1060
SWIDTH 960 0
DWIDTH 8 0
BBX 8 16 0 -4
BITMAP
00
00
04
04
04
29
29
2a
4a
52
54
38
10
20
20
00
ENDCHAR
STARTCHAR CySmlKsi
ENCODING 1061
SWIDTH 960 0
DWIDTH 8 0
BBX 8 16 0 -4
BITMAP
00
00
12
0c
00
1c
12
02
0c
04
04
38
40
30
08
00
ENDCHAR
STARTCHAR CySmlKoppa
ENCODING 1062
SWIDTH 960 0
DWIDTH 8 0
BBX 8 16 0 -4
BITMAP
00
00
00
00
00
1c
22
20
40
40
40
38
08
10
10
00
ENDCHAR
STARTCHAR CySmlYn
ENCODING 1063
SWIDTH 960 0
DWIDTH 8 0
BBX 8 16 0 -4
BITMAP
00
00
00
00
00
08
08
18
38
34
54
96
20
20
20
00
ENDCHAR
STARTCHAR CySmlSchwa
ENCODING 1064
SWIDTH 960 0
DWIDTH 8 0
BBX 8 16 0 -4
BITMAP
00
00
00
00
00
1c
22
02
3e
42
44
38
00
00
00
00
ENDCHAR
STARTCHAR CySmlQa
ENCODING 1065
SWIDTH 960 0
DWIDTH 8 0
BBX 8 16 0 -4
BITMAP
00
00
00
00
00
1a
26
22
42
44
4c
34
08
08
08
00
ENDCHAR
STARTCHAR CySmlWe
ENCODING 1066
SWIDTH 960 0
DWIDTH 8 0
BBX 8 16 0 -4
BITMAP
00
00
00
00
00
61
21
41
49
5a
66
44
00
00
00
00
ENDCHAR
STARTCHAR CySmlDzeAbkh
ENCODING 1067
SWIDTH 960 0
DWIDTH 8 0
BBX 8 16 0 -4
BITMAP
00
00
00
00
00
3a
44
08
10
38
04
04
08
90
e0
00
ENDCHAR
STARTCHAR CySmlUStrt
ENCODING 1068
SWIDTH 960 0
DWIDTH 8 0
BBX 8 16 0 -4
BITMAP
00
00
00
00
00
42
24
24
28
18
10
10
10
20
20
00
ENDCHAR
STARTCHAR CySmlShha
ENCODING 1069
SWIDTH 960 0
DWIDTH 8 0
BBX 8 16 0 -4
BITMAP
00
00
30
10
10
2e
32
22
22
44
44
46
00
00
00
00
ENDCHAR
STARTCHAR CySmlDeKomi
ENCODING 1070
SWIDTH 960 0
DWIDTH 8 0
BBX 8 16 0 -4
BITMAP
00
00
01
01
01
1e
22
22
42
44
4c
32
00
00
00
00
ENDCHAR
STARTCHAR CySmlSemisoftsign
ENCODING 1071
SWIDTH 960 0
DWIDTH 8 0
BBX 8 16 0 -4
BITMAP
00
00
00
00
00
20
78
20
38
44
44
38
00
00
00
00
ENDCHAR
STARTCHAR CySmlPalochka
ENCODING 1072
SWIDTH 960 0
DWIDTH 8 0
BBX 8 16 0 -4
BITMAP
00
00
0e
04
04
08
08
08
08
10
10
38
00
00
00
00
ENDCHAR
STARTCHAR CyCapAIe
ENCODING 1073
SWIDTH 960 0
DWIDTH 8 0
BBX 8 16 0 -4
BITMAP
00
00
0f
0c
14
18
2e
28
78
50
90
9c
00
00
00
00
ENDCHAR
STARTCHAR CyCapEnGhe
ENCODING 1074
SWIDTH 960 0
DWIDTH 8 0
BBX 8 16 0 -4
BITMAP
00
00
27
25
24
48
78
48
48
90
90
90
00
00
00
00
ENDCHAR
STARTCHAR CyCapTeTse
ENCODING 1075
SWIDTH 960 0
DWIDTH 8 0
BBX 8 16 0 -4
BITMAP
00
00
f9
21
21
42
42
42
42
84
84
fe
04
04
08
00
ENDCHAR
STARTCHAR CySmlAIe
ENCODING 1076
SWIDTH 960 0
DWIDTH 8 0
BBX 8 16 0 -4
BITMAP
00
00
00
00
00
06
19
29
4e
90
92
6c
00
00
00
00
ENDCHAR
STARTCHAR CySmlEnGhe
ENCODING 1077
SWIDTH 960 0
DWIDTH 8 0
BBX 8 16 0 -4
BITMAP
00
00
00
00
00
cf
49
48
70
90
90
90
00
00
00
00
ENDCHAR
STARTCHAR CySmlTeTse
ENCODING 1078
SWIDTH 960 0
DWIDTH 8 0
BBX 8 16 0 -4
BITMAP
00
00
00
00
00
f9
22
22
44
44
4c
32
02
02
04
00
ENDCHAR
STARTCHAR CyCapIA
ENCODING 1079
SWIDTH 960 0
DWIDTH 8 0
BBX 8 16 0 -4
BITMAP
00
00
22
22
26
46
7a
4a
5e
92
a2
a2
00
00
00
00
ENDCHAR
STARTCHAR CyCapIE
ENCODING 1080
SWIDTH 960 0
DWIDTH 8 0
BBX 8 16 0 -4
BITMAP
00
00
23
25
28
48
7e
50
50
90
94
88
00
00
00
00
ENDCHAR
STARTCHAR CyCapILittleyus
ENCODING 1081
SWIDTH 960 0
DWIDTH 8 0
BBX 8 16 0 -4
BITMAP
00
00
26
26
2a
4a
7a
52
5e
9a
aa
aa
00
00
00
00
ENDCHAR
STARTCHAR CyCapIBigyus
ENCODING 1082
SWIDTH 960 0
DWIDTH 8 0
BBX 8 16 0 -4
BITMAP
00
00
2f
29
2a
4a
7c
4c
5a
aa
aa
aa
00
00
00
00
ENDCHAR
STARTCHAR CyCapOu
ENCODING 1083
SWIDTH 960 0
DWIDTH 8 0
BBX 8 16 0 -4
BITMAP
00
00
18
28
48
4d
4d
95
96
92
a6
c4
04
08
08
00
ENDCHAR
STARTCHAR CyCapOuGamma
ENCODING 1084
SWIDTH 960 0
DWIDTH 8 0
BBX 8 16 0 -4
BITMAP
00
00
21
12
12
0c
08
10
78
a4
84
78
00
00
00
00
ENDCHAR
STARTCHAR CySmlIA
ENCODING 1085
SWIDTH 960 0
DWIDTH 8 0
BBX 8 16 0 -4
BITMAP
00
00
00
00
00
66
2a
2a
32
54
54
4a
00
00
00
00
ENDCHAR
STARTCHAR CySmlIE
ENCODING 1086
SWIDTH 960 0
DWIDTH 8 0
BBX 8 16 0 -4
BITMAP
00
00
00
00
00
66
29
28
3c
50
52
4c
00
00
00
00
ENDCHAR
STARTCHAR CySmlILittleyus
ENCODING 1087
SWIDTH 960 0
DWIDTH 8 0
BBX 8 16 0 -4
BITMAP
00
00
00
00
00
c6
46
4a
7e
96
aa
eb
00
00
00
00
ENDCHAR
STARTCHAR CySmlIBigyus
ENCODING 1088
SWIDTH 960 0
DWIDTH 8 0
BBX 8 16 0 -4
BITMAP
00
00
00
00
00
df
51
4a
7c
9c
aa
aa
00
00
00
00
ENDCHAR
STARTCHAR CySmlOu
ENCODING 1089
SWIDTH 960 0
DWIDTH 8 0
BBX 8 16 0 -4
BITMAP
00
00
00
00
00
1d
2d
2d
4a
52
56
64
04
08
08
00
ENDCHAR
STARTCHAR CySmlOuGamma
ENCODING 1090
SWIDTH 960 0
DWIDTH 8 0
BBX 8 16 0 -4
BITMAP
00
00
06
01
11
0a
0c
14
22
42
44
38
00
00
00
00
ENDCHAR
STARTCHAR CyCapOmegaRound
ENCODING 1091
SWIDTH 960 0
DWIDTH 8 0
BBX 8 16 0 -4
BITMAP
00
04
0e
15
21
21
41
41
42
42
54
38
10
00
00
00
ENDCHAR
STARTCHAR CySmlOmegaRound
ENCODING 1092
SWIDTH 960 0
DWIDTH 8 0
BBX 8 16 0 -4
BITMAP
00
00
00
00
08
1c
2a
22
42
44
54
38
10
00
00
00
ENDCHAR
STARTCHAR CyCapZeRev
ENCODING 1093
SWIDTH 960 0
DWIDTH 8 0
BBX 8 16 0 -4
BITMAP
00
00
0e
11
20
20
18
20
40
40
44
38
00
00
00
00
ENDCHAR
STARTCHAR CySmlZeRev
ENCODING 1094
SWIDTH 960 0
DWIDTH 8 0
BBX 8 16 0 -4
BITMAP
00
00
00
00
00
1c
22
20
38
40
44
38
00
00
00
00
ENDCHAR
STARTCHAR CyCapKaLhook
ENCODING 1095
SWIDTH 960 0
DWIDTH 8 0
BBX 8 16 0 -4
BITMAP
00
00
21
22
24
48
70
50
48
84
84
84
04
08
70
00
ENDCHAR
STARTCHAR CyCapElLhook
ENCODING 1096
SWIDTH 960 0
DWIDTH 8 0
BBX 8 16 0 -4
BITMAP
00
00
07
0d
09
09
12
12
12
24
a4
c4
04
08
70
00
ENDCHAR
STARTCHAR CyCapEnLhook
ENCODING 1097
SWIDTH 960 0
DWIDTH 8 0
BBX 8 16 0 -4
BITMAP
00
00
21
21
21
42
7e
42
42
84
84
84
04
08
f0
00
ENDCHAR
STARTCHAR CyCapHaLhook
ENCODING 1098
SWIDTH 960 0
DWIDTH 8 0
BBX 8 16 0 -4
BITMAP
00
00
21
21
12
14
18
18
28
48
84
84
04
08
70
00
ENDCHAR
STARTCHAR CySmlKaLhook
ENCODING 1099
SWIDTH 960 0
DWIDTH 8 0
BBX 8 16 0 -4
BITMAP
00
00
00
00
00
63
24
28
30
48
44
44
04
08
70
00
ENDCHAR
STARTCHAR CySmlElLhook
ENCODING 1100
SWIDTH 960 0
DWIDTH 8 0
BBX 8 16 0 -4
BITMAP
00
00
00
00
00
06
0a
12
12
24
a4
46
04
08
70
00
ENDCHAR
STARTCHAR CySmlEnLhook
ENCODING 1101
SWIDTH 960 0
DWIDTH 8 0
BBX 8 16 0 -4
BITMAP
00
00
00
00
00
62
22
22
3c
44
44
44
04
08
70
00
ENDCHAR
STARTCHAR CySmlHaLhook
ENCODING 1102
SWIDTH 960 0
DWIDTH 8 0
BBX 8 16 0 -4
BITMAP
00
00
00
00
00
31
12
0c
08
18
24
42
02
04
38
00
ENDCHAR
STARTCHAR CyCapGheStrokeLhook
ENCODING 1103
SWIDTH 960 0
DWIDTH 8 0
BBX 8 16 0 -4
BITMAP
00
00
1f
10
10
20
78
20
20
40
40
70
10
10
60
00
ENDCHAR
STARTCHAR CySmlGheStrokeLhook
ENCODING 1104
SWIDTH 960 0
DWIDTH 8 0
BBX 8 16 0 -4
BITMAP
00
00
00
00
00
30
50
10
2e
44
44
38
10
10
60
00
ENDCHAR
STARTCHAR CyCapGheMhook
ENCODING 1105
SWIDTH 960 0
DWIDTH 8 0
BBX 8 16 0 -4
BITMAP
00
00
1f
10
10
20
38
24
22
42
42
42
04
08
70
00
ENDCHAR
STARTCHAR CyCapPeMhook
ENCODING 1106
SWIDTH 960 0
DWIDTH 8 0
BBX 8 16 0 -4
BITMAP
00
00
3c
24
24
48
4e
49
49
92
92
92
04
04
38
00
ENDCHAR
STARTCHAR CySmlGheMhook
ENCODING 1107
SWIDTH 960 0
DWIDTH 8 0
BBX 8 16 0 -4
BITMAP
00
00
00
00
00
3e
20
20
38
44
44
44
04
08
70
00
ENDCHAR
STARTCHAR CySmlPeMhook
ENCODING 1108
SWIDTH 960 0
DWIDTH 8 0
BBX 8 16 0 -4
BITMAP
00
00
00
00
00
d8
68
48
4c
92
92
92
02
04
38
00
ENDCHAR
STARTCHAR CyCapCheAbkh
ENCODING 1109
SWIDTH 960 0
DWIDTH 8 0
BBX 8 16 0 -4
BITMAP
00
00
26
49
51
51
3e
20
20
20
22
1c
00
00
00
00
ENDCHAR
STARTCHAR CyCapHaAbkh
ENCODING 1110
SWIDTH 960 0
DWIDTH 8 0
BBX 8 16 0 -4
BITMAP
00
00
0e
11
22
25
45
49
4a
4a
44
3a
00
00
00
00
ENDCHAR
STARTCHAR CySmlCheAbkh
ENCODING 1111
SWIDTH 960 0
DWIDTH 8 0
BBX 8 16 0 -4
BITMAP
00
00
00
00
00
2c
52
54
78
20
24
18
00
00
00
00
ENDCHAR
STARTCHAR CySmlHaAbkh
ENCODING 1112
SWIDTH 960 0
DWIDTH 8 0
BBX 8 16 0 -4
BITMAP
00
00
00
00
00
1c
22
24
4a
4a
44
3a
00
00
00
00
ENDCHAR
STARTCHAR CyCapZjeKomi
ENCODING 1113
SWIDTH 960 0
DWIDTH 8 0
BBX 8 16 0 -4
BITMAP
00
00
18
24
04
08
32
0a
12
14
14
08
00
00
00
00
ENDCHAR
STARTCHAR CyCapLjeKomi
ENCODING 1114
SWIDTH 960 0
DWIDTH 8 0
BBX 8 16 0 -4
BITMAP
00
00
1c
14
14
28
2a
2a
2a
54
54
88
00
00
00
00
ENDCHAR
STARTCHAR CyCapNjeKomi
ENCODING 1115
SWIDTH 960 0
DWIDTH 8 0
BBX 8 16 0 -4
BITMAP
00
00
24
24
24
48
7a
4a
4a
94
94
88
00
00
00
00
ENDCHAR
STARTCHAR CyCapSjeKomi
ENCODING 1116
SWIDTH 960 0
DWIDTH 8 0
BBX 8 16 0 -4
BITMAP
00
00
0e
11
20
20
42
42
44
44
44
38
00
00
00
00
ENDCHAR
STARTCHAR CyCapTjeKomi
ENCODING 1117
SWIDTH 960 0
DWIDTH 8 0
BBX 8 16 0 -4
BITMAP
00
00
7f
08
08
10
12
12
12
24
24
18
00
00
00
00
ENDCHAR
STARTCHAR CyCapDjeKomi
ENCODING 1118
SWIDTH 960 0
DWIDTH 8 0
BBX 8 16 0 -4
BITMAP
00
00
04
04
04
08
3a
4a
92
94
94
68
00
00
00
00
ENDCHAR
STARTCHAR CySmlZjeKomi
ENCODING 1119
SWIDTH 960 0
DWIDTH 8 0
BBX 8 16 0 -4
BITMAP
00
00
00
00
00
70
48
08
32
12
14
0c
00
00
00
00
ENDCHAR
STARTCHAR CySmlLjeKomi
ENCODING 1120
SWIDTH 960 0
DWIDTH 8 0
BBX 8 16 0 -4
BITMAP
00
00
00
00
00
18
28
28
2a
52
54
8c
00
00
00
00
ENDCHAR
STARTCHAR CySmlNjeKomi
ENCODING 1121
SWIDTH 960 0
DWIDTH 8 0
BBX 8 16 0 -4
BITMAP
00
00
00
00
00
c8
48
48
7a
92
94
8c
00
00
00
00
ENDCHAR
STARTCHAR CySmlSjeKomi
ENCODING 1122
SWIDTH 960 0
DWIDTH 8 0
BBX 8 16 0 -4
BITMAP
00
00
00
00
00
1c
20
20
42
44
44
38
00
00
00
00
ENDCHAR
STARTCHAR CySmlTjeKomi
ENCODING 1123
SWIDTH 960 0
DWIDTH 8 0
BBX 8 16 0 -4
BITMAP
00
00
00
00
00
3e
08
08
12
12
14
0c
00
00
00
00
ENDCHAR
STARTCHAR CySmlDjeKomi
ENCODING 1124
SWIDTH 960 0
DWIDTH 8 0
BBX 8 16 0 -4
BITMAP
00
00
04
04
08
38
48
48
92
92
94
6c
00
00
00
00
ENDCHAR
STARTCHAR CyCapGheStroke
ENCODING 1125
SWIDTH 960 0
DWIDTH 8 0
BBX 8 16 0 -4
BITMAP
00
00
1f
10
10
20
78
20
20
40
40
40
00
00
00
00
ENDCHAR
STARTCHAR CyCapKaStroke
ENCODING 1126
SWIDTH 960 0
DWIDTH 8 0
BBX 8 16 0 -4
BITMAP
00
00
21
7a
24
48
70
50
48
88
84
84
00
00
00
00
ENDCHAR
STARTCHAR CyCapOStrokeH
ENCODING 1127
SWIDTH 960 0
DWIDTH 8 0
BBX 8 16 0 -4
BITMAP
00
00
0e
11
21
21
7f
41
42
42
44
38
00
00
00
00
ENDCHAR
STARTCHAR CyCapHaStroke
ENCODING 1128
SWIDTH 960 0
DWIDTH 8 0
BBX 8 16 0 -4
BITMAP
00
00
21
22
14
18
7e
18
28
48
84
84
00
00
00
00
ENDCHAR
STARTCHAR CyCapUStrtStroke
ENCODING 1129
SWIDTH 960 0
DWIDTH 8 0
BBX 8 16 0 -4
BITMAP
00
00
21
21
12
12
14
08
7e
10
10
10
00
00
00
00
ENDCHAR
STARTCHAR CySmlGheStroke
ENCODING 1130
SWIDTH 960 0
DWIDTH 8 0
BBX 8 16 0 -4
BITMAP
00
00
00
00
00
30
50
10
2e
44
44
38
00
00
00
00
ENDCHAR
STARTCHAR CySmlKaStroke
ENCODING 1131
SWIDTH 960 0
DWIDTH 8 0
BBX 8 16 0 -4
BITMAP
00
00
10
3c
10
23
24
28
30
48
48
46
00
00
00
00
ENDCHAR
STARTCHAR CySmlOStrokeH
ENCODING 1132
SWIDTH 960 0
DWIDTH 8 0
BBX 8 16 0 -4
BITMAP
00
00
00
00
00
1c
22
22
7e
44
44
38
00
00
00
00
ENDCHAR
STARTCHAR CySmlHaStroke
ENCODING 1133
SWIDTH 960 0
DWIDTH 8 0
BBX 8 16 0 -4
BITMAP
00
00
00
00
00
31
12
0c
3e
18
24
46
00
00
00
00
ENDCHAR
STARTCHAR CySmlUStrtStroke
ENCODING 1134
SWIDTH 960 0
DWIDTH 8 0
BBX 8 16 0 -4
BITMAP
00
00
00
00
00
42
24
24
28
18
10
7c
10
20
20
00
ENDCHAR
STARTCHAR CyCapKaStrokeV
ENCODING 1135
SWIDTH 960 0
DWIDTH 8 0
BBX 8 16 0 -4
BITMAP
00
00
21
21
2a
4c
78
54
54
84
84
84
00
00
00
00
ENDCHAR
STARTCHAR CyCapCheStrokeV
ENCODING 1136
SWIDTH 960 0
DWIDTH 8 0
BBX 8 16 0 -4
BITMAP
00
00
21
21
21
4a
4a
3e
12
14
04
04
00
00
00
00
ENDCHAR
STARTCHAR CySmlKaStrokeV
ENCODING 1137
SWIDTH 960 0
DWIDTH 8 0
BBX 8 16 0 -4
BITMAP
00
00
00
00
00
61
2a
2c
38
54
54
42
00
00
00
00
ENDCHAR
STARTCHAR CySmlCheStrokeV
ENCODING 1138
SWIDTH 960 0
DWIDTH 8 0
BBX 8 16 0 -4
BITMAP
00
00
00
00
00
62
2a
2a
1c
14
14
06
00
00
00
00
ENDCHAR
STARTCHAR CyCapErTick
ENCODING 1139
SWIDTH 960 0
DWIDTH 8 0
BBX 8 16 0 -4
BITMAP
00
00
1e
11
11
25
22
3e
21
40
40
40
00
00
00
00
ENDCHAR
STARTCHAR CySmlErTick
ENCODING 1140
SWIDTH 960 0
DWIDTH 8 0
BBX 8 16 0 -4
BITMAP
00
00
00
00
00
2c
72
22
22
4a
46
7c
42
80
80
00
ENDCHAR
STARTCHAR CyCapGheUpturn
ENCODING 1141
SWIDTH 960 0
DWIDTH 8 0
BBX 8 16 0 -4
BITMAP
01
01
1f
10
10
20
20
20
20
40
40
40
00
00
00
00
ENDCHAR
STARTCHAR CyCapKaBshk
ENCODING 1142
SWIDTH 960 0
DWIDTH 8 0
BBX 8 16 0 -4
BITMAP
00
00
71
11
12
24
38
28
28
44
44
44
00
00
00
00
ENDCHAR
STARTCHAR CySmlGheUpturn
ENCODING 1143
SWIDTH 960 0
DWIDTH 8 0
BBX 8 16 0 -4
BITMAP
00
00
00
01
01
1e
10
10
20
20
20
30
00
00
00
00
ENDCHAR
STARTCHAR CySmlKaBshk
ENCODING 1144
SWIDTH 960 0
DWIDTH 8 0
BBX 8 16 0 -4
BITMAP
00
00
00
00
00
71
52
14
18
24
24
22
00
00
00
00
ENDCHAR
STARTCHAR CyCapADrss
ENCODING 1145
SWIDTH 960 0
DWIDTH 8 0
BBX 8 16 0 -4
BITMAP
12
12
00
0c
0c
14
14
24
7c
44
84
84
00
00
00
00
ENDCHAR
STARTCHAR CyCapIeDrss
ENCODING 1146
SWIDTH 960 0
DWIDTH 8 0
BBX 8 16 0 -4
BITMAP
09
09
00
1f
10
10
20
3c
20
40
40
7c
00
00
00
00
ENDCHAR
STARTCHAR CyCapZheDrss
ENCODING 1147
SWIDTH 960 0
DWIDTH 8 0
BBX 8 16 0 -4
BITMAP
12
12
00
25
29
2a
2a
3c
54
54
94
a4
00
00
00
00
ENDCHAR
STARTCHAR CyCapZeDrss
ENCODING 1148
SWIDTH 960 0
DWIDTH 8 0
BBX 8 16 0 -4
BITMAP
12
12
00
1c
22
02
04
18
04
04
88
70
00
00
00
00
ENDCHAR
STARTCHAR CyCapIDrss
ENCODING 1149
SWIDTH 960 0
DWIDTH 8 0
BBX 8 16 0 -4
BITMAP
12
12
00
21
23
25
4a
5a
52
a4
c4
84
00
00
00
00
ENDCHAR
STARTCHAR CyCapODrss
ENCODING 1150
SWIDTH 960 0
DWIDTH 8 0
BBX 8 16 0 -4
BITMAP
09
09
00
0e
11
21
21
41
42
42
44
38
00
00
00
00
ENDCHAR
STARTCHAR CyCapUDrss
ENCODING 1151
SWIDTH 960 0
DWIDTH 8 0
BBX 8 16 0 -4
BITMAP
12
12
00
21
22
12
14
18
08
10
a0
40
00
00
00
00
ENDCHAR
STARTCHAR CyCapCheDrss
ENCODING 1152
SWIDTH 960 0
DWIDTH 8 0
BBX 8 16 0 -4
BITMAP
12
12
00
21
21
42
42
3e
02
04
04
04
00
00
00
00
ENDCHAR
STARTCHAR CyCapYeruDrss
ENCODING 1153
SWIDTH 960 0
DWIDTH 8 0
BBX 8 16 0 -4
BITMAP
12
12
00
21
21
42
72
4a
4a
8c
94
e4
00
00
00
00
ENDCHAR
STARTCHAR CyCapEDrss
ENCODING 1154
SWIDTH 960 0
DWIDTH 8 0
BBX 8 16 0 -4
BITMAP
12
12
00
1c
22
02
02
3e
04
04
88
70
00
00
00
00
ENDCHAR
STARTCHAR CyCapIUkrDrss
ENCODING 1155
SWIDTH 960 0
DWIDTH 8 0
BBX 8 16 0 -4
BITMAP
09
09
00
1f
04
04
08
08
08
10
10
7c
00
00
00
00
ENDCHAR
STARTCHAR CyCapSchwaDrss
ENCODING 1156
SWIDTH 960 0
DWIDTH 8 0
BBX 8 16 0 -4
BITMAP
09
09
00
0e
11
01
01
3e
42
42
44
38
00
00
00
00
ENDCHAR
STARTCHAR CySmlADrss
ENCODING 1157
SWIDTH 960 0
DWIDTH 8 0
BBX 8 16 0 -4
BITMAP
00
00
12
12
00
1e
22
22
44
44
4c
32
00
00
00
00
ENDCHAR
STARTCHAR CySmlIeDrss
ENCODING 1158
SWIDTH 960 0
DWIDTH 8 0
BBX 8 16 0 -4
BITMAP
00
00
12
12
00
1c
22
24
78
40
44
38
00
00
00
00
ENDCHAR
STARTCHAR CySmlZheDrss
ENCODING 1159
SWIDTH 960 0
DWIDTH 8 0
BBX 8 16 0 -4
BITMAP
00
00
12
12
00
49
2a
2a
3c
54
54
92
00
00
00
00
ENDCHAR
STARTCHAR CySmlZeDrss
ENCODING 1160
SWIDTH 960 0
DWIDTH 8 0
BBX 8 16 0 -4
BITMAP
00
00
12
12
00
1c
12
02
0c
04
44
38
00
00
00
00
ENDCHAR
STARTCHAR CySmlIDrss
ENCODING 1161
SWIDTH 960 0
DWIDTH 8 0
BBX 8 16 0 -4
BITMAP
00
00
12
12
00
62
22
22
42
44
4c
32
00
00
00
00
ENDCHAR
STARTCHAR CySmlODrss
ENCODING 1162
SWIDTH 960 0
DWIDTH 8 0
BBX 8 16 0 -4
BITMAP
00
00
12
12
00
1c
22
22
42
44
44
38
00
00
00
00
ENDCHAR
STARTCHAR CySmlUDrss
ENCODING 1163
SWIDTH 960 0
DWIDTH 8 0
BBX 8 16 0 -4
BITMAP
00
00
12
12
00
62
22
22
44
44
4c
34
08
48
70
00
ENDCHAR
STARTCHAR CySmlCheDrss
ENCODING 1164
SWIDTH 960 0
DWIDTH 8 0
BBX 8 16 0 -4
BITMAP
00
00
12
12
00
62
22
22
1c
04
04
06
00
00
00
00
ENDCHAR
STARTCHAR CySmlYeruDrss
ENCODING 1165
SWIDTH 960 0
DWIDTH 8 0
BBX 8 16 0 -4
BITMAP
00
00
24
24
00
c2
42
42
64
94
94
62
00
00
00
00
ENDCHAR
STARTCHAR CySmlEDrss
ENCODING 1166
SWIDTH 960 0
DWIDTH 8 0
BBX 8 16 0 -4
BITMAP
00
00
12
12
00
1c
22
02
1e
02
44
38
00
00
00
00
ENDCHAR
STARTCHAR CySmlIUkrDrss
ENCODING 1167
SWIDTH 960 0
DWIDTH 8 0
BBX 8 16 0 -4
BITMAP
00
00
12
12
00
0c
18
08
08
10
12
1c
00
00
00
00
ENDCHAR
STARTCHAR CySmlSchwaDrss
ENCODING 1168
SWIDTH 960 0
DWIDTH 8 0
BBX 8 16 0 -4
BITMAP
00
00
12
12
00
1c
22
02
3e
42
44
38
00
00
00
00
ENDCHAR
STARTCHAR CyCapOStrokeHDrss
ENCODING 1169
SWIDTH 960 0
DWIDTH 8 0
BBX 8 16 0 -4
BITMAP
09
09
00
0e
11
21
21
7f
42
42
44
38
00
00
00
00
ENDCHAR
STARTCHAR CySmlOStrokeHDrss
ENCODING 1170
SWIDTH 960 0
DWIDTH 8 0
BBX 8 16 0 -4
BITMAP
00
00
12
12
00
1c
22
22
7e
44
44
38
00
00
00
00
ENDCHAR
STARTCHAR CyCapIMacron
ENCODING 1171
SWIDTH 960 0
DWIDTH 8 0
BBX 8 16 0 -4
BITMAP
1e
00
21
23
25
4a
4a
52
52
a4
c4
84
00
00
00
00
ENDCHAR
STARTCHAR CyCapUMacron
ENCODING 1172
SWIDTH 960 0
DWIDTH 8 0
BBX 8 16 0 -4
BITMAP
1e
00
21
21
12
12
14
08
08
10
a0
40
00
00
00
00
ENDCHAR
STARTCHAR CySmlIMacron
ENCODING 1173
SWIDTH 960 0
DWIDTH 8 0
BBX 8 16 0 -4
BITMAP
00
00
1e
00
00
62
22
22
42
44
4c
32
00
00
00
00
ENDCHAR
STARTCHAR CySmlUMacron
ENCODING 1174
SWIDTH 960 0
DWIDTH 8 0
BBX 8 16 0 -4
BITMAP
00
00
1e
00
00
62
22
22
44
44
4c
34
08
48
70
00
ENDCHAR
STARTCHAR CyCapGheAcute
ENCODING 1175
SWIDTH 960 0
DWIDTH 8 0
BBX 8 16 0 -4
BITMAP
01
06
00
1f
10
10
20
20
20
40
40
40
00
00
00
00
ENDCHAR
STARTCHAR CyCapKaAcute
ENCODING 1176
SWIDTH 960 0
DWIDTH 8 0
BBX 8 16 0 -4
BITMAP
02
0c
00
21
22
24
48
70
50
88
84
84
00
00
00
00
ENDCHAR
STARTCHAR CySmlGheAcute
ENCODING 1177
SWIDTH 960 0
DWIDTH 8 0
BBX 8 16 0 -4
BITMAP
00
04
04
08
00
18
24
04
18
20
24
18
00
00
00
00
ENDCHAR
STARTCHAR CySmlGheAcuteMcd
ENCODING 1178
SWIDTH 960 0
DWIDTH 8 0
BBX 8 16 0 -4
BITMAP
01
06
00
1e
00
0c
18
08
08
10
12
1c
00
00
00
00
ENDCHAR
STARTCHAR CySmlKaAcute
ENCODING 1179
SWIDTH 960 0
DWIDTH 8 0
BBX 8 16 0 -4
BITMAP
00
04
04
08
00
63
24
28
30
48
48
46
00
00
00
00
ENDCHAR
STARTCHAR CyCapUAcute2
ENCODING 1180
SWIDTH 960 0
DWIDTH 8 0
BBX 8 16 0 -4
BITMAP
09
12
00
21
22
12
14
18
08
10
a0
40
00
00
00
00
ENDCHAR
STARTCHAR CySmlUAcute2
ENCODING 1181
SWIDTH 960 0
DWIDTH 8 0
BBX 8 16 0 -4
BITMAP
00
0a
0a
14
00
62
22
22
44
44
4c
34
08
48
70
00
ENDCHAR
STARTCHAR CyCapIeGrave
ENCODING 1182
SWIDTH 960 0
DWIDTH 8 0
BBX 8 16 0 -4
BITMAP
08
06
00
1f
10
10
20
3c
20
40
40
7c
00
00
00
00
ENDCHAR
STARTCHAR CyCapIGrave
ENCODING 1183
SWIDTH 960 0
DWIDTH 8 0
BBX 8 16 0 -4
BITMAP
08
06
00
21
23
25
4a
5a
52
a4
c4
84
00
00
00
00
ENDCHAR
STARTCHAR CySmlIeGrave
ENCODING 1184
SWIDTH 960 0
DWIDTH 8 0
BBX 8 16 0 -4
BITMAP
00
08
08
04
00
1c
22
24
78
40
44
38
00
00
00
00
ENDCHAR
STARTCHAR CySmlIGrave
ENCODING 1185
SWIDTH 960 0
DWIDTH 8 0
BBX 8 16 0 -4
BITMAP
00
08
08
04
00
62
22
22
42
44
4c
32
00
00
00
00
ENDCHAR
STARTCHAR CySmlIGraveBul
ENCODING 1186
SWIDTH 960 0
DWIDTH 8 0
BBX 8 16 0 -4
BITMAP
00
08
08
04
00
62
22
22
42
44
4c
32
00
00
00
00
ENDCHAR
STARTCHAR CyCapIzhitsaGrave2
ENCODING 1187
SWIDTH 960 0
DWIDTH 8 0
BBX 8 16 0 -4
BITMAP
12
09
00
21
22
24
24
28
28
30
30
20
00
00
00
00
ENDCHAR
STARTCHAR CySmlIzhitsaGrave2
ENCODING 1188
SWIDTH 960 0
DWIDTH 8 0
BBX 8 16 0 -4
BITMAP
00
28
28
14
00
43
44
28
28
30
20
20
00
00
00
00
ENDCHAR
STARTCHAR CyCapABreve
ENCODING 1189
SWIDTH 960 0
DWIDTH 8 0
BBX 8 16 0 -4
BITMAP
11
0e
00
0c
0c
14
14
24
7c
44
84
84
00
00
00
00
ENDCHAR
STARTCHAR CyCapIeBreve
ENCODING 1190
SWIDTH 960 0
DWIDTH 8 0
BBX 8 16 0 -4
BITMAP
09
06
00
1f
10
10
20
3c
20
40
40
7c
00
00
00
00
ENDCHAR
STARTCHAR CyCapZheBreve
ENCODING 1191
SWIDTH 960 0
DWIDTH 8 0
BBX 8 16 0 -4
BITMAP
09
0f
00
25
29
2a
2a
3c
54
54
94
a4
00
00
00
00
ENDCHAR
STARTCHAR CyCapIBreve
ENCODING 1192
SWIDTH 960 0
DWIDTH 8 0
BBX 8 16 0 -4
BITMAP
12
1e
00
21
23
25
4a
5a
52
a4
c4
84
00
00
00
00
ENDCHAR
STARTCHAR CyCapUBreve
ENCODING 1193
SWIDTH 960 0
DWIDTH 8 0
BBX 8 16 0 -4
BITMAP
12
1e
00
21
22
12
14
18
08
10
a0
40
00
00
00
00
ENDCHAR
STARTCHAR CySmlABreve
ENCODING 1194
SWIDTH 960 0
DWIDTH 8 0
BBX 8 16 0 -4
BITMAP
00
00
12
0c
00
1e
22
22
44
44
4c
32
00
00
00
00
ENDCHAR
STARTCHAR CySmlIeBreve
ENCODING 1195
SWIDTH 960 0
DWIDTH 8 0
BBX 8 16 0 -4
BITMAP
00
00
12
0c
00
1c
22
24
78
40
44
38
00
00
00
00
ENDCHAR
STARTCHAR CySmlZheBreve
ENCODING 1196
SWIDTH 960 0
DWIDTH 8 0
BBX 8 16 0 -4
BITMAP
00
00
12
1e
00
49
2a
2a
3c
54
54
92
00
00
00
00
ENDCHAR
STARTCHAR CySmlIBreve
ENCODING 1197
SWIDTH 960 0
DWIDTH 8 0
BBX 8 16 0 -4
BITMAP
00
00
12
1e
00
62
22
22
42
44
4c
32
00
00
00
00
ENDCHAR
STARTCHAR CySmlIBreveBul
ENCODING 1198
SWIDTH 960 0
DWIDTH 8 0
BBX 8 16 0 -4
BITMAP
00
00
12
1e
00
62
22
22
42
44
4c
32
00
00
00
00
ENDCHAR
STARTCHAR CySmlUBreve
ENCODING 1199
SWIDTH 960 0
DWIDTH 8 0
BBX 8 16 0 -4
BITMAP
00
00
12
1e
00
62
22
22
44
44
4c
34
08
48
70
00
ENDCHAR
STARTCHAR CyCapOmegaT
ENCODING 1200
SWIDTH 960 0
DWIDTH 8 0
BBX 8 16 0 -4
BITMAP
3f
2d
00
21
29
49
4a
52
92
92
fc
48
00
00
00
00
ENDCHAR
STARTCHAR CySmlOmegaT
ENCODING 1201
SWIDTH 960 0
DWIDTH 8 0
BBX 8 16 0 -4
BITMAP
00
3f
2d
00
00
41
49
5a
92
92
fc
48
00
00
00
00
ENDCHAR
STARTCHAR CyCapOmegaOrnate
ENCODING 1202
SWIDTH 960 0
DWIDTH 8 0
BBX 8 16 0 -4
BITMAP
1c
27
04
31
41
41
41
99
92
92
92
6c
00
00
00
00
ENDCHAR
STARTCHAR CySmlOmegaOrnate
ENCODING 1203
SWIDTH 960 0
DWIDTH 8 0
BBX 8 16 0 -4
BITMAP
0c
12
2d
04
00
22
41
41
99
92
92
6c
00
00
00
00
ENDCHAR
STARTCHAR CyCapGheDesc
ENCODING 1204
SWIDTH 960 0
DWIDTH 8 0
BBX 8 16 0 -4
BITMAP
00
00
1f
10
10
20
20
20
20
40
40
60
20
20
40
00
ENDCHAR
STARTCHAR CyCapZheDesc
ENCODING 1205
SWIDTH 960 0
DWIDTH 8 0
BBX 8 16 0 -4
BITMAP
00
00
25
29
2a
2a
1c
38
54
54
94
a6
04
04
08
00
ENDCHAR
STARTCHAR CyCapZeDesc
ENCODING 1206
SWIDTH 960 0
DWIDTH 8 0
BBX 8 16 0 -4
BITMAP
00
00
1c
22
02
04
18
04
04
04
88
70
40
20
40
00
ENDCHAR
STARTCHAR CyCapKaDesc
ENCODING 1207
SWIDTH 960 0
DWIDTH 8 0
BBX 8 16 0 -4
BITMAP
00
00
21
22
24
48
70
50
48
88
84
86
04
04
08
00
ENDCHAR
STARTCHAR CyCapEnDesc
ENCODING 1208
SWIDTH 960 0
DWIDTH 8 0
BBX 8 16 0 -4
BITMAP
00
00
21
21
21
42
7e
42
42
84
84
86
04
04
08
00
ENDCHAR
STARTCHAR CyCapPeDesc
ENCODING 1209
SWIDTH 960 0
DWIDTH 8 0
BBX 8 16 0 -4
BITMAP
00
00
3f
21
21
42
42
42
42
84
84
86
02
02
04
00
ENDCHAR
STARTCHAR CyCapEsDesc
ENCODING 1210
SWIDTH 960 0
DWIDTH 8 0
BBX 8 16 0 -4
BITMAP
00
00
0e
11
20
20
40
40
40
40
44
38
20
10
20
00
ENDCHAR
STARTCHAR CyCapTeDesc
ENCODING 1211
SWIDTH 960 0
DWIDTH 8 0
BBX 8 16 0 -4
BITMAP
00
00
7f
08
08
10
10
10
10
20
20
30
10
10
20
00
ENDCHAR
STARTCHAR CyCapHaDesc
ENCODING 1212
SWIDTH 960 0
DWIDTH 8 0
BBX 8 16 0 -4
BITMAP
00
00
21
21
12
14
18
18
28
48
84
86
04
04
08
00
ENDCHAR
STARTCHAR CyCapCheDesc
ENCODING 1213
SWIDTH 960 0
DWIDTH 8 0
BBX 8 16 0 -4
BITMAP
00
00
21
21
21
42
42
3e
02
04
04
06
02
02
04
00
ENDCHAR
STARTCHAR CyCapCheKhks
ENCODING 1214
SWIDTH 960 0
DWIDTH 8 0
BBX 8 16 0 -4
BITMAP
00
00
21
21
21
42
42
3e
02
04
04
1c
10
10
20
00
ENDCHAR
STARTCHAR CyCapCheAbkhDesc
ENCODING 1215
SWIDTH 960 0
DWIDTH 8 0
BBX 8 16 0 -4
BITMAP
00
00
26
49
51
51
3e
20
20
20
22
1c
08
08
10
00
ENDCHAR
STARTCHAR CyCapShhaDesc
ENCODING 1216
SWIDTH 960 0
DWIDTH 8 0
BBX 8 16 0 -4
BITMAP
00
00
20
20
20
40
7c
42
42
84
84
86
02
02
04
00
ENDCHAR
STARTCHAR CyCapDzjeKomi
ENCODING 1217
SWIDTH 960 0
DWIDTH 8 0
BBX 8 16 0 -4
BITMAP
00
00
1c
22
02
04
18
04
04
04
08
0c
04
04
08
00
ENDCHAR
STARTCHAR CySmlGheDesc
ENCODING 1218
SWIDTH 960 0
DWIDTH 8 0
BBX 8 16 0 -4
BITMAP
00
00
00
00
00
18
24
04
18
20
24
18
10
10
20
00
ENDCHAR
STARTCHAR CySmlZheDesc
ENCODING 1219
SWIDTH 960 0
DWIDTH 8 0
BBX 8 16 0 -4
BITMAP
00
00
00
00
00
49
2a
2a
3c
54
54
92
02
02
04
00
ENDCHAR
STARTCHAR CySmlZeDesc
ENCODING 1220
SWIDTH 960 0
DWIDTH 8 0
BBX 8 16 0 -4
BITMAP
00
00
00
00
00
1c
12
02
0c
04
44
38
20
10
20
00
ENDCHAR
STARTCHAR CySmlKaDesc
ENCODING 1221
SWIDTH 960 0
DWIDTH 8 0
BBX 8 16 0 -4
BITMAP
00
00
00
00
00
63
24
28
30
48
48
46
02
02
04
00
ENDCHAR
STARTCHAR CySmlEnDesc
ENCODING 1222
SWIDTH 960 0
DWIDTH 8 0
BBX 8 16 0 -4
BITMAP
00
00
00
00
00
62
22
22
3c
44
44
46
02
02
04
00
ENDCHAR
STARTCHAR CySmlPeDesc
ENCODING 1223
SWIDTH 960 0
DWIDTH 8 0
BBX 8 16 0 -4
BITMAP
00
00
00
00
00
6e
32
22
22
44
44
46
02
02
04
00
ENDCHAR
STARTCHAR CySmlEsDesc
ENCODING 1224
SWIDTH 960 0
DWIDTH 8 0
BBX 8 16 0 -4
BITMAP
00
00
00
00
00
1c
22
20
40
40
44
38
20
10
20
00
ENDCHAR
STARTCHAR CySmlTeDesc
ENCODING 1225
SWIDTH 960 0
DWIDTH 8 0
BBX 8 16 0 -4
BITMAP
00
00
00
00
00
b7
49
49
49
92
92
93
02
02
04
00
ENDCHAR
STARTCHAR CySmlHaDesc
ENCODING 1226
SWIDTH 960 0
DWIDTH 8 0
BBX 8 16 0 -4
BITMAP
00
00
00
00
00
31
12
0c
08
18
24
46
02
02
04
00
ENDCHAR
STARTCHAR CySmlCheDesc
ENCODING 1227
SWIDTH 960 0
DWIDTH 8 0
BBX 8 16 0 -4
BITMAP
00
00
00
00
00
62
22
22
1c
04
04
06
02
02
04
00
ENDCHAR
STARTCHAR CySmlCheKhks
ENCODING 1228
SWIDTH 960 0
DWIDTH 8 0
BBX 8 16 0 -4
BITMAP
00
00
00
00
00
62
22
22
1c
04
04
1c
10
10
20
00
ENDCHAR
STARTCHAR CySmlCheAbkhDesc
ENCODING 1229
SWIDTH 960 0
DWIDTH 8 0
BBX 8 16 0 -4
BITMAP
00
00
00
00
00
2c
52
54
78
20
24
18
10
10
20
00
ENDCHAR
STARTCHAR CySmlShhaDesc
ENCODING 1230
SWIDTH 960 0
DWIDTH 8 0
BBX 8 16 0 -4
BITMAP
00
00
30
10
10
2e
32
22
22
44
44
46
02
02
04
00
ENDCHAR
STARTCHAR CySmlDzjeKomi
ENCODING 1231
SWIDTH 960 0
DWIDTH 8 0
BBX 8 16 0 -4
BITMAP
00
00
00
00
00
1c
12
02
0c
04
04
0c
04
04
08
00
ENDCHAR
STARTCHAR CyCapElTail
ENCODING 1232
SWIDTH 960 0
DWIDTH 8 0
BBX 8 16 0 -4
BITMAP
00
00
07
0d
09
09
12
12
12
24
a4
ce
02
04
08
00
ENDCHAR
STARTCHAR CyCapEmTail
ENCODING 1233
SWIDTH 960 0
DWIDTH 8 0
BBX 8 16 0 -4
BITMAP
00
00
21
21
33
56
5a
5a
42
84
84
8e
02
04
08
00
ENDCHAR
STARTCHAR CyCapEnTail
ENCODING 1234
SWIDTH 960 0
DWIDTH 8 0
BBX 8 16 0 -4
BITMAP
00
00
21
21
21
42
7e
42
42
84
84
8e
02
04
08
00
ENDCHAR
STARTCHAR CyCapIBreveTail
ENCODING 1235
SWIDTH 960 0
DWIDTH 8 0
BBX 8 16 0 -4
BITMAP
12
1e
00
21
23
25
4a
5a
52
a4
c4
8e
02
04
08
00
ENDCHAR
STARTCHAR CySmlElTail
ENCODING 1236
SWIDTH 960 0
DWIDTH 8 0
BBX 8 16 0 -4
BITMAP
00
00
00
00
00
06
0a
12
12
24
a4
4e
02
04
08
00
ENDCHAR
STARTCHAR CySmlEmTail
ENCODING 1237
SWIDTH 960 0
DWIDTH 8 0
BBX 8 16 0 -4
BITMAP
00
00
00
00
00
22
22
24
3c
54
54
96
02
04
08
00
ENDCHAR
STARTCHAR CySmlEnTail
ENCODING 1238
SWIDTH 960 0
DWIDTH 8 0
BBX 8 16 0 -4
BITMAP
00
00
00
00
00
62
22
22
3c
44
44
4e
02
04
08
00
ENDCHAR
STARTCHAR CySmlIBreveTail
ENCODING 1239
SWIDTH 960 0
DWIDTH 8 0
BBX 8 16 0 -4
BITMAP
00
00
12
1e
00
62
22
22
42
44
4c
3e
02
04
08
00
ENDCHAR
STARTCHAR HbAlef
ENCODING 1240
SWIDTH 960 0
DWIDTH 8 0
BBX 8 16 0 -4
BITMAP
00
00
00
00
8c
ce
66
78
98
cc
66
e2
00
00
00
00
ENDCHAR
STARTCHAR HbBet
ENCODING 1241
SWIDTH 960 0
DWIDTH 8 0
BBX 8 16 0 -4
BITMAP
00
00
00
00
78
7c
04
04
04
04
7e
fe
00
00
00
00
ENDCHAR
STARTCHAR HbGimel
ENCODING 1242
SWIDTH 960 0
DWIDTH 8 0
BBX 8 16 0 -4
BITMAP
00
00
00
00
30
38
08
08
08
18
7c
e4
00
00
00
00
ENDCHAR
STARTCHAR HbDalet
ENCODING 1243
SWIDTH 960 0
DWIDTH 8 0
BBX 8 16 0 -4
BITMAP
00
00
00
00
fe
fe
04
04
04
04
04
04
00
00
00
00
ENDCHAR
STARTCHAR HbHe
ENCODING 1244
SWIDTH 960 0
DWIDTH 8 0
BBX 8 16 0 -4
BITMAP
00
00
00
00
fe
fe
02
02
42
42
42
42
00
00
00
00
ENDCHAR
STARTCHAR HbVav
ENCODING 1245
SWIDTH 960 0
DWIDTH 8 0
BBX 8 16 0 -4
BITMAP
00
00
00
00
38
38
08
08
08
08
08
08
00
00
00
00
ENDCHAR
STARTCHAR HbZayin
ENCODING 1246
SWIDTH 960 0
DWIDTH 8 0
BBX 8 16 0 -4
BITMAP
00
00
00
00
7c
7c
10
10
10
10
10
10
00
00
00
00
ENDCHAR
STARTCHAR HbHet
ENCODING 1247
SWIDTH 960 0
DWIDTH 8 0
BBX 8 16 0 -4
BITMAP
00
00
00
00
fe
fe
42
42
42
42
42
42
00
00
00
00
ENDCHAR
STARTCHAR HbTet
ENCODING 1248
SWIDTH 960 0
DWIDTH 8 0
BBX 8 16 0 -4
BITMAP
00
00
00
00
c6
6e
4a
42
42
46
7c
78
00
00
00
00
ENDCHAR
STARTCHAR HbYod
ENCODING 1249
SWIDTH 960 0
DWIDTH 8 0
BBX 8 16 0 -4
BITMAP
00
00
00
00
38
38
08
08
00
00
00
00
00
00
00
00
ENDCHAR
STARTCHAR HbKaf
ENCODING 1250
SWIDTH 960 0
DWIDTH 8 0
BBX 8 16 0 -4
BITMAP
00
00
00
00
78
7c
06
02
02
06
7c
f8
00
00
00
00
ENDCHAR
STARTCHAR HbKafTrm
ENCODING 1251
SWIDTH 960 0
DWIDTH 8 0
BBX 8 16 0 -4
BITMAP
00
00
00
00
7e
7e
02
02
02
02
02
02
02
02
02
00
ENDCHAR
STARTCHAR HbLamed
ENCODING 1252
SWIDTH 960 0
DWIDTH 8 0
BBX 8 16 0 -4
BITMAP
00
40
80
80
fc
fe
02
02
02
04
08
08
00
00
00
00
ENDCHAR
STARTCHAR HbMem
ENCODING 1253
SWIDTH 960 0
DWIDTH 8 0
BBX 8 16 0 -4
BITMAP
00
00
00
00
cc
de
76
22
22
42
4e
4e
00
00
00
00
ENDCHAR
STARTCHAR HbMemTrm
ENCODING 1254
SWIDTH 960 0
DWIDTH 8 0
BBX 8 16 0 -4
BITMAP
00
00
00
00
fc
fe
42
42
42
42
7e
7e
00
00
00
00
ENDCHAR
STARTCHAR HbNun
ENCODING 1255
SWIDTH 960 0
DWIDTH 8 0
BBX 8 16 0 -4
BITMAP
00
00
00
00
1c
1c
04
04
04
04
3c
7c
00
00
00
00
ENDCHAR
STARTCHAR HbNunTrm
ENCODING 1256
SWIDTH 960 0
DWIDTH 8 0
BBX 8 16 0 -4
BITMAP
00
00
00
00
38
38
08
08
08
08
08
08
08
08
08
00
ENDCHAR
STARTCHAR HbSamekh
ENCODING 1257
SWIDTH 960 0
DWIDTH 8 0
BBX 8 16 0 -4
BITMAP
00
00
00
00
fc
fc
46
82
82
c6
7c
38
00
00
00
00
ENDCHAR
STARTCHAR HbAyin
ENCODING 1258
SWIDTH 960 0
DWIDTH 8 0
BBX 8 16 0 -4
BITMAP
00
00
00
00
ee
ee
22
22
16
14
78
e0
00
00
00
00
ENDCHAR
STARTCHAR HbPe
ENCODING 1259
SWIDTH 960 0
DWIDTH 8 0
BBX 8 16 0 -4
BITMAP
00
00
00
00
fc
fe
42
72
72
02
7e
fc
00
00
00
00
ENDCHAR
STARTCHAR HbPeTrm
ENCODING 1260
SWIDTH 960 0
DWIDTH 8 0
BBX 8 16 0 -4
BITMAP
00
00
00
00
fc
fe
42
72
72
02
02
02
02
02
02
00
ENDCHAR
STARTCHAR HbTsadi
ENCODING 1261
SWIDTH 960 0
DWIDTH 8 0
BBX 8 16 0 -4
BITMAP
00
00
00
00
ee
ee
24
14
18
0c
7e
fe
00
00
00
00
ENDCHAR
STARTCHAR HbTsadiTrm
ENCODING 1262
SWIDTH 960 0
DWIDTH 8 0
BBX 8 16 0 -4
BITMAP
00
00
00
00
ee
ee
24
28
30
20
20
20
20
20
20
00
ENDCHAR
STARTCHAR HbQof
ENCODING 1263
SWIDTH 960 0
DWIDTH 8 0
BBX 8 16 0 -4
BITMAP
00
00
00
00
fc
fe
02
42
42
4c
50
50
40
40
40
00
ENDCHAR
STARTCHAR HbResh
ENCODING 1264
SWIDTH 960 0
DWIDTH 8 0
BBX 8 16 0 -4
BITMAP
00
00
00
00
fc
fe
02
02
02
02
02
02
00
00
00
00
ENDCHAR
STARTCHAR HbShin
ENCODING 1265
SWIDTH 960 0
DWIDTH 8 0
BBX 8 16 0 -4
BITMAP
00
00
00
00
92
92
92
92
92
a6
fc
f8
00
00
00
00
ENDCHAR
STARTCHAR HbTav
ENCODING 1266
SWIDTH 960 0
DWIDTH 8 0
BBX 8 16 0 -4
BITMAP
00
00
00
00
7c
7e
22
22
22
22
e2
e2
00
00
00
00
ENDCHAR
STARTCHAR HbAlefLamed
ENCODING 1267
SWIDTH 960 0
DWIDTH 8 0
BBX 8 16 0 -4
BITMAP
00
40
c0
80
cc
ce
66
38
18
0c
06
06
00
00
00
00
ENDCHAR
STARTCHAR HbVavVav
ENCODING 1268
SWIDTH 960 0
DWIDTH 8 0
BBX 8 16 0 -4
BITMAP
00
00
00
00
ee
ee
22
22
22
22
22
22
00
00
00
00
ENDCHAR
STARTCHAR HbVavYod
ENCODING 1269
SWIDTH 960 0
DWIDTH 8 0
BBX 8 16 0 -4
BITMAP
00
00
00
00
ee
ee
22
22
02
02
02
02
00
00
00
00
ENDCHAR
STARTCHAR HbYodYod
ENCODING 1270
SWIDTH 960 0
DWIDTH 8 0
BBX 8 16 0 -4
BITMAP
00
00
00
00
ee
ee
22
22
00
00
00
00
00
00
00
00
ENDCHAR
STARTCHAR HbShinDotShin
ENCODING 1271
SWIDTH 960 0
DWIDTH 8 0
BBX 8 16 0 -4
BITMAP
00
02
02
00
92
92
92
92
92
a6
fc
f8
00
00
00
00
ENDCHAR
STARTCHAR HbShinDotSin
ENCODING 1272
SWIDTH 960 0
DWIDTH 8 0
BBX 8 16 0 -4
BITMAP
00
80
80
00
92
92
92
92
92
a6
fc
f8
00
00
00
00
ENDCHAR
STARTCHAR HbYodHiriq
ENCODING 1273
SWIDTH 960 0
DWIDTH 8 0
BBX 8 16 0 -4
BITMAP
00
00
00
00
38
38
08
08
00
08
08
00
00
00
00
00
ENDCHAR
STARTCHAR HbAlefPatah
ENCODING 1274
SWIDTH 960 0
DWIDTH 8 0
BBX 8 16 0 -4
BITMAP
00
00
00
00
8c
ce
66
78
98
cc
66
e2
00
7c
00
00
ENDCHAR
STARTCHAR HbYodYodPatah
ENCODING 1275
SWIDTH 960 0
DWIDTH 8 0
BBX 8 16 0 -4
BITMAP
00
00
00
00
ee
ee
22
22
00
3e
00
00
00
00
00
00
ENDCHAR
STARTCHAR HbAlefQamats
ENCODING 1276
SWIDTH 960 0
DWIDTH 8 0
BBX 8 16 0 -4
BITMAP
00
00
00
00
8c
ce
66
78
98
cc
66
e2
00
7c
10
10
ENDCHAR
STARTCHAR HbAlefMapiq
ENCODING 1277
SWIDTH 960 0
DWIDTH 8 0
BBX 8 16 0 -4
BITMAP
00
00
00
00
8c
ce
66
78
98
cc
56
d2
00
00
00
00
ENDCHAR
STARTCHAR HbBetDagesh
ENCODING 1278
SWIDTH 960 0
DWIDTH 8 0
BBX 8 16 0 -4
BITMAP
00
00
00
00
78
7c
04
14
14
04
7e
fe
00
00
00
00
ENDCHAR
STARTCHAR HbGimelDagesh
ENCODING 1279
SWIDTH 960 0
DWIDTH 8 0
BBX 8 16 0 -4
BITMAP
00
00
00
00
18
1c
04
14
14
0c
3e
72
00
00
00
00
ENDCHAR
STARTCHAR HbDaletDagesh
ENCODING 1280
SWIDTH 960 0
DWIDTH 8 0
BBX 8 16 0 -4
BITMAP
00
00
00
00
fe
fe
04
14
14
04
04
04
00
00
00
00
ENDCHAR
STARTCHAR HbHeMapiq
ENCODING 1281
SWIDTH 960 0
DWIDTH 8 0
BBX 8 16 0 -4
BITMAP
00
00
00
00
fe
fe
02
02
4a
4a
42
42
00
00
00
00
ENDCHAR
STARTCHAR HbVavDagesh
ENCODING 1282
SWIDTH 960 0
DWIDTH 8 0
BBX 8 16 0 -4
BITMAP
00
00
00
00
38
38
08
28
28
08
08
08
00
00
00
00
ENDCHAR
STARTCHAR HbZayinDagesh
ENCODING 1283
SWIDTH 960 0
DWIDTH 8 0
BBX 8 16 0 -4
BITMAP
00
00
00
00
7c
7c
10
10
50
50
10
10
00
00
00
00
ENDCHAR
STARTCHAR HbTetDagesh
ENCODING 1284
SWIDTH 960 0
DWIDTH 8 0
BBX 8 16 0 -4
BITMAP
00
00
00
00
c6
6e
42
52
52
46
7c
78
00
00
00
00
ENDCHAR
STARTCHAR HbYodDagesh
ENCODING 1285
SWIDTH 960 0
DWIDTH 8 0
BBX 8 16 0 -4
BITMAP
00
00
00
00
38
38
08
28
20
00
00
00
00
00
00
00
ENDCHAR
STARTCHAR HbKafDagesh
ENCODING 1286
SWIDTH 960 0
DWIDTH 8 0
BBX 8 16 0 -4
BITMAP
00
00
00
00
78
7c
06
12
12
06
7c
f8
00
00
00
00
ENDCHAR
STARTCHAR HbKafTrmDagesh
ENCODING 1287
SWIDTH 960 0
DWIDTH 8 0
BBX 8 16 0 -4
BITMAP
00
00
00
00
7e
7e
02
12
12
02
02
02
02
02
02
00
ENDCHAR
STARTCHAR HbLamedDagesh
ENCODING 1288
SWIDTH 960 0
DWIDTH 8 0
BBX 8 16 0 -4
BITMAP
00
40
80
80
fc
fe
02
12
12
04
08
08
00
00
00
00
ENDCHAR
STARTCHAR HbMemDagesh
ENCODING 1289
SWIDTH 960 0
DWIDTH 8 0
BBX 8 16 0 -4
BITMAP
00
00
00
00
cc
de
76
2a
2a
42
4e
4e
00
00
00
00
ENDCHAR
STARTCHAR HbNunDagesh
ENCODING 1290
SWIDTH 960 0
DWIDTH 8 0
BBX 8 16 0 -4
BITMAP
00
00
00
00
1c
1c
04
14
14
04
3c
7c
00
00
00
00
ENDCHAR
STARTCHAR HbSamekhDagesh
ENCODING 1291
SWIDTH 960 0
DWIDTH 8 0
BBX 8 16 0 -4
BITMAP
00
00
00
00
fc
fc
46
92
92
c6
7c
38
00
00
00
00
ENDCHAR
STARTCHAR HbPeDagesh
ENCODING 1292
SWIDTH 960 0
DWIDTH 8 0
BBX 8 16 0 -4
BITMAP
00
00
00
00
fc
fe
42
6a
6a
02
7e
fc
00
00
00
00
ENDCHAR
STARTCHAR HbPeTrmDagesh
ENCODING 1293
SWIDTH 960 0
DWIDTH 8 0
BBX 8 16 0 -4
BITMAP
00
00
00
00
fc
fe
42
6a
6a
02
02
02
02
02
02
00
ENDCHAR
STARTCHAR HbTsadiDagesh
ENCODING 1294
SWIDTH 960 0
DWIDTH 8 0
BBX 8 16 0 -4
BITMAP
00
00
00
00
ee
ee
24
54
58
0c
7e
fe
00
00
00
00
ENDCHAR
STARTCHAR HbQofDagesh
ENCODING 1295
SWIDTH 960 0
DWIDTH 8 0
BBX 8 16 0 -4
BITMAP
00
00
00
00
fc
fe
02
52
52
4c
50
50
40
40
40
00
ENDCHAR
STARTCHAR HbReshDagesh
ENCODING 1296
SWIDTH 960 0
DWIDTH 8 0
BBX 8 16 0 -4
BITMAP
00
00
00
00
fc
fe
02
12
12
02
02
02
00
00
00
00
ENDCHAR
STARTCHAR HbShinDagesh
ENCODING 1297
SWIDTH 960 0
DWIDTH 8 0
BBX 8 16 0 -4
BITMAP
00
00
00
00
92
92
96
96
92
a6
fc
f8
00
00
00
00
ENDCHAR
STARTCHAR HbShinDotShinDagesh
ENCODING 1298
SWIDTH 960 0
DWIDTH 8 0
BBX 8 16 0 -4
BITMAP
00
02
02
00
92
92
96
96
92
a6
fc
f8
00
00
00
00
ENDCHAR
STARTCHAR HbShinDotSinDagesh
ENCODING 1299
SWIDTH 960 0
DWIDTH 8 0
BBX 8 16 0 -4
BITMAP
00
80
80
00
92
92
96
96
92
a6
fc
f8
00
00
00
00
ENDCHAR
STARTCHAR HbTavDagesh
ENCODING 1300
SWIDTH 960 0
DWIDTH 8 0
BBX 8 16 0 -4
BITMAP
00
00
00
00
7c
7e
22
2a
2a
22
e2
e2
00
00
00
00
ENDCHAR
STARTCHAR HbVavHolam
ENCODING 1301
SWIDTH 960 0
DWIDTH 8 0
BBX 8 16 0 -4
BITMAP
00
20
20
00
38
38
08
08
08
08
08
08
00
00
00
00
ENDCHAR
STARTCHAR HbBetRafe
ENCODING 1302
SWIDTH 960 0
DWIDTH 8 0
BBX 8 16 0 -4
BITMAP
00
00
78
00
78
7c
04
04
04
04
7e
fe
00
00
00
00
ENDCHAR
STARTCHAR HbKafRafe
ENCODING 1303
SWIDTH 960 0
DWIDTH 8 0
BBX 8 16 0 -4
BITMAP
00
00
78
00
78
7c
06
02
02
06
7c
f8
00
00
00
00
ENDCHAR
STARTCHAR HbPeRafe
ENCODING 1304
SWIDTH 960 0
DWIDTH 8 0
BBX 8 16 0 -4
BITMAP
00
00
78
00
fc
fe
42
72
72
02
7e
fc
00
00
00
00
ENDCHAR
STARTCHAR GeAn
ENCODING 1305
SWIDTH 960 0
DWIDTH 8 0
BBX 8 16 0 -4
BITMAP
00
00
00
00
00
08
08
04
02
42
44
38
00
00
00
00
ENDCHAR
STARTCHAR GeBan
ENCODING 1306
SWIDTH 960 0
DWIDTH 8 0
BBX 8 16 0 -4
BITMAP
00
00
10
1c
04
04
1c
22
42
42
44
38
00
00
00
00
ENDCHAR
STARTCHAR GeGan
ENCODING 1307
SWIDTH 960 0
DWIDTH 8 0
BBX 8 16 0 -4
BITMAP
00
00
00
00
00
00
18
24
04
08
38
44
84
84
88
70
ENDCHAR
STARTCHAR GeDon
ENCODING 1308
SWIDTH 960 0
DWIDTH 8 0
BBX 8 16 0 -4
BITMAP
00
00
00
00
00
00
1c
22
42
42
44
38
20
70
88
04
ENDCHAR
STARTCHAR GeEn
ENCODING 1309
SWIDTH 960 0
DWIDTH 8 0
BBX 8 16 0 -4
BITMAP
00
00
00
00
00
00
1c
22
22
02
04
04
04
88
88
f0
ENDCHAR
STARTCHAR GeVin
ENCODING 1310
SWIDTH 960 0
DWIDTH 8 0
BBX 8 16 0 -4
BITMAP
00
00
00
00
00
00
1c
22
22
02
0c
04
04
84
88
f0
ENDCHAR
STARTCHAR GeZen
ENCODING 1311
SWIDTH 960 0
DWIDTH 8 0
BBX 8 16 0 -4
BITMAP
00
00
1c
22
24
18
1c
22
42
42
44
38
00
00
00
00
ENDCHAR
STARTCHAR GeTan
ENCODING 1312
SWIDTH 960 0
DWIDTH 8 0
BBX 8 16 0 -4
BITMAP
00
00
00
00
00
00
36
49
49
92
92
64
00
00
00
00
ENDCHAR
STARTCHAR GeIn
ENCODING 1313
SWIDTH 960 0
DWIDTH 8 0
BBX 8 16 0 -4
BITMAP
00
00
00
00
00
00
1c
22
42
42
44
44
00
00
00
00
ENDCHAR
STARTCHAR GeKan
ENCODING 1314
SWIDTH 960 0
DWIDTH 8 0
BBX 8 16 0 -4
BITMAP
00
00
00
00
00
00
02
02
04
04
18
04
04
84
88
f0
ENDCHAR
STARTCHAR GeLas
ENCODING 1315
SWIDTH 960 0
DWIDTH 8 0
BBX 8 16 0 -4
BITMAP
00
00
00
00
00
00
1c
22
42
42
42
40
20
70
88
04
ENDCHAR
STARTCHAR GeMan
ENCODING 1316
SWIDTH 960 0
DWIDTH 8 0
BBX 8 16 0 -4
BITMAP
00
00
0e
11
11
01
1a
26
42
44
44
38
00
00
00
00
ENDCHAR
STARTCHAR GeNar
ENCODING 1317
SWIDTH 960 0
DWIDTH 8 0
BBX 8 16 0 -4
BITMAP
00
00
0f
10
10
20
3c
22
42
42
44
38
00
00
00
00
ENDCHAR
STARTCHAR GeOn
ENCODING 1318
SWIDTH 960 0
DWIDTH 8 0
BBX 8 16 0 -4
BITMAP
00
00
00
00
00
00
36
49
49
92
82
84
00
00
00
00
ENDCHAR
STARTCHAR GePar
ENCODING 1319
SWIDTH 960 0
DWIDTH 8 0
BBX 8 16 0 -4
BITMAP
00
00
08
08
0c
02
02
0c
02
44
44
78
00
00
00
00
ENDCHAR
STARTCHAR GeZhar
ENCODING 1320
SWIDTH 960 0
DWIDTH 8 0
BBX 8 16 0 -4
BITMAP
00
00
00
00
00
00
06
6a
4a
54
24
04
08
88
88
f0
ENDCHAR
STARTCHAR GeRae
ENCODING 1321
SWIDTH 960 0
DWIDTH 8 0
BBX 8 16 0 -4
BITMAP
00
00
01
06
18
20
36
49
49
92
82
84
00
00
00
00
ENDCHAR
STARTCHAR GeSan
ENCODING 1322
SWIDTH 960 0
DWIDTH 8 0
BBX 8 16 0 -4
BITMAP
00
00
10
10
10
20
23
24
44
42
42
3c
00
00
00
00
ENDCHAR
STARTCHAR GeTar
ENCODING 1323
SWIDTH 960 0
DWIDTH 8 0
BBX 8 16 0 -4
BITMAP
00
00
00
00
00
0c
14
3c
2a
42
82
82
82
84
88
78
ENDCHAR
STARTCHAR GeUn
ENCODING 1324
SWIDTH 960 0
DWIDTH 8 0
BBX 8 16 0 -4
BITMAP
00
00
00
00
00
00
4c
72
12
22
04
04
04
88
88
f0
ENDCHAR
STARTCHAR GePhar
ENCODING 1325
SWIDTH 960 0
DWIDTH 8 0
BBX 8 16 0 -4
BITMAP
00
00
00
00
00
00
36
49
49
52
26
02
02
42
44
78
ENDCHAR
STARTCHAR GeKhar
ENCODING 1326
SWIDTH 960 0
DWIDTH 8 0
BBX 8 16 0 -4
BITMAP
00
00
01
03
01
02
02
1e
22
04
04
04
08
88
88
f0
ENDCHAR
STARTCHAR GeGhan
ENCODING 1327
SWIDTH 960 0
DWIDTH 8 0
BBX 8 16 0 -4
BITMAP
00
00
00
00
00
00
36
49
49
92
82
84
40
70
88
04
ENDCHAR
STARTCHAR GeQar
ENCODING 1328
SWIDTH 960 0
DWIDTH 8 0
BBX 8 16 0 -4
BITMAP
00
00
00
00
00
00
22
22
42
44
3c
04
04
88
88
f0
ENDCHAR
STARTCHAR GeShin
ENCODING 1329
SWIDTH 960 0
DWIDTH 8 0
BBX 8 16 0 -4
BITMAP
00
00
36
49
49
01
1a
26
42
44
44
38
00
00
00
00
ENDCHAR
STARTCHAR GeChin
ENCODING 1330
SWIDTH 960 0
DWIDTH 8 0
BBX 8 16 0 -4
BITMAP
00
00
0e
11
1e
10
2c
32
22
42
44
44
00
00
00
00
ENDCHAR
STARTCHAR GeCan
ENCODING 1331
SWIDTH 960 0
DWIDTH 8 0
BBX 8 16 0 -4
BITMAP
00
00
00
00
00
00
24
26
42
42
8c
84
84
84
88
70
ENDCHAR
STARTCHAR GeJil
ENCODING 1332
SWIDTH 960 0
DWIDTH 8 0
BBX 8 16 0 -4
BITMAP
00
00
02
01
01
01
1a
26
42
44
44
38
00
00
00
00
ENDCHAR
STARTCHAR GeCil
ENCODING 1333
SWIDTH 960 0
DWIDTH 8 0
BBX 8 16 0 -4
BITMAP
00
00
1b
25
29
2a
20
3e
22
24
24
28
28
30
30
20
ENDCHAR
STARTCHAR GeChar
ENCODING 1334
SWIDTH 960 0
DWIDTH 8 0
BBX 8 16 0 -4
BITMAP
00
00
08
04
02
02
04
36
5c
6a
08
08
10
90
90
e0
ENDCHAR
STARTCHAR GeXan
ENCODING 1335
SWIDTH 960 0
DWIDTH 8 0
BBX 8 16 0 -4
BITMAP
00
00
10
10
12
24
2c
32
42
42
44
38
00
00
00
00
ENDCHAR
STARTCHAR GeJhan
ENCODING 1336
SWIDTH 960 0
DWIDTH 8 0
BBX 8 16 0 -4
BITMAP
00
00
00
00
00
00
62
56
08
30
54
cc
40
40
80
00
ENDCHAR
STARTCHAR GeHae
ENCODING 1337
SWIDTH 960 0
DWIDTH 8 0
BBX 8 16 0 -4
BITMAP
00
00
08
0e
01
0f
02
1e
02
44
44
38
00
00
00
00
ENDCHAR
STARTCHAR GeHe
ENCODING 1338
SWIDTH 960 0
DWIDTH 8 0
BBX 8 16 0 -4
BITMAP
00
00
1a
2a
2a
31
45
43
4a
46
44
38
00
00
00
00
ENDCHAR
STARTCHAR GeHie
ENCODING 1339
SWIDTH 960 0
DWIDTH 8 0
BBX 8 16 0 -4
BITMAP
00
00
00
00
00
00
3c
42
42
44
28
30
50
88
00
00
ENDCHAR
STARTCHAR GeWe
ENCODING 1340
SWIDTH 960 0
DWIDTH 8 0
BBX 8 16 0 -4
BITMAP
00
00
00
00
00
00
3e
04
08
10
38
04
04
88
88
f0
ENDCHAR
STARTCHAR GeHar
ENCODING 1341
SWIDTH 960 0
DWIDTH 8 0
BBX 8 16 0 -4
BITMAP
00
00
04
08
10
10
0e
04
08
10
38
04
04
88
88
f0
ENDCHAR
STARTCHAR GeHoe
ENCODING 1342
SWIDTH 960 0
DWIDTH 8 0
BBX 8 16 0 -4
BITMAP
00
00
1c
22
22
1f
04
3e
44
88
88
70
00
00
00
00
ENDCHAR
STARTCHAR GeFi
ENCODING 1343
SWIDTH 960 0
DWIDTH 8 0
BBX 8 16 0 -4
BITMAP
00
00
00
00
00
00
14
2a
4a
52
54
18
10
20
20
c0
ENDCHAR
STARTCHAR GeYn
ENCODING 1344
SWIDTH 960 0
DWIDTH 8 0
BBX 8 16 0 -4
BITMAP
00
00
00
00
00
00
1c
22
22
04
18
60
80
88
88
70
ENDCHAR
STARTCHAR GeElifi
ENCODING 1345
SWIDTH 960 0
DWIDTH 8 0
BBX 8 16 0 -4
BITMAP
00
00
00
00
00
00
22
22
22
44
78
40
80
88
88
70
ENDCHAR
STARTCHAR GeAin
ENCODING 1346
SWIDTH 960 0
DWIDTH 8 0
BBX 8 16 0 -4
BITMAP
00
00
00
00
00
00
1c
22
40
40
20
78
80
00
00
00
ENDCHAR
STARTCHAR GeAen
ENCODING 1347
SWIDTH 960 0
DWIDTH 8 0
BBX 8 16 0 -4
BITMAP
00
00
04
0a
12
10
08
04
02
42
44
38
00
00
00
00
ENDCHAR
STARTCHAR GeUo
ENCODING 1348
SWIDTH 960 0
DWIDTH 8 0
BBX 8 16 0 -4
BITMAP
00
00
00
00
00
00
19
27
24
48
40
40
80
88
88
70
ENDCHAR
STARTCHAR GeHardSign
ENCODING 1349
SWIDTH 960 0
DWIDTH 8 0
BBX 8 16 0 -4
BITMAP
00
00
00
00
00
33
0c
14
22
42
42
3c
00
00
00
00
ENDCHAR
STARTCHAR GeLabialSign
ENCODING 1350
SWIDTH 960 0
DWIDTH 8 0
BBX 8 16 0 -4
BITMAP
00
00
00
00
00
00
1c
22
42
42
44
38
00
00
00
00
ENDCHAR
STARTCHAR GeGanTrnd
ENCODING 1351
SWIDTH 960 0
DWIDTH 8 0
BBX 8 16 0 -4
BITMAP
00
00
00
00
00
00
1c
22
42
42
44
38
20
40
48
30
ENDCHAR
STARTCHAR GeAnDrss
ENCODING 1352
SWIDTH 960 0
DWIDTH 8 0
BBX 8 16 0 -4
BITMAP
00
00
12
12
00
08
08
04
02
42
44
38
00
00
00
00
ENDCHAR
STARTCHAR GeOnDrss
ENCODING 1353
SWIDTH 960 0
DWIDTH 8 0
BBX 8 16 0 -4
BITMAP
00
00
00
12
12
00
36
49
49
92
82
84
00
00
00
00
ENDCHAR
STARTCHAR GeUnDrss
ENCODING 1354
SWIDTH 960 0
DWIDTH 8 0
BBX 8 16 0 -4
BITMAP
00
00
00
12
12
00
4c
72
12
22
04
04
04
88
88
f0
ENDCHAR
STARTCHAR GeAnGrave
ENCODING 1355
SWIDTH 960 0
DWIDTH 8 0
BBX 8 16 0 -4
BITMAP
00
08
08
04
00
08
08
04
02
42
44
38
00
00
00
00
ENDCHAR
STARTCHAR GeUnCircum
ENCODING 1356
SWIDTH 960 0
DWIDTH 8 0
BBX 8 16 0 -4
BITMAP
00
00
00
0c
12
00
4c
72
12
22
04
04
04
88
88
f0
ENDCHAR
STARTCHAR GeAnMacron
ENCODING 1357
SWIDTH 960 0
DWIDTH 8 0
BBX 8 16 0 -4
BITMAP
00
00
00
1e
00
08
08
04
02
42
44
38
00
00
00
00
ENDCHAR
STARTCHAR GeEnMacron
ENCODING 1358
SWIDTH 960 0
DWIDTH 8 0
BBX 8 16 0 -4
BITMAP
00
00
00
1e
00
00
1c
22
22
02
04
04
04
88
88
f0
ENDCHAR
STARTCHAR GeInMacron
ENCODING 1359
SWIDTH 960 0
DWIDTH 8 0
BBX 8 16 0 -4
BITMAP
00
00
00
1e
00
00
1c
22
42
42
44
44
00
00
00
00
ENDCHAR
STARTCHAR GeOnMacron
ENCODING 1360
SWIDTH 960 0
DWIDTH 8 0
BBX 8 16 0 -4
BITMAP
00
00
00
1e
00
00
36
49
49
92
82
84
00
00
00
00
ENDCHAR
STARTCHAR GeUnMacron
ENCODING 1361
SWIDTH 960 0
DWIDTH 8 0
BBX 8 16 0 -4
BITMAP
00
00
00
1e
00
00
4c
72
12
22
04
04
04
88
88
f0
ENDCHAR
STARTCHAR GeAnDrssMacron
ENCODING 1362
SWIDTH 960 0
DWIDTH 8 0
BBX 8 16 0 -4
BITMAP
00
1f
00
12
12
00
08
04
02
42
44
38
00
00
00
00
ENDCHAR
STARTCHAR GeAnGraveMacron
ENCODING 1363
SWIDTH 960 0
DWIDTH 8 0
BBX 8 16 0 -4
BITMAP
00
1e
00
10
0c
00
08
04
02
42
44
38
00
00
00
00
ENDCHAR
STARTCHAR AmCapAyb
ENCODING 1364
SWIDTH 960 0
DWIDTH 8 0
BBX 8 16 0 -4
BITMAP
00
00
22
22
42
44
44
44
84
9c
8a
72
00
00
00
00
ENDCHAR
STARTCHAR AmCapBen
ENCODING 1365
SWIDTH 960 0
DWIDTH 8 0
BBX 8 16 0 -4
BITMAP
00
00
1e
21
21
41
40
40
7c
80
80
80
00
00
00
00
ENDCHAR
STARTCHAR AmCapGim
ENCODING 1366
SWIDTH 960 0
DWIDTH 8 0
BBX 8 16 0 -4
BITMAP
00
00
1c
22
42
42
44
44
3e
08
08
08
00
00
00
00
ENDCHAR
STARTCHAR AmCapDa
ENCODING 1367
SWIDTH 960 0
DWIDTH 8 0
BBX 8 16 0 -4
BITMAP
00
00
1c
22
42
42
44
04
0e
08
08
08
00
00
00
00
ENDCHAR
STARTCHAR AmCapEch
ENCODING 1368
SWIDTH 960 0
DWIDTH 8 0
BBX 8 16 0 -4
BITMAP
00
00
10
10
20
3f
20
20
40
42
42
3c
00
00
00
00
ENDCHAR
STARTCHAR AmCapZa
ENCODING 1369
SWIDTH 960 0
DWIDTH 8 0
BBX 8 16 0 -4
BITMAP
00
00
0e
11
11
11
0e
04
08
50
7c
42
00
00
00
00
ENDCHAR
STARTCHAR AmCapEh
ENCODING 1370
SWIDTH 960 0
DWIDTH 8 0
BBX 8 16 0 -4
BITMAP
00
00
10
10
10
3f
20
20
20
40
40
7c
00
00
00
00
ENDCHAR
STARTCHAR AmCapEt
ENCODING 1371
SWIDTH 960 0
DWIDTH 8 0
BBX 8 16 0 -4
BITMAP
00
00
1e
21
21
42
42
40
40
80
80
fc
00
00
00
00
ENDCHAR
STARTCHAR AmCapTo
ENCODING 1372
SWIDTH 960 0
DWIDTH 8 0
BBX 8 16 0 -4
BITMAP
00
00
1e
21
21
4f
52
52
4c
80
80
80
00
00
00
00
ENDCHAR
STARTCHAR AmCapZhe
ENCODING 1373
SWIDTH 960 0
DWIDTH 8 0
BBX 8 16 0 -4
BITMAP
00
00
01
01
02
3f
42
42
84
84
84
78
00
00
00
00
ENDCHAR
STARTCHAR AmCapIni
ENCODING 1374
SWIDTH 960 0
DWIDTH 8 0
BBX 8 16 0 -4
BITMAP
00
00
20
20
20
7c
42
42
42
80
80
80
00
00
00
00
ENDCHAR
STARTCHAR AmCapLiwn
ENCODING 1375
SWIDTH 960 0
DWIDTH 8 0
BBX 8 16 0 -4
BITMAP
00
00
20
20
20
40
40
40
40
80
80
fc
00
00
00
00
ENDCHAR
STARTCHAR AmCapXeh
ENCODING 1376
SWIDTH 960 0
DWIDTH 8 0
BBX 8 16 0 -4
BITMAP
00
00
20
20
20
79
49
4a
4a
92
92
8c
00
00
00
00
ENDCHAR
STARTCHAR AmCapCa
ENCODING 1377
SWIDTH 960 0
DWIDTH 8 0
BBX 8 16 0 -4
BITMAP
00
00
23
1c
14
22
22
42
42
44
44
38
00
00
00
00
ENDCHAR
STARTCHAR AmCapKen
ENCODING 1378
SWIDTH 960 0
DWIDTH 8 0
BBX 8 16 0 -4
BITMAP
00
00
20
20
20
42
42
42
3c
04
04
04
00
00
00
00
ENDCHAR
STARTCHAR AmCapHo
ENCODING 1379
SWIDTH 960 0
DWIDTH 8 0
BBX 8 16 0 -4
BITMAP
00
00
04
08
0c
08
10
20
40
c0
30
0c
00
00
00
00
ENDCHAR
STARTCHAR AmCapJa
ENCODING 1380
SWIDTH 960 0
DWIDTH 8 0
BBX 8 16 0 -4
BITMAP
00
00
1c
22
22
02
02
04
68
90
98
64
00
00
00
00
ENDCHAR
STARTCHAR AmCapGhad
ENCODING 1381
SWIDTH 960 0
DWIDTH 8 0
BBX 8 16 0 -4
BITMAP
00
00
1c
22
42
42
04
04
04
08
08
0e
00
00
00
00
ENDCHAR
STARTCHAR AmCapCheh
ENCODING 1382
SWIDTH 960 0
DWIDTH 8 0
BBX 8 16 0 -4
BITMAP
00
00
33
0c
0c
14
24
44
44
84
84
fc
00
00
00
00
ENDCHAR
STARTCHAR AmCapMen
ENCODING 1383
SWIDTH 960 0
DWIDTH 8 0
BBX 8 16 0 -4
BITMAP
00
00
27
25
45
44
48
48
88
88
90
60
00
00
00
00
ENDCHAR
STARTCHAR AmCapYi
ENCODING 1384
SWIDTH 960 0
DWIDTH 8 0
BBX 8 16 0 -4
BITMAP
00
00
0e
11
01
02
7c
02
02
02
84
78
00
00
00
00
ENDCHAR
STARTCHAR AmCapNow
ENCODING 1385
SWIDTH 960 0
DWIDTH 8 0
BBX 8 16 0 -4
BITMAP
00
00
70
10
10
20
20
22
42
42
44
38
00
00
00
00
ENDCHAR
STARTCHAR AmCapSha
ENCODING 1386
SWIDTH 960 0
DWIDTH 8 0
BBX 8 16 0 -4
BITMAP
00
00
30
0c
13
20
40
40
40
40
44
38
00
00
00
00
ENDCHAR
STARTCHAR AmCapVo
ENCODING 1387
SWIDTH 960 0
DWIDTH 8 0
BBX 8 16 0 -4
BITMAP
00
00
1e
21
21
41
42
42
42
82
84
84
00
00
00
00
ENDCHAR
STARTCHAR AmCapCha
ENCODING 1388
SWIDTH 960 0
DWIDTH 8 0
BBX 8 16 0 -4
BITMAP
00
00
1c
22
02
02
02
04
48
30
08
04
00
00
00
00
ENDCHAR
STARTCHAR AmCapPeh
ENCODING 1389
SWIDTH 960 0
DWIDTH 8 0
BBX 8 16 0 -4
BITMAP
00
00
3e
49
49
49
12
12
12
04
04
04
00
00
00
00
ENDCHAR
STARTCHAR AmCapJheh
ENCODING 1390
SWIDTH 960 0
DWIDTH 8 0
BBX 8 16 0 -4
BITMAP
00
00
1e
21
21
22
14
18
10
a0
f8
84
00
00
00
00
ENDCHAR
STARTCHAR AmCapRa
ENCODING 1391
SWIDTH 960 0
DWIDTH 8 0
BBX 8 16 0 -4
BITMAP
00
00
1c
22
22
42
44
44
4e
88
88
88
00
00
00
00
ENDCHAR
STARTCHAR AmCapSeh
ENCODING 1392
SWIDTH 960 0
DWIDTH 8 0
BBX 8 16 0 -4
BITMAP
00
00
21
21
41
42
42
42
82
84
84
78
00
00
00
00
ENDCHAR
STARTCHAR AmCapVew
ENCODING 1393
SWIDTH 960 0
DWIDTH 8 0
BBX 8 16 0 -4
BITMAP
00
00
02
02
02
44
44
44
38
08
08
0e
00
00
00
00
ENDCHAR
STARTCHAR AmCapTiwn
ENCODING 1394
SWIDTH 960 0
DWIDTH 8 0
BBX 8 16 0 -4
BITMAP
00
00
1e
21
21
20
10
08
04
84
84
78
00
00
00
00
ENDCHAR
STARTCHAR AmCapReh
ENCODING 1395
SWIDTH 960 0
DWIDTH 8 0
BBX 8 16 0 -4
BITMAP
00
00
1e
21
21
42
42
40
40
80
80
80
00
00
00
00
ENDCHAR
STARTCHAR AmCapCo
ENCODING 1396
SWIDTH 960 0
DWIDTH 8 0
BBX 8 16 0 -4
BITMAP
00
00
0e
11
11
12
1c
22
02
02
84
78
00
00
00
00
ENDCHAR
STARTCHAR AmCapYiwn
ENCODING 1397
SWIDTH 960 0
DWIDTH 8 0
BBX 8 16 0 -4
BITMAP
00
00
10
10
10
1e
20
20
20
40
40
40
00
00
00
00
ENDCHAR
STARTCHAR AmCapPiwr
ENCODING 1398
SWIDTH 960 0
DWIDTH 8 0
BBX 8 16 0 -4
BITMAP
00
00
04
1e
25
49
49
49
49
52
3c
10
00
00
00
00
ENDCHAR
STARTCHAR AmCapKeh
ENCODING 1399
SWIDTH 960 0
DWIDTH 8 0
BBX 8 16 0 -4
BITMAP
00
00
0e
11
11
21
22
3c
20
f8
40
40
00
00
00
00
ENDCHAR
STARTCHAR AmCapOh
ENCODING 1400
SWIDTH 960 0
DWIDTH 8 0
BBX 8 16 0 -4
BITMAP
00
00
0e
11
21
21
41
41
42
42
44
38
00
00
00
00
ENDCHAR
STARTCHAR AmCapFeh
ENCODING 1401
SWIDTH 960 0
DWIDTH 8 0
BBX 8 16 0 -4
BITMAP
00
00
0e
14
14
1c
0a
0a
12
92
94
78
00
00
00
00
ENDCHAR
STARTCHAR AmSmlAyb
ENCODING 1402
SWIDTH 960 0
DWIDTH 8 0
BBX 8 16 0 -4
BITMAP
00
00
00
00
00
00
49
49
49
92
92
7e
00
00
00
00
ENDCHAR
STARTCHAR AmSmlBen
ENCODING 1403
SWIDTH 960 0
DWIDTH 8 0
BBX 8 16 0 -4
BITMAP
00
00
00
00
00
00
2c
32
22
40
40
7c
40
80
80
80
ENDCHAR
STARTCHAR AmSmlGim
ENCODING 1404
SWIDTH 960 0
DWIDTH 8 0
BBX 8 16 0 -4
BITMAP
00
00
00
00
00
00
34
4c
84
88
98
6e
08
10
10
10
ENDCHAR
STARTCHAR AmSmlDa
ENCODING 1405
SWIDTH 960 0
DWIDTH 8 0
BBX 8 16 0 -4
BITMAP
00
00
00
00
00
00
5c
64
44
88
88
8e
08
10
10
10
ENDCHAR
STARTCHAR AmSmlEch
ENCODING 1406
SWIDTH 960 0
DWIDTH 8 0
BBX 8 16 0 -4
BITMAP
00
00
10
10
10
20
3e
20
20
44
44
3c
00
00
00
00
ENDCHAR
STARTCHAR AmSmlZa
ENCODING 1407
SWIDTH 960 0
DWIDTH 8 0
BBX 8 16 0 -4
BITMAP
00
00
00
00
00
00
1a
26
42
44
4c
34
04
08
08
0e
ENDCHAR
STARTCHAR AmSmlEh
ENCODING 1408
SWIDTH 960 0
DWIDTH 8 0
BBX 8 16 0 -4
BITMAP
00
00
10
10
10
20
3e
20
20
40
40
38
04
08
00
00
ENDCHAR
STARTCHAR AmSmlEt
ENCODING 1409
SWIDTH 960 0
DWIDTH 8 0
BBX 8 16 0 -4
BITMAP
00
00
00
00
00
00
2e
32
22
44
44
44
40
80
80
f8
ENDCHAR
STARTCHAR AmSmlTo
ENCODING 1410
SWIDTH 960 0
DWIDTH 8 0
BBX 8 16 0 -4
BITMAP
00
00
16
19
11
21
27
2a
32
54
54
48
40
80
80
80
ENDCHAR
STARTCHAR AmSmlZhe
ENCODING 1411
SWIDTH 960 0
DWIDTH 8 0
BBX 8 16 0 -4
BITMAP
00
00
01
01
01
02
1f
22
44
44
44
38
00
00
00
00
ENDCHAR
STARTCHAR AmSmlIni
ENCODING 1412
SWIDTH 960 0
DWIDTH 8 0
BBX 8 16 0 -4
BITMAP
00
00
10
10
10
20
2e
32
22
44
44
44
40
80
80
80
ENDCHAR
STARTCHAR AmSmlLiwn
ENCODING 1413
SWIDTH 960 0
DWIDTH 8 0
BBX 8 16 0 -4
BITMAP
00
00
00
00
00
00
18
08
08
10
10
10
10
20
20
3c
ENDCHAR
STARTCHAR AmSmlXeh
ENCODING 1414
SWIDTH 960 0
DWIDTH 8 0
BBX 8 16 0 -4
BITMAP
00
00
10
10
10
20
39
29
29
52
52
4e
40
80
80
80
ENDCHAR
STARTCHAR AmSmlCa
ENCODING 1415
SWIDTH 960 0
DWIDTH 8 0
BBX 8 16 0 -4
BITMAP
00
00
10
10
08
08
1f
24
42
42
44
38
00
00
00
00
ENDCHAR
STARTCHAR AmSmlKen
ENCODING 1416
SWIDTH 960 0
DWIDTH 8 0
BBX 8 16 0 -4
BITMAP
00
00
10
10
10
20
22
22
42
44
4c
34
04
08
08
08
ENDCHAR
STARTCHAR AmSmlHo
ENCODING 1417
SWIDTH 960 0
DWIDTH 8 0
BBX 8 16 0 -4
BITMAP
00
00
0c
14
10
20
20
60
18
06
04
04
00
00
00
00
ENDCHAR
STARTCHAR AmSmlJa
ENCODING 1418
SWIDTH 960 0
DWIDTH 8 0
BBX 8 16 0 -4
BITMAP
00
00
04
08
04
04
08
14
22
42
44
3a
00
00
00
00
ENDCHAR
STARTCHAR AmSmlGhad
ENCODING 1419
SWIDTH 960 0
DWIDTH 8 0
BBX 8 16 0 -4
BITMAP
00
00
00
00
00
00
2e
32
22
44
44
44
04
08
08
0e
ENDCHAR
STARTCHAR AmSmlCheh
ENCODING 1420
SWIDTH 960 0
DWIDTH 8 0
BBX 8 16 0 -4
BITMAP
00
00
01
02
04
08
38
14
22
42
44
7c
00
00
00
00
ENDCHAR
STARTCHAR AmSmlMen
ENCODING 1421
SWIDTH 960 0
DWIDTH 8 0
BBX 8 16 0 -4
BITMAP
00
00
03
05
04
02
22
22
42
44
4c
34
00
00
00
00
ENDCHAR
STARTCHAR AmSmlYi
ENCODING 1422
SWIDTH 960 0
DWIDTH 8 0
BBX 8 16 0 -4
BITMAP
00
00
00
00
00
00
1c
08
08
08
10
10
10
10
20
c0
ENDCHAR
STARTCHAR AmSmlNow
ENCODING 1423
SWIDTH 960 0
DWIDTH 8 0
BBX 8 16 0 -4
BITMAP
00
00
30
40
40
20
22
22
42
44
4c
34
00
00
00
00
ENDCHAR
STARTCHAR AmSmlSha
ENCODING 1424
SWIDTH 960 0
DWIDTH 8 0
BBX 8 16 0 -4
BITMAP
00
00
00
00
00
00
1c
22
02
04
08
10
20
40
80
78
ENDCHAR
STARTCHAR AmSmlVo
ENCODING 1425
SWIDTH 960 0
DWIDTH 8 0
BBX 8 16 0 -4
BITMAP
00
00
00
00
00
00
2e
32
22
44
44
44
00
00
00
00
ENDCHAR
STARTCHAR AmSmlCha
ENCODING 1426
SWIDTH 960 0
DWIDTH 8 0
BBX 8 16 0 -4
BITMAP
00
00
00
00
00
00
08
10
10
08
08
10
20
40
80
78
ENDCHAR
STARTCHAR AmSmlPeh
ENCODING 1427
SWIDTH 960 0
DWIDTH 8 0
BBX 8 16 0 -4
BITMAP
00
00
00
00
00
00
49
49
49
92
92
7e
02
04
04
04
ENDCHAR
STARTCHAR AmSmlJheh
ENCODING 1428
SWIDTH 960 0
DWIDTH 8 0
BBX 8 16 0 -4
BITMAP
00
00
06
09
09
11
12
12
14
18
10
20
40
80
80
78
ENDCHAR
STARTCHAR AmSmlRa
ENCODING 1429
SWIDTH 960 0
DWIDTH 8 0
BBX 8 16 0 -4
BITMAP
00
00
00
00
00
00
5c
64
44
88
88
8e
00
00
00
00
ENDCHAR
STARTCHAR AmSmlSeh
ENCODING 1430
SWIDTH 960 0
DWIDTH 8 0
BBX 8 16 0 -4
BITMAP
00
00
00
00
00
00
22
22
42
44
4c
34
00
00
00
00
ENDCHAR
STARTCHAR AmSmlVew
ENCODING 1431
SWIDTH 960 0
DWIDTH 8 0
BBX 8 16 0 -4
BITMAP
00
00
01
01
01
02
22
22
42
44
4c
34
04
08
08
0c
ENDCHAR
STARTCHAR AmSmlTiwn
ENCODING 1432
SWIDTH 960 0
DWIDTH 8 0
BBX 8 16 0 -4
BITMAP
00
00
00
00
00
00
4e
49
49
92
92
72
00
00
00
00
ENDCHAR
STARTCHAR AmSmlReh
ENCODING 1433
SWIDTH 960 0
DWIDTH 8 0
BBX 8 16 0 -4
BITMAP
00
00
00
00
00
00
2e
32
22
44
44
44
40
80
80
80
ENDCHAR
STARTCHAR AmSmlCo
ENCODING 1434
SWIDTH 960 0
DWIDTH 8 0
BBX 8 16 0 -4
BITMAP
00
00
00
00
00
00
1e
22
22
44
4c
34
04
08
88
f0
ENDCHAR
STARTCHAR AmSmlYiwn
ENCODING 1435
SWIDTH 960 0
DWIDTH 8 0
BBX 8 16 0 -4
BITMAP
00
00
00
00
00
00
30
10
10
20
20
3c
00
00
00
00
ENDCHAR
STARTCHAR AmSmlPiwr
ENCODING 1436
SWIDTH 960 0
DWIDTH 8 0
BBX 8 16 0 -4
BITMAP
00
00
04
04
04
08
4e
49
49
92
92
72
10
20
20
20
ENDCHAR
STARTCHAR AmSmlKeh
ENCODING 1437
SWIDTH 960 0
DWIDTH 8 0
BBX 8 16 0 -4
BITMAP
00
00
00
00
00
00
3c
22
22
22
44
78
40
80
f8
80
ENDCHAR
STARTCHAR AmSmlOh
ENCODING 1438
SWIDTH 960 0
DWIDTH 8 0
BBX 8 16 0 -4
BITMAP
00
00
00
00
00
00
1c
22
22
44
44
38
00
00
00
00
ENDCHAR
STARTCHAR AmSmlFeh
ENCODING 1439
SWIDTH 960 0
DWIDTH 8 0
BBX 8 16 0 -4
BITMAP
00
00
0c
14
14
14
18
0c
0a
92
94
78
10
20
20
20
ENDCHAR
STARTCHAR AmSmlEchYiwn
ENCODING 1440
SWIDTH 960 0
DWIDTH 8 0
BBX 8 16 0 -4
BITMAP
00
00
10
10
10
20
22
22
42
44
4c
37
00
00
00
00
ENDCHAR
STARTCHAR GkCapAlp
ENCODING 1441
SWIDTH 960 0
DWIDTH 8 0
BBX 8 16 0 -4
BITMAP
00
00
0c
0c
14
14
24
24
7c
44
84
84
00
00
00
00
ENDCHAR
STARTCHAR GkCapBet
ENCODING 1442
SWIDTH 960 0
DWIDTH 8 0
BBX 8 16 0 -4
BITMAP
00
00
1e
11
11
22
3c
22
22
42
44
78
00
00
00
00
ENDCHAR
STARTCHAR GkCapGam
ENCODING 1443
SWIDTH 960 0
DWIDTH 8 0
BBX 8 16 0 -4
BITMAP
00
00
1f
10
10
20
20
20
20
40
40
40
00
00
00
00
ENDCHAR
STARTCHAR GkCapDel
ENCODING 1444
SWIDTH 960 0
DWIDTH 8 0
BBX 8 16 0 -4
BITMAP
00
00
0c
0c
14
14
24
24
44
44
84
fc
00
00
00
00
ENDCHAR
STARTCHAR GkCapEps
ENCODING 1445
SWIDTH 960 0
DWIDTH 8 0
BBX 8 16 0 -4
BITMAP
00
00
1f
10
10
20
3c
20
20
40
40
7c
00
00
00
00
ENDCHAR
STARTCHAR GkCapZet
ENCODING 1446
SWIDTH 960 0
DWIDTH 8 0
BBX 8 16 0 -4
BITMAP
00
00
3f
01
02
04
08
10
20
40
80
fc
00
00
00
00
ENDCHAR
STARTCHAR GkCapEta
ENCODING 1447
SWIDTH 960 0
DWIDTH 8 0
BBX 8 16 0 -4
BITMAP
00
00
21
21
21
42
7e
42
42
84
84
84
00
00
00
00
ENDCHAR
STARTCHAR GkCapThe
ENCODING 1448
SWIDTH 960 0
DWIDTH 8 0
BBX 8 16 0 -4
BITMAP
00
00
0e
11
21
21
5d
55
42
42
44
38
00
00
00
00
ENDCHAR
STARTCHAR GkCapTheAlt
ENCODING 1449
SWIDTH 960 0
DWIDTH 8 0
BBX 8 16 0 -4
BITMAP
00
00
0e
11
21
21
7f
41
42
42
44
38
00
00
00
00
ENDCHAR
STARTCHAR GkCapIot
ENCODING 1450
SWIDTH 960 0
DWIDTH 8 0
BBX 8 16 0 -4
BITMAP
00
00
1f
04
04
08
08
08
08
10
10
7c
00
00
00
00
ENDCHAR
STARTCHAR GkCapKap
ENCODING 1451
SWIDTH 960 0
DWIDTH 8 0
BBX 8 16 0 -4
BITMAP
00
00
21
22
24
48
70
50
48
88
84
84
00
00
00
00
ENDCHAR
STARTCHAR GkCapLam
ENCODING 1452
SWIDTH 960 0
DWIDTH 8 0
BBX 8 16 0 -4
BITMAP
00
00
0c
0c
14
14
24
24
44
44
84
84
00
00
00
00
ENDCHAR
STARTCHAR GkCapMu
ENCODING 1453
SWIDTH 960 0
DWIDTH 8 0
BBX 8 16 0 -4
BITMAP
00
00
21
21
33
56
5a
5a
42
84
84
84
00
00
00
00
ENDCHAR
ENDFONT
